<?xml version="1.0" encoding="utf-8" standalone="no"?>
<!DOCTYPE svg PUBLIC "-//W3C//DTD SVG 1.1//EN"
  "http://www.w3.org/Graphics/SVG/1.1/DTD/svg11.dtd">
<svg xmlns:xlink="http://www.w3.org/1999/xlink" width="1065.6pt" height="432pt" viewBox="0 0 1065.6 432" xmlns="http://www.w3.org/2000/svg" version="1.1">
 <metadata>
  <rdf:RDF xmlns:dc="http://purl.org/dc/elements/1.1/" xmlns:cc="http://creativecommons.org/ns#" xmlns:rdf="http://www.w3.org/1999/02/22-rdf-syntax-ns#">
   <cc:Work>
    <dc:type rdf:resource="http://purl.org/dc/dcmitype/StillImage"/>
    <dc:date>2025-10-21T11:20:35.911740</dc:date>
    <dc:format>image/svg+xml</dc:format>
    <dc:creator>
     <cc:Agent>
      <dc:title>Matplotlib v3.10.0, https://matplotlib.org/</dc:title>
     </cc:Agent>
    </dc:creator>
   </cc:Work>
  </rdf:RDF>
 </metadata>
 <defs>
  <style type="text/css">*{stroke-linejoin: round; stroke-linecap: butt}</style>
 </defs>
 <g id="figure_1">
  <g id="patch_1">
   <path d="M 0 432 
L 1065.6 432 
L 1065.6 0 
L 0 0 
z
" style="fill: #ffffff"/>
  </g>
  <g id="axes_1">
   <g id="patch_2">
    <path d="M 44.05 362.669593 
L 1054.8 362.669593 
L 1054.8 27.05 
L 44.05 27.05 
z
" style="fill: #ffffff"/>
   </g>
   <g id="matplotlib.axis_1">
    <g id="xtick_1">
     <g id="line2d_1">
      <defs>
       <path id="m38e5f5cca8" d="M 0 0 
L 0 3.5 
" style="stroke: #000000; stroke-width: 0.8"/>
      </defs>
      <g>
       <use xlink:href="#m38e5f5cca8" x="99.98083" y="362.669593" style="stroke: #000000; stroke-width: 0.8"/>
      </g>
     </g>
     <g id="text_1">
      <!-- POREČ -->
      <g transform="translate(74.361467 399.191301) rotate(-45) scale(0.1 -0.1)">
       <defs>
        <path id="DejaVuSans-50" d="M 1259 4147 
L 1259 2394 
L 2053 2394 
Q 2494 2394 2734 2622 
Q 2975 2850 2975 3272 
Q 2975 3691 2734 3919 
Q 2494 4147 2053 4147 
L 1259 4147 
z
M 628 4666 
L 2053 4666 
Q 2838 4666 3239 4311 
Q 3641 3956 3641 3272 
Q 3641 2581 3239 2228 
Q 2838 1875 2053 1875 
L 1259 1875 
L 1259 0 
L 628 0 
L 628 4666 
z
" transform="scale(0.015625)"/>
        <path id="DejaVuSans-4f" d="M 2522 4238 
Q 1834 4238 1429 3725 
Q 1025 3213 1025 2328 
Q 1025 1447 1429 934 
Q 1834 422 2522 422 
Q 3209 422 3611 934 
Q 4013 1447 4013 2328 
Q 4013 3213 3611 3725 
Q 3209 4238 2522 4238 
z
M 2522 4750 
Q 3503 4750 4090 4092 
Q 4678 3434 4678 2328 
Q 4678 1225 4090 567 
Q 3503 -91 2522 -91 
Q 1538 -91 948 565 
Q 359 1222 359 2328 
Q 359 3434 948 4092 
Q 1538 4750 2522 4750 
z
" transform="scale(0.015625)"/>
        <path id="DejaVuSans-52" d="M 2841 2188 
Q 3044 2119 3236 1894 
Q 3428 1669 3622 1275 
L 4263 0 
L 3584 0 
L 2988 1197 
Q 2756 1666 2539 1819 
Q 2322 1972 1947 1972 
L 1259 1972 
L 1259 0 
L 628 0 
L 628 4666 
L 2053 4666 
Q 2853 4666 3247 4331 
Q 3641 3997 3641 3322 
Q 3641 2881 3436 2590 
Q 3231 2300 2841 2188 
z
M 1259 4147 
L 1259 2491 
L 2053 2491 
Q 2509 2491 2742 2702 
Q 2975 2913 2975 3322 
Q 2975 3731 2742 3939 
Q 2509 4147 2053 4147 
L 1259 4147 
z
" transform="scale(0.015625)"/>
        <path id="DejaVuSans-45" d="M 628 4666 
L 3578 4666 
L 3578 4134 
L 1259 4134 
L 1259 2753 
L 3481 2753 
L 3481 2222 
L 1259 2222 
L 1259 531 
L 3634 531 
L 3634 0 
L 628 0 
L 628 4666 
z
" transform="scale(0.015625)"/>
        <path id="DejaVuSans-10c" d="M 4122 4306 
L 4122 3641 
Q 3803 3938 3442 4084 
Q 3081 4231 2675 4231 
Q 1875 4231 1450 3742 
Q 1025 3253 1025 2328 
Q 1025 1406 1450 917 
Q 1875 428 2675 428 
Q 3081 428 3442 575 
Q 3803 722 4122 1019 
L 4122 359 
Q 3791 134 3420 21 
Q 3050 -91 2638 -91 
Q 1578 -91 968 557 
Q 359 1206 359 2328 
Q 359 3453 968 4101 
Q 1578 4750 2638 4750 
Q 3056 4750 3426 4639 
Q 3797 4528 4122 4306 
z
M 2247 5110 
L 1588 5941 
L 2022 5941 
L 2541 5385 
L 3059 5941 
L 3494 5941 
L 2834 5110 
L 2247 5110 
z
" transform="scale(0.015625)"/>
       </defs>
       <use xlink:href="#DejaVuSans-50"/>
       <use xlink:href="#DejaVuSans-4f" transform="translate(60.302734 0)"/>
       <use xlink:href="#DejaVuSans-52" transform="translate(139.013672 0)"/>
       <use xlink:href="#DejaVuSans-45" transform="translate(208.496094 0)"/>
       <use xlink:href="#DejaVuSans-10c" transform="translate(271.679688 0)"/>
      </g>
     </g>
    </g>
    <g id="xtick_2">
     <g id="line2d_2">
      <g>
       <use xlink:href="#m38e5f5cca8" x="124.949951" y="362.669593" style="stroke: #000000; stroke-width: 0.8"/>
      </g>
     </g>
     <g id="text_2">
      <!-- ŠIJANA -->
      <g transform="translate(99.978033 399.679647) rotate(-45) scale(0.1 -0.1)">
       <defs>
        <path id="DejaVuSans-160" d="M 3425 4513 
L 3425 3897 
Q 3066 4069 2747 4153 
Q 2428 4238 2131 4238 
Q 1616 4238 1336 4038 
Q 1056 3838 1056 3469 
Q 1056 3159 1242 3001 
Q 1428 2844 1947 2747 
L 2328 2669 
Q 3034 2534 3370 2195 
Q 3706 1856 3706 1288 
Q 3706 609 3251 259 
Q 2797 -91 1919 -91 
Q 1588 -91 1214 -16 
Q 841 59 441 206 
L 441 856 
Q 825 641 1194 531 
Q 1563 422 1919 422 
Q 2459 422 2753 634 
Q 3047 847 3047 1241 
Q 3047 1584 2836 1778 
Q 2625 1972 2144 2069 
L 1759 2144 
Q 1053 2284 737 2584 
Q 422 2884 422 3419 
Q 422 4038 858 4394 
Q 1294 4750 2059 4750 
Q 2388 4750 2728 4690 
Q 3069 4631 3425 4513 
z
M 1741 5110 
L 1081 5941 
L 1516 5941 
L 2034 5385 
L 2553 5941 
L 2988 5941 
L 2328 5110 
L 1741 5110 
z
" transform="scale(0.015625)"/>
        <path id="DejaVuSans-49" d="M 628 4666 
L 1259 4666 
L 1259 0 
L 628 0 
L 628 4666 
z
" transform="scale(0.015625)"/>
        <path id="DejaVuSans-4a" d="M 628 4666 
L 1259 4666 
L 1259 325 
Q 1259 -519 939 -900 
Q 619 -1281 -91 -1281 
L -331 -1281 
L -331 -750 
L -134 -750 
Q 284 -750 456 -515 
Q 628 -281 628 325 
L 628 4666 
z
" transform="scale(0.015625)"/>
        <path id="DejaVuSans-41" d="M 2188 4044 
L 1331 1722 
L 3047 1722 
L 2188 4044 
z
M 1831 4666 
L 2547 4666 
L 4325 0 
L 3669 0 
L 3244 1197 
L 1141 1197 
L 716 0 
L 50 0 
L 1831 4666 
z
" transform="scale(0.015625)"/>
        <path id="DejaVuSans-4e" d="M 628 4666 
L 1478 4666 
L 3547 763 
L 3547 4666 
L 4159 4666 
L 4159 0 
L 3309 0 
L 1241 3903 
L 1241 0 
L 628 0 
L 628 4666 
z
" transform="scale(0.015625)"/>
       </defs>
       <use xlink:href="#DejaVuSans-160"/>
       <use xlink:href="#DejaVuSans-49" transform="translate(63.476562 0)"/>
       <use xlink:href="#DejaVuSans-4a" transform="translate(92.96875 0)"/>
       <use xlink:href="#DejaVuSans-41" transform="translate(120.710938 0)"/>
       <use xlink:href="#DejaVuSans-4e" transform="translate(189.119141 0)"/>
       <use xlink:href="#DejaVuSans-41" transform="translate(263.923828 0)"/>
      </g>
     </g>
    </g>
    <g id="xtick_3">
     <g id="line2d_3">
      <g>
       <use xlink:href="#m38e5f5cca8" x="149.919071" y="362.669593" style="stroke: #000000; stroke-width: 0.8"/>
      </g>
     </g>
     <g id="text_3">
      <!-- ROVINJ -->
      <g transform="translate(123.793685 399.697325) rotate(-45) scale(0.1 -0.1)">
       <defs>
        <path id="DejaVuSans-56" d="M 1831 0 
L 50 4666 
L 709 4666 
L 2188 738 
L 3669 4666 
L 4325 4666 
L 2547 0 
L 1831 0 
z
" transform="scale(0.015625)"/>
       </defs>
       <use xlink:href="#DejaVuSans-52"/>
       <use xlink:href="#DejaVuSans-4f" transform="translate(69.482422 0)"/>
       <use xlink:href="#DejaVuSans-56" transform="translate(146.443359 0)"/>
       <use xlink:href="#DejaVuSans-49" transform="translate(214.851562 0)"/>
       <use xlink:href="#DejaVuSans-4e" transform="translate(244.34375 0)"/>
       <use xlink:href="#DejaVuSans-4a" transform="translate(319.148438 0)"/>
      </g>
     </g>
    </g>
    <g id="xtick_4">
     <g id="line2d_4">
      <g>
       <use xlink:href="#m38e5f5cca8" x="174.888192" y="362.669593" style="stroke: #000000; stroke-width: 0.8"/>
      </g>
     </g>
     <g id="text_4">
      <!-- PAZIN -->
      <g transform="translate(152.548037 395.912094) rotate(-45) scale(0.1 -0.1)">
       <defs>
        <path id="DejaVuSans-5a" d="M 359 4666 
L 4025 4666 
L 4025 4184 
L 1075 531 
L 4097 531 
L 4097 0 
L 288 0 
L 288 481 
L 3238 4134 
L 359 4134 
L 359 4666 
z
" transform="scale(0.015625)"/>
       </defs>
       <use xlink:href="#DejaVuSans-50"/>
       <use xlink:href="#DejaVuSans-41" transform="translate(53.927734 0)"/>
       <use xlink:href="#DejaVuSans-5a" transform="translate(122.335938 0)"/>
       <use xlink:href="#DejaVuSans-49" transform="translate(190.841797 0)"/>
       <use xlink:href="#DejaVuSans-4e" transform="translate(220.333984 0)"/>
      </g>
     </g>
    </g>
    <g id="xtick_5">
     <g id="line2d_5">
      <g>
       <use xlink:href="#m38e5f5cca8" x="199.857312" y="362.669593" style="stroke: #000000; stroke-width: 0.8"/>
      </g>
     </g>
     <g id="text_5">
      <!-- BUJE -->
      <g transform="translate(181.806202 391.623049) rotate(-45) scale(0.1 -0.1)">
       <defs>
        <path id="DejaVuSans-42" d="M 1259 2228 
L 1259 519 
L 2272 519 
Q 2781 519 3026 730 
Q 3272 941 3272 1375 
Q 3272 1813 3026 2020 
Q 2781 2228 2272 2228 
L 1259 2228 
z
M 1259 4147 
L 1259 2741 
L 2194 2741 
Q 2656 2741 2882 2914 
Q 3109 3088 3109 3444 
Q 3109 3797 2882 3972 
Q 2656 4147 2194 4147 
L 1259 4147 
z
M 628 4666 
L 2241 4666 
Q 2963 4666 3353 4366 
Q 3744 4066 3744 3513 
Q 3744 3084 3544 2831 
Q 3344 2578 2956 2516 
Q 3422 2416 3680 2098 
Q 3938 1781 3938 1306 
Q 3938 681 3513 340 
Q 3088 0 2303 0 
L 628 0 
L 628 4666 
z
" transform="scale(0.015625)"/>
        <path id="DejaVuSans-55" d="M 556 4666 
L 1191 4666 
L 1191 1831 
Q 1191 1081 1462 751 
Q 1734 422 2344 422 
Q 2950 422 3222 751 
Q 3494 1081 3494 1831 
L 3494 4666 
L 4128 4666 
L 4128 1753 
Q 4128 841 3676 375 
Q 3225 -91 2344 -91 
Q 1459 -91 1007 375 
Q 556 841 556 1753 
L 556 4666 
z
" transform="scale(0.015625)"/>
       </defs>
       <use xlink:href="#DejaVuSans-42"/>
       <use xlink:href="#DejaVuSans-55" transform="translate(68.603516 0)"/>
       <use xlink:href="#DejaVuSans-4a" transform="translate(141.796875 0)"/>
       <use xlink:href="#DejaVuSans-45" transform="translate(171.289062 0)"/>
      </g>
     </g>
    </g>
    <g id="xtick_6">
     <g id="line2d_6">
      <g>
       <use xlink:href="#m38e5f5cca8" x="224.826433" y="362.669593" style="stroke: #000000; stroke-width: 0.8"/>
      </g>
     </g>
     <g id="text_6">
      <!-- VINČENT -->
      <g transform="translate(192.128268 406.270103) rotate(-45) scale(0.1 -0.1)">
       <defs>
        <path id="DejaVuSans-54" d="M -19 4666 
L 3928 4666 
L 3928 4134 
L 2272 4134 
L 2272 0 
L 1638 0 
L 1638 4134 
L -19 4134 
L -19 4666 
z
" transform="scale(0.015625)"/>
       </defs>
       <use xlink:href="#DejaVuSans-56"/>
       <use xlink:href="#DejaVuSans-49" transform="translate(68.408203 0)"/>
       <use xlink:href="#DejaVuSans-4e" transform="translate(97.900391 0)"/>
       <use xlink:href="#DejaVuSans-10c" transform="translate(172.705078 0)"/>
       <use xlink:href="#DejaVuSans-45" transform="translate(242.529297 0)"/>
       <use xlink:href="#DejaVuSans-4e" transform="translate(305.712891 0)"/>
       <use xlink:href="#DejaVuSans-54" transform="translate(380.517578 0)"/>
      </g>
     </g>
    </g>
    <g id="xtick_7">
     <g id="line2d_7">
      <g>
       <use xlink:href="#m38e5f5cca8" x="249.795553" y="362.669593" style="stroke: #000000; stroke-width: 0.8"/>
      </g>
     </g>
     <g id="text_7">
      <!-- RAŠA -->
      <g transform="translate(229.398837 393.968655) rotate(-45) scale(0.1 -0.1)">
       <use xlink:href="#DejaVuSans-52"/>
       <use xlink:href="#DejaVuSans-41" transform="translate(65.482422 0)"/>
       <use xlink:href="#DejaVuSans-160" transform="translate(133.890625 0)"/>
       <use xlink:href="#DejaVuSans-41" transform="translate(199.242188 0)"/>
      </g>
     </g>
    </g>
    <g id="xtick_8">
     <g id="line2d_8">
      <g>
       <use xlink:href="#m38e5f5cca8" x="274.764674" y="362.669593" style="stroke: #000000; stroke-width: 0.8"/>
      </g>
     </g>
     <g id="text_8">
      <!-- DUBROVA -->
      <g transform="translate(238.243714 410.092899) rotate(-45) scale(0.1 -0.1)">
       <defs>
        <path id="DejaVuSans-44" d="M 1259 4147 
L 1259 519 
L 2022 519 
Q 2988 519 3436 956 
Q 3884 1394 3884 2338 
Q 3884 3275 3436 3711 
Q 2988 4147 2022 4147 
L 1259 4147 
z
M 628 4666 
L 1925 4666 
Q 3281 4666 3915 4102 
Q 4550 3538 4550 2338 
Q 4550 1131 3912 565 
Q 3275 0 1925 0 
L 628 0 
L 628 4666 
z
" transform="scale(0.015625)"/>
       </defs>
       <use xlink:href="#DejaVuSans-44"/>
       <use xlink:href="#DejaVuSans-55" transform="translate(77.001953 0)"/>
       <use xlink:href="#DejaVuSans-42" transform="translate(150.195312 0)"/>
       <use xlink:href="#DejaVuSans-52" transform="translate(218.798828 0)"/>
       <use xlink:href="#DejaVuSans-4f" transform="translate(288.28125 0)"/>
       <use xlink:href="#DejaVuSans-56" transform="translate(365.242188 0)"/>
       <use xlink:href="#DejaVuSans-41" transform="translate(427.275391 0)"/>
      </g>
     </g>
    </g>
    <g id="xtick_9">
     <g id="line2d_9">
      <g>
       <use xlink:href="#m38e5f5cca8" x="299.733794" y="362.669593" style="stroke: #000000; stroke-width: 0.8"/>
      </g>
     </g>
     <g id="text_9">
      <!-- DOLINKA -->
      <g transform="translate(266.585954 406.719779) rotate(-45) scale(0.1 -0.1)">
       <defs>
        <path id="DejaVuSans-4c" d="M 628 4666 
L 1259 4666 
L 1259 531 
L 3531 531 
L 3531 0 
L 628 0 
L 628 4666 
z
" transform="scale(0.015625)"/>
        <path id="DejaVuSans-4b" d="M 628 4666 
L 1259 4666 
L 1259 2694 
L 3353 4666 
L 4166 4666 
L 1850 2491 
L 4331 0 
L 3500 0 
L 1259 2247 
L 1259 0 
L 628 0 
L 628 4666 
z
" transform="scale(0.015625)"/>
       </defs>
       <use xlink:href="#DejaVuSans-44"/>
       <use xlink:href="#DejaVuSans-4f" transform="translate(77.001953 0)"/>
       <use xlink:href="#DejaVuSans-4c" transform="translate(155.712891 0)"/>
       <use xlink:href="#DejaVuSans-49" transform="translate(211.425781 0)"/>
       <use xlink:href="#DejaVuSans-4e" transform="translate(240.917969 0)"/>
       <use xlink:href="#DejaVuSans-4b" transform="translate(315.722656 0)"/>
       <use xlink:href="#DejaVuSans-41" transform="translate(379.548828 0)"/>
      </g>
     </g>
    </g>
    <g id="xtick_10">
     <g id="line2d_10">
      <g>
       <use xlink:href="#m38e5f5cca8" x="324.702915" y="362.669593" style="stroke: #000000; stroke-width: 0.8"/>
      </g>
     </g>
     <g id="text_10">
      <!-- FUNTANA -->
      <g transform="translate(289.96519 408.309664) rotate(-45) scale(0.1 -0.1)">
       <defs>
        <path id="DejaVuSans-46" d="M 628 4666 
L 3309 4666 
L 3309 4134 
L 1259 4134 
L 1259 2759 
L 3109 2759 
L 3109 2228 
L 1259 2228 
L 1259 0 
L 628 0 
L 628 4666 
z
" transform="scale(0.015625)"/>
       </defs>
       <use xlink:href="#DejaVuSans-46"/>
       <use xlink:href="#DejaVuSans-55" transform="translate(57.519531 0)"/>
       <use xlink:href="#DejaVuSans-4e" transform="translate(130.712891 0)"/>
       <use xlink:href="#DejaVuSans-54" transform="translate(205.517578 0)"/>
       <use xlink:href="#DejaVuSans-41" transform="translate(258.851562 0)"/>
       <use xlink:href="#DejaVuSans-4e" transform="translate(327.259766 0)"/>
       <use xlink:href="#DejaVuSans-41" transform="translate(402.064453 0)"/>
      </g>
     </g>
    </g>
    <g id="xtick_11">
     <g id="line2d_11">
      <g>
       <use xlink:href="#m38e5f5cca8" x="349.672036" y="362.669593" style="stroke: #000000; stroke-width: 0.8"/>
      </g>
     </g>
     <g id="text_11">
      <!-- BUZET -->
      <g transform="translate(324.668077 398.575898) rotate(-45) scale(0.1 -0.1)">
       <use xlink:href="#DejaVuSans-42"/>
       <use xlink:href="#DejaVuSans-55" transform="translate(68.603516 0)"/>
       <use xlink:href="#DejaVuSans-5a" transform="translate(140.046875 0)"/>
       <use xlink:href="#DejaVuSans-45" transform="translate(208.552734 0)"/>
       <use xlink:href="#DejaVuSans-54" transform="translate(271.736328 0)"/>
      </g>
     </g>
    </g>
    <g id="xtick_12">
     <g id="line2d_12">
      <g>
       <use xlink:href="#m38e5f5cca8" x="374.641156" y="362.669593" style="stroke: #000000; stroke-width: 0.8"/>
      </g>
     </g>
     <g id="text_12">
      <!-- KATORO -->
      <g transform="translate(344.003545 404.20955) rotate(-45) scale(0.1 -0.1)">
       <use xlink:href="#DejaVuSans-4b"/>
       <use xlink:href="#DejaVuSans-41" transform="translate(63.826172 0)"/>
       <use xlink:href="#DejaVuSans-54" transform="translate(124.484375 0)"/>
       <use xlink:href="#DejaVuSans-4f" transform="translate(185.568359 0)"/>
       <use xlink:href="#DejaVuSans-52" transform="translate(264.279297 0)"/>
       <use xlink:href="#DejaVuSans-4f" transform="translate(333.761719 0)"/>
      </g>
     </g>
    </g>
    <g id="xtick_13">
     <g id="line2d_13">
      <g>
       <use xlink:href="#m38e5f5cca8" x="399.610277" y="362.669593" style="stroke: #000000; stroke-width: 0.8"/>
      </g>
     </g>
     <g id="text_13">
      <!-- TUPLJAK -->
      <g transform="translate(369.005811 404.176404) rotate(-45) scale(0.1 -0.1)">
       <use xlink:href="#DejaVuSans-54"/>
       <use xlink:href="#DejaVuSans-55" transform="translate(61.083984 0)"/>
       <use xlink:href="#DejaVuSans-50" transform="translate(134.277344 0)"/>
       <use xlink:href="#DejaVuSans-4c" transform="translate(194.580078 0)"/>
       <use xlink:href="#DejaVuSans-4a" transform="translate(250.292969 0)"/>
       <use xlink:href="#DejaVuSans-41" transform="translate(278.035156 0)"/>
       <use xlink:href="#DejaVuSans-4b" transform="translate(346.443359 0)"/>
      </g>
     </g>
    </g>
    <g id="xtick_14">
     <g id="line2d_14">
      <g>
       <use xlink:href="#m38e5f5cca8" x="424.579397" y="362.669593" style="stroke: #000000; stroke-width: 0.8"/>
      </g>
     </g>
     <g id="text_14">
      <!-- MEDULIN -->
      <g transform="translate(390.604021 407.547315) rotate(-45) scale(0.1 -0.1)">
       <defs>
        <path id="DejaVuSans-4d" d="M 628 4666 
L 1569 4666 
L 2759 1491 
L 3956 4666 
L 4897 4666 
L 4897 0 
L 4281 0 
L 4281 4097 
L 3078 897 
L 2444 897 
L 1241 4097 
L 1241 0 
L 628 0 
L 628 4666 
z
" transform="scale(0.015625)"/>
       </defs>
       <use xlink:href="#DejaVuSans-4d"/>
       <use xlink:href="#DejaVuSans-45" transform="translate(86.279297 0)"/>
       <use xlink:href="#DejaVuSans-44" transform="translate(149.462891 0)"/>
       <use xlink:href="#DejaVuSans-55" transform="translate(226.464844 0)"/>
       <use xlink:href="#DejaVuSans-4c" transform="translate(299.658203 0)"/>
       <use xlink:href="#DejaVuSans-49" transform="translate(355.371094 0)"/>
       <use xlink:href="#DejaVuSans-4e" transform="translate(384.863281 0)"/>
      </g>
     </g>
    </g>
    <g id="xtick_15">
     <g id="line2d_15">
      <g>
       <use xlink:href="#m38e5f5cca8" x="449.548518" y="362.669593" style="stroke: #000000; stroke-width: 0.8"/>
      </g>
     </g>
     <g id="text_15">
      <!-- KRASICA -->
      <g transform="translate(417.623751 405.496705) rotate(-45) scale(0.1 -0.1)">
       <defs>
        <path id="DejaVuSans-53" d="M 3425 4513 
L 3425 3897 
Q 3066 4069 2747 4153 
Q 2428 4238 2131 4238 
Q 1616 4238 1336 4038 
Q 1056 3838 1056 3469 
Q 1056 3159 1242 3001 
Q 1428 2844 1947 2747 
L 2328 2669 
Q 3034 2534 3370 2195 
Q 3706 1856 3706 1288 
Q 3706 609 3251 259 
Q 2797 -91 1919 -91 
Q 1588 -91 1214 -16 
Q 841 59 441 206 
L 441 856 
Q 825 641 1194 531 
Q 1563 422 1919 422 
Q 2459 422 2753 634 
Q 3047 847 3047 1241 
Q 3047 1584 2836 1778 
Q 2625 1972 2144 2069 
L 1759 2144 
Q 1053 2284 737 2584 
Q 422 2884 422 3419 
Q 422 4038 858 4394 
Q 1294 4750 2059 4750 
Q 2388 4750 2728 4690 
Q 3069 4631 3425 4513 
z
" transform="scale(0.015625)"/>
        <path id="DejaVuSans-43" d="M 4122 4306 
L 4122 3641 
Q 3803 3938 3442 4084 
Q 3081 4231 2675 4231 
Q 1875 4231 1450 3742 
Q 1025 3253 1025 2328 
Q 1025 1406 1450 917 
Q 1875 428 2675 428 
Q 3081 428 3442 575 
Q 3803 722 4122 1019 
L 4122 359 
Q 3791 134 3420 21 
Q 3050 -91 2638 -91 
Q 1578 -91 968 557 
Q 359 1206 359 2328 
Q 359 3453 968 4101 
Q 1578 4750 2638 4750 
Q 3056 4750 3426 4639 
Q 3797 4528 4122 4306 
z
" transform="scale(0.015625)"/>
       </defs>
       <use xlink:href="#DejaVuSans-4b"/>
       <use xlink:href="#DejaVuSans-52" transform="translate(65.576172 0)"/>
       <use xlink:href="#DejaVuSans-41" transform="translate(131.058594 0)"/>
       <use xlink:href="#DejaVuSans-53" transform="translate(199.466797 0)"/>
       <use xlink:href="#DejaVuSans-49" transform="translate(262.943359 0)"/>
       <use xlink:href="#DejaVuSans-43" transform="translate(292.435547 0)"/>
       <use xlink:href="#DejaVuSans-41" transform="translate(362.259766 0)"/>
      </g>
     </g>
    </g>
    <g id="xtick_16">
     <g id="line2d_16">
      <g>
       <use xlink:href="#m38e5f5cca8" x="474.517638" y="362.669593" style="stroke: #000000; stroke-width: 0.8"/>
      </g>
     </g>
     <g id="text_16">
      <!-- SUŠAK -->
      <g transform="translate(449.287185 398.802393) rotate(-45) scale(0.1 -0.1)">
       <use xlink:href="#DejaVuSans-53"/>
       <use xlink:href="#DejaVuSans-55" transform="translate(63.476562 0)"/>
       <use xlink:href="#DejaVuSans-160" transform="translate(136.669922 0)"/>
       <use xlink:href="#DejaVuSans-41" transform="translate(202.021484 0)"/>
       <use xlink:href="#DejaVuSans-4b" transform="translate(270.429688 0)"/>
      </g>
     </g>
    </g>
    <g id="xtick_17">
     <g id="line2d_17">
      <g>
       <use xlink:href="#m38e5f5cca8" x="499.486759" y="362.669593" style="stroke: #000000; stroke-width: 0.8"/>
      </g>
     </g>
     <g id="text_17">
      <!-- DELNICE -->
      <g transform="translate(467.381901 405.676796) rotate(-45) scale(0.1 -0.1)">
       <use xlink:href="#DejaVuSans-44"/>
       <use xlink:href="#DejaVuSans-45" transform="translate(77.001953 0)"/>
       <use xlink:href="#DejaVuSans-4c" transform="translate(140.185547 0)"/>
       <use xlink:href="#DejaVuSans-4e" transform="translate(195.898438 0)"/>
       <use xlink:href="#DejaVuSans-49" transform="translate(270.703125 0)"/>
       <use xlink:href="#DejaVuSans-43" transform="translate(300.195312 0)"/>
       <use xlink:href="#DejaVuSans-45" transform="translate(370.019531 0)"/>
      </g>
     </g>
    </g>
    <g id="xtick_18">
     <g id="line2d_18">
      <g>
       <use xlink:href="#m38e5f5cca8" x="524.455879" y="362.669593" style="stroke: #000000; stroke-width: 0.8"/>
      </g>
     </g>
     <g id="text_18">
      <!-- VRATA -->
      <g transform="translate(500.620857 397.406962) rotate(-45) scale(0.1 -0.1)">
       <use xlink:href="#DejaVuSans-56"/>
       <use xlink:href="#DejaVuSans-52" transform="translate(68.408203 0)"/>
       <use xlink:href="#DejaVuSans-41" transform="translate(133.890625 0)"/>
       <use xlink:href="#DejaVuSans-54" transform="translate(194.548828 0)"/>
       <use xlink:href="#DejaVuSans-41" transform="translate(247.882812 0)"/>
      </g>
     </g>
    </g>
    <g id="xtick_19">
     <g id="line2d_19">
      <g>
       <use xlink:href="#m38e5f5cca8" x="549.425" y="362.669593" style="stroke: #000000; stroke-width: 0.8"/>
      </g>
     </g>
     <g id="text_19">
      <!-- ZAMET -->
      <g transform="translate(523.385793 399.611146) rotate(-45) scale(0.1 -0.1)">
       <use xlink:href="#DejaVuSans-5a"/>
       <use xlink:href="#DejaVuSans-41" transform="translate(68.505859 0)"/>
       <use xlink:href="#DejaVuSans-4d" transform="translate(136.914062 0)"/>
       <use xlink:href="#DejaVuSans-45" transform="translate(223.193359 0)"/>
       <use xlink:href="#DejaVuSans-54" transform="translate(286.376953 0)"/>
      </g>
     </g>
    </g>
    <g id="xtick_20">
     <g id="line2d_20">
      <g>
       <use xlink:href="#m38e5f5cca8" x="574.394121" y="362.669593" style="stroke: #000000; stroke-width: 0.8"/>
      </g>
     </g>
     <g id="text_20">
      <!-- DUNAT -->
      <g transform="translate(548.405737 399.560323) rotate(-45) scale(0.1 -0.1)">
       <use xlink:href="#DejaVuSans-44"/>
       <use xlink:href="#DejaVuSans-55" transform="translate(77.001953 0)"/>
       <use xlink:href="#DejaVuSans-4e" transform="translate(150.195312 0)"/>
       <use xlink:href="#DejaVuSans-41" transform="translate(225 0)"/>
       <use xlink:href="#DejaVuSans-54" transform="translate(285.658203 0)"/>
      </g>
     </g>
    </g>
    <g id="xtick_21">
     <g id="line2d_21">
      <g>
       <use xlink:href="#m38e5f5cca8" x="599.363241" y="362.669593" style="stroke: #000000; stroke-width: 0.8"/>
      </g>
     </g>
     <g id="text_21">
      <!-- PEHLIN -->
      <g transform="translate(572.527434 400.407746) rotate(-45) scale(0.1 -0.1)">
       <defs>
        <path id="DejaVuSans-48" d="M 628 4666 
L 1259 4666 
L 1259 2753 
L 3553 2753 
L 3553 4666 
L 4184 4666 
L 4184 0 
L 3553 0 
L 3553 2222 
L 1259 2222 
L 1259 0 
L 628 0 
L 628 4666 
z
" transform="scale(0.015625)"/>
       </defs>
       <use xlink:href="#DejaVuSans-50"/>
       <use xlink:href="#DejaVuSans-45" transform="translate(60.302734 0)"/>
       <use xlink:href="#DejaVuSans-48" transform="translate(123.486328 0)"/>
       <use xlink:href="#DejaVuSans-4c" transform="translate(198.681641 0)"/>
       <use xlink:href="#DejaVuSans-49" transform="translate(254.394531 0)"/>
       <use xlink:href="#DejaVuSans-4e" transform="translate(283.886719 0)"/>
      </g>
     </g>
    </g>
    <g id="xtick_22">
     <g id="line2d_22">
      <g>
       <use xlink:href="#m38e5f5cca8" x="624.332362" y="362.669593" style="stroke: #000000; stroke-width: 0.8"/>
      </g>
     </g>
     <g id="text_22">
      <!-- KRK -->
      <g transform="translate(608.674366 389.229935) rotate(-45) scale(0.1 -0.1)">
       <use xlink:href="#DejaVuSans-4b"/>
       <use xlink:href="#DejaVuSans-52" transform="translate(65.576172 0)"/>
       <use xlink:href="#DejaVuSans-4b" transform="translate(135.058594 0)"/>
      </g>
     </g>
    </g>
    <g id="xtick_23">
     <g id="line2d_23">
      <g>
       <use xlink:href="#m38e5f5cca8" x="649.301482" y="362.669593" style="stroke: #000000; stroke-width: 0.8"/>
      </g>
     </g>
     <g id="text_23">
      <!-- CRIKVENICA -->
      <g transform="translate(604.801264 418.072157) rotate(-45) scale(0.1 -0.1)">
       <use xlink:href="#DejaVuSans-43"/>
       <use xlink:href="#DejaVuSans-52" transform="translate(69.824219 0)"/>
       <use xlink:href="#DejaVuSans-49" transform="translate(139.306641 0)"/>
       <use xlink:href="#DejaVuSans-4b" transform="translate(168.798828 0)"/>
       <use xlink:href="#DejaVuSans-56" transform="translate(234.375 0)"/>
       <use xlink:href="#DejaVuSans-45" transform="translate(302.783203 0)"/>
       <use xlink:href="#DejaVuSans-4e" transform="translate(365.966797 0)"/>
       <use xlink:href="#DejaVuSans-49" transform="translate(440.771484 0)"/>
       <use xlink:href="#DejaVuSans-43" transform="translate(470.263672 0)"/>
       <use xlink:href="#DejaVuSans-41" transform="translate(540.087891 0)"/>
      </g>
     </g>
    </g>
    <g id="xtick_24">
     <g id="line2d_24">
      <g>
       <use xlink:href="#m38e5f5cca8" x="674.270603" y="362.669593" style="stroke: #000000; stroke-width: 0.8"/>
      </g>
     </g>
     <g id="text_24">
      <!-- VRBOVSKO -->
      <g transform="translate(633.739021 414.103521) rotate(-45) scale(0.1 -0.1)">
       <use xlink:href="#DejaVuSans-56"/>
       <use xlink:href="#DejaVuSans-52" transform="translate(68.408203 0)"/>
       <use xlink:href="#DejaVuSans-42" transform="translate(137.890625 0)"/>
       <use xlink:href="#DejaVuSans-4f" transform="translate(204.744141 0)"/>
       <use xlink:href="#DejaVuSans-56" transform="translate(281.705078 0)"/>
       <use xlink:href="#DejaVuSans-53" transform="translate(350.113281 0)"/>
       <use xlink:href="#DejaVuSans-4b" transform="translate(413.589844 0)"/>
       <use xlink:href="#DejaVuSans-4f" transform="translate(473.666016 0)"/>
      </g>
     </g>
    </g>
    <g id="xtick_25">
     <g id="line2d_25">
      <g>
       <use xlink:href="#m38e5f5cca8" x="699.239723" y="362.669593" style="stroke: #000000; stroke-width: 0.8"/>
      </g>
     </g>
     <g id="text_25">
      <!-- HE RIJEKA -->
      <g transform="translate(662.832563 409.979099) rotate(-45) scale(0.1 -0.1)">
       <defs>
        <path id="DejaVuSans-20" transform="scale(0.015625)"/>
       </defs>
       <use xlink:href="#DejaVuSans-48"/>
       <use xlink:href="#DejaVuSans-45" transform="translate(75.195312 0)"/>
       <use xlink:href="#DejaVuSans-20" transform="translate(138.378906 0)"/>
       <use xlink:href="#DejaVuSans-52" transform="translate(170.166016 0)"/>
       <use xlink:href="#DejaVuSans-49" transform="translate(239.648438 0)"/>
       <use xlink:href="#DejaVuSans-4a" transform="translate(269.140625 0)"/>
       <use xlink:href="#DejaVuSans-45" transform="translate(298.632812 0)"/>
       <use xlink:href="#DejaVuSans-4b" transform="translate(361.816406 0)"/>
       <use xlink:href="#DejaVuSans-41" transform="translate(425.642578 0)"/>
      </g>
     </g>
    </g>
    <g id="xtick_26">
     <g id="line2d_26">
      <g>
       <use xlink:href="#m38e5f5cca8" x="724.208844" y="362.669593" style="stroke: #000000; stroke-width: 0.8"/>
      </g>
     </g>
     <g id="text_26">
      <!-- LOŠINJ -->
      <g transform="translate(699.537446 399.379127) rotate(-45) scale(0.1 -0.1)">
       <use xlink:href="#DejaVuSans-4c"/>
       <use xlink:href="#DejaVuSans-4f" transform="translate(52.087891 0)"/>
       <use xlink:href="#DejaVuSans-160" transform="translate(130.798828 0)"/>
       <use xlink:href="#DejaVuSans-49" transform="translate(194.275391 0)"/>
       <use xlink:href="#DejaVuSans-4e" transform="translate(223.767578 0)"/>
       <use xlink:href="#DejaVuSans-4a" transform="translate(298.572266 0)"/>
      </g>
     </g>
    </g>
    <g id="xtick_27">
     <g id="line2d_27">
      <g>
       <use xlink:href="#m38e5f5cca8" x="749.177964" y="362.669593" style="stroke: #000000; stroke-width: 0.8"/>
      </g>
     </g>
     <g id="text_27">
      <!-- RAB -->
      <g transform="translate(733.388491 389.361412) rotate(-45) scale(0.1 -0.1)">
       <use xlink:href="#DejaVuSans-52"/>
       <use xlink:href="#DejaVuSans-41" transform="translate(65.482422 0)"/>
       <use xlink:href="#DejaVuSans-42" transform="translate(133.890625 0)"/>
      </g>
     </g>
    </g>
    <g id="xtick_28">
     <g id="line2d_28">
      <g>
       <use xlink:href="#m38e5f5cca8" x="774.147085" y="362.669593" style="stroke: #000000; stroke-width: 0.8"/>
      </g>
     </g>
     <g id="text_28">
      <!-- LOVRAN -->
      <g transform="translate(743.955835 403.763189) rotate(-45) scale(0.1 -0.1)">
       <use xlink:href="#DejaVuSans-4c"/>
       <use xlink:href="#DejaVuSans-4f" transform="translate(52.087891 0)"/>
       <use xlink:href="#DejaVuSans-56" transform="translate(129.048828 0)"/>
       <use xlink:href="#DejaVuSans-52" transform="translate(197.457031 0)"/>
       <use xlink:href="#DejaVuSans-41" transform="translate(262.939453 0)"/>
       <use xlink:href="#DejaVuSans-4e" transform="translate(331.347656 0)"/>
      </g>
     </g>
    </g>
    <g id="xtick_29">
     <g id="line2d_29">
      <g>
       <use xlink:href="#m38e5f5cca8" x="799.116206" y="362.669593" style="stroke: #000000; stroke-width: 0.8"/>
      </g>
     </g>
     <g id="text_29">
      <!-- TURNIĆ -->
      <g transform="translate(770.924742 401.763402) rotate(-45) scale(0.1 -0.1)">
       <defs>
        <path id="DejaVuSans-106" d="M 4122 4306 
L 4122 3641 
Q 3803 3938 3442 4084 
Q 3081 4231 2675 4231 
Q 1875 4231 1450 3742 
Q 1025 3253 1025 2328 
Q 1025 1406 1450 917 
Q 1875 428 2675 428 
Q 3081 428 3442 575 
Q 3803 722 4122 1019 
L 4122 359 
Q 3791 134 3420 21 
Q 3050 -91 2638 -91 
Q 1578 -91 968 557 
Q 359 1206 359 2328 
Q 359 3453 968 4101 
Q 1578 4750 2638 4750 
Q 3056 4750 3426 4639 
Q 3797 4528 4122 4306 
z
M 2713 5935 
L 3291 5935 
L 2578 5110 
L 2100 5110 
L 2713 5935 
z
" transform="scale(0.015625)"/>
       </defs>
       <use xlink:href="#DejaVuSans-54"/>
       <use xlink:href="#DejaVuSans-55" transform="translate(61.083984 0)"/>
       <use xlink:href="#DejaVuSans-52" transform="translate(134.277344 0)"/>
       <use xlink:href="#DejaVuSans-4e" transform="translate(203.759766 0)"/>
       <use xlink:href="#DejaVuSans-49" transform="translate(278.564453 0)"/>
       <use xlink:href="#DejaVuSans-106" transform="translate(308.056641 0)"/>
      </g>
     </g>
    </g>
    <g id="xtick_30">
     <g id="line2d_30">
      <g>
       <use xlink:href="#m38e5f5cca8" x="824.085326" y="362.669593" style="stroke: #000000; stroke-width: 0.8"/>
      </g>
     </g>
     <g id="text_30">
      <!-- HE VINODOL -->
      <g transform="translate(777.851591 419.805674) rotate(-45) scale(0.1 -0.1)">
       <use xlink:href="#DejaVuSans-48"/>
       <use xlink:href="#DejaVuSans-45" transform="translate(75.195312 0)"/>
       <use xlink:href="#DejaVuSans-20" transform="translate(138.378906 0)"/>
       <use xlink:href="#DejaVuSans-56" transform="translate(170.166016 0)"/>
       <use xlink:href="#DejaVuSans-49" transform="translate(238.574219 0)"/>
       <use xlink:href="#DejaVuSans-4e" transform="translate(268.066406 0)"/>
       <use xlink:href="#DejaVuSans-4f" transform="translate(342.871094 0)"/>
       <use xlink:href="#DejaVuSans-44" transform="translate(421.582031 0)"/>
       <use xlink:href="#DejaVuSans-4f" transform="translate(498.583984 0)"/>
       <use xlink:href="#DejaVuSans-4c" transform="translate(577.294922 0)"/>
      </g>
     </g>
    </g>
    <g id="xtick_31">
     <g id="line2d_31">
      <g>
       <use xlink:href="#m38e5f5cca8" x="849.054447" y="362.669593" style="stroke: #000000; stroke-width: 0.8"/>
      </g>
     </g>
     <g id="text_31">
      <!-- LIČKI OSIK -->
      <g transform="translate(810.871785 411.7546) rotate(-45) scale(0.1 -0.1)">
       <use xlink:href="#DejaVuSans-4c"/>
       <use xlink:href="#DejaVuSans-49" transform="translate(55.712891 0)"/>
       <use xlink:href="#DejaVuSans-10c" transform="translate(85.205078 0)"/>
       <use xlink:href="#DejaVuSans-4b" transform="translate(155.029297 0)"/>
       <use xlink:href="#DejaVuSans-49" transform="translate(220.605469 0)"/>
       <use xlink:href="#DejaVuSans-20" transform="translate(250.097656 0)"/>
       <use xlink:href="#DejaVuSans-4f" transform="translate(281.884766 0)"/>
       <use xlink:href="#DejaVuSans-53" transform="translate(360.595703 0)"/>
       <use xlink:href="#DejaVuSans-49" transform="translate(424.072266 0)"/>
       <use xlink:href="#DejaVuSans-4b" transform="translate(453.564453 0)"/>
      </g>
     </g>
    </g>
    <g id="xtick_32">
     <g id="line2d_32">
      <g>
       <use xlink:href="#m38e5f5cca8" x="874.023567" y="362.669593" style="stroke: #000000; stroke-width: 0.8"/>
      </g>
     </g>
     <g id="text_32">
      <!-- BRINJE -->
      <g transform="translate(848.8583 398.737206) rotate(-45) scale(0.1 -0.1)">
       <use xlink:href="#DejaVuSans-42"/>
       <use xlink:href="#DejaVuSans-52" transform="translate(68.603516 0)"/>
       <use xlink:href="#DejaVuSans-49" transform="translate(138.085938 0)"/>
       <use xlink:href="#DejaVuSans-4e" transform="translate(167.578125 0)"/>
       <use xlink:href="#DejaVuSans-4a" transform="translate(242.382812 0)"/>
       <use xlink:href="#DejaVuSans-45" transform="translate(271.875 0)"/>
      </g>
     </g>
    </g>
    <g id="xtick_33">
     <g id="line2d_33">
      <g>
       <use xlink:href="#m38e5f5cca8" x="898.992688" y="362.669593" style="stroke: #000000; stroke-width: 0.8"/>
      </g>
     </g>
     <g id="text_33">
      <!-- OTOČAC -->
      <g transform="translate(867.482242 405.082385) rotate(-45) scale(0.1 -0.1)">
       <use xlink:href="#DejaVuSans-4f"/>
       <use xlink:href="#DejaVuSans-54" transform="translate(78.710938 0)"/>
       <use xlink:href="#DejaVuSans-4f" transform="translate(139.794922 0)"/>
       <use xlink:href="#DejaVuSans-10c" transform="translate(218.505859 0)"/>
       <use xlink:href="#DejaVuSans-41" transform="translate(288.330078 0)"/>
       <use xlink:href="#DejaVuSans-43" transform="translate(354.988281 0)"/>
      </g>
     </g>
    </g>
    <g id="xtick_34">
     <g id="line2d_34">
      <g>
       <use xlink:href="#m38e5f5cca8" x="923.961808" y="362.669593" style="stroke: #000000; stroke-width: 0.8"/>
      </g>
     </g>
     <g id="text_34">
      <!-- NOVALJA -->
      <g transform="translate(891.796184 405.737563) rotate(-45) scale(0.1 -0.1)">
       <use xlink:href="#DejaVuSans-4e"/>
       <use xlink:href="#DejaVuSans-4f" transform="translate(74.804688 0)"/>
       <use xlink:href="#DejaVuSans-56" transform="translate(151.765625 0)"/>
       <use xlink:href="#DejaVuSans-41" transform="translate(213.798828 0)"/>
       <use xlink:href="#DejaVuSans-4c" transform="translate(282.207031 0)"/>
       <use xlink:href="#DejaVuSans-4a" transform="translate(337.919922 0)"/>
       <use xlink:href="#DejaVuSans-41" transform="translate(365.662109 0)"/>
      </g>
     </g>
    </g>
    <g id="xtick_35">
     <g id="line2d_35">
      <g>
       <use xlink:href="#m38e5f5cca8" x="948.930929" y="362.669593" style="stroke: #000000; stroke-width: 0.8"/>
      </g>
     </g>
     <g id="text_35">
      <!-- GRAČAC -->
      <g transform="translate(918.049145 404.453723) rotate(-45) scale(0.1 -0.1)">
       <defs>
        <path id="DejaVuSans-47" d="M 3809 666 
L 3809 1919 
L 2778 1919 
L 2778 2438 
L 4434 2438 
L 4434 434 
Q 4069 175 3628 42 
Q 3188 -91 2688 -91 
Q 1594 -91 976 548 
Q 359 1188 359 2328 
Q 359 3472 976 4111 
Q 1594 4750 2688 4750 
Q 3144 4750 3555 4637 
Q 3966 4525 4313 4306 
L 4313 3634 
Q 3963 3931 3569 4081 
Q 3175 4231 2741 4231 
Q 1884 4231 1454 3753 
Q 1025 3275 1025 2328 
Q 1025 1384 1454 906 
Q 1884 428 2741 428 
Q 3075 428 3337 486 
Q 3600 544 3809 666 
z
" transform="scale(0.015625)"/>
       </defs>
       <use xlink:href="#DejaVuSans-47"/>
       <use xlink:href="#DejaVuSans-52" transform="translate(77.490234 0)"/>
       <use xlink:href="#DejaVuSans-41" transform="translate(142.972656 0)"/>
       <use xlink:href="#DejaVuSans-10c" transform="translate(209.630859 0)"/>
       <use xlink:href="#DejaVuSans-41" transform="translate(279.455078 0)"/>
       <use xlink:href="#DejaVuSans-43" transform="translate(346.113281 0)"/>
      </g>
     </g>
    </g>
    <g id="xtick_36">
     <g id="line2d_36">
      <g>
       <use xlink:href="#m38e5f5cca8" x="973.900049" y="362.669593" style="stroke: #000000; stroke-width: 0.8"/>
      </g>
     </g>
     <g id="text_36">
      <!-- HE SENJ -->
      <g transform="translate(944.063458 403.40853) rotate(-45) scale(0.1 -0.1)">
       <use xlink:href="#DejaVuSans-48"/>
       <use xlink:href="#DejaVuSans-45" transform="translate(75.195312 0)"/>
       <use xlink:href="#DejaVuSans-20" transform="translate(138.378906 0)"/>
       <use xlink:href="#DejaVuSans-53" transform="translate(170.166016 0)"/>
       <use xlink:href="#DejaVuSans-45" transform="translate(233.642578 0)"/>
       <use xlink:href="#DejaVuSans-4e" transform="translate(296.826172 0)"/>
       <use xlink:href="#DejaVuSans-4a" transform="translate(371.630859 0)"/>
      </g>
     </g>
    </g>
    <g id="xtick_37">
     <g id="line2d_37">
      <g>
       <use xlink:href="#m38e5f5cca8" x="998.86917" y="362.669593" style="stroke: #000000; stroke-width: 0.8"/>
      </g>
     </g>
     <g id="text_37">
      <!-- KARLOBAG -->
      <g transform="translate(958.841402 413.599707) rotate(-45) scale(0.1 -0.1)">
       <use xlink:href="#DejaVuSans-4b"/>
       <use xlink:href="#DejaVuSans-41" transform="translate(63.826172 0)"/>
       <use xlink:href="#DejaVuSans-52" transform="translate(132.234375 0)"/>
       <use xlink:href="#DejaVuSans-4c" transform="translate(201.716797 0)"/>
       <use xlink:href="#DejaVuSans-4f" transform="translate(253.804688 0)"/>
       <use xlink:href="#DejaVuSans-42" transform="translate(332.515625 0)"/>
       <use xlink:href="#DejaVuSans-41" transform="translate(401.119141 0)"/>
       <use xlink:href="#DejaVuSans-47" transform="translate(467.777344 0)"/>
      </g>
     </g>
    </g>
   </g>
   <g id="matplotlib.axis_2">
    <g id="ytick_1">
     <g id="line2d_38">
      <path d="M 44.05 362.669593 
L 1054.8 362.669593 
" clip-path="url(#pd97ebce9cf)" style="fill: none; stroke: #b0b0b0; stroke-width: 0.8; stroke-linecap: square"/>
     </g>
     <g id="line2d_39">
      <defs>
       <path id="mdd739ce39f" d="M 0 0 
L -3.5 0 
" style="stroke: #000000; stroke-width: 0.8"/>
      </defs>
      <g>
       <use xlink:href="#mdd739ce39f" x="44.05" y="362.669593" style="stroke: #000000; stroke-width: 0.8"/>
      </g>
     </g>
     <g id="text_38">
      <!-- 0 -->
      <g transform="translate(30.6875 366.468812) scale(0.1 -0.1)">
       <defs>
        <path id="DejaVuSans-30" d="M 2034 4250 
Q 1547 4250 1301 3770 
Q 1056 3291 1056 2328 
Q 1056 1369 1301 889 
Q 1547 409 2034 409 
Q 2525 409 2770 889 
Q 3016 1369 3016 2328 
Q 3016 3291 2770 3770 
Q 2525 4250 2034 4250 
z
M 2034 4750 
Q 2819 4750 3233 4129 
Q 3647 3509 3647 2328 
Q 3647 1150 3233 529 
Q 2819 -91 2034 -91 
Q 1250 -91 836 529 
Q 422 1150 422 2328 
Q 422 3509 836 4129 
Q 1250 4750 2034 4750 
z
" transform="scale(0.015625)"/>
       </defs>
       <use xlink:href="#DejaVuSans-30"/>
      </g>
     </g>
    </g>
    <g id="ytick_2">
     <g id="line2d_40">
      <path d="M 44.05 316.001772 
L 1054.8 316.001772 
" clip-path="url(#pd97ebce9cf)" style="fill: none; stroke: #b0b0b0; stroke-width: 0.8; stroke-linecap: square"/>
     </g>
     <g id="line2d_41">
      <g>
       <use xlink:href="#mdd739ce39f" x="44.05" y="316.001772" style="stroke: #000000; stroke-width: 0.8"/>
      </g>
     </g>
     <g id="text_39">
      <!-- 2 -->
      <g transform="translate(30.6875 319.800991) scale(0.1 -0.1)">
       <defs>
        <path id="DejaVuSans-32" d="M 1228 531 
L 3431 531 
L 3431 0 
L 469 0 
L 469 531 
Q 828 903 1448 1529 
Q 2069 2156 2228 2338 
Q 2531 2678 2651 2914 
Q 2772 3150 2772 3378 
Q 2772 3750 2511 3984 
Q 2250 4219 1831 4219 
Q 1534 4219 1204 4116 
Q 875 4013 500 3803 
L 500 4441 
Q 881 4594 1212 4672 
Q 1544 4750 1819 4750 
Q 2544 4750 2975 4387 
Q 3406 4025 3406 3419 
Q 3406 3131 3298 2873 
Q 3191 2616 2906 2266 
Q 2828 2175 2409 1742 
Q 1991 1309 1228 531 
z
" transform="scale(0.015625)"/>
       </defs>
       <use xlink:href="#DejaVuSans-32"/>
      </g>
     </g>
    </g>
    <g id="ytick_3">
     <g id="line2d_42">
      <path d="M 44.05 269.333951 
L 1054.8 269.333951 
" clip-path="url(#pd97ebce9cf)" style="fill: none; stroke: #b0b0b0; stroke-width: 0.8; stroke-linecap: square"/>
     </g>
     <g id="line2d_43">
      <g>
       <use xlink:href="#mdd739ce39f" x="44.05" y="269.333951" style="stroke: #000000; stroke-width: 0.8"/>
      </g>
     </g>
     <g id="text_40">
      <!-- 4 -->
      <g transform="translate(30.6875 273.13317) scale(0.1 -0.1)">
       <defs>
        <path id="DejaVuSans-34" d="M 2419 4116 
L 825 1625 
L 2419 1625 
L 2419 4116 
z
M 2253 4666 
L 3047 4666 
L 3047 1625 
L 3713 1625 
L 3713 1100 
L 3047 1100 
L 3047 0 
L 2419 0 
L 2419 1100 
L 313 1100 
L 313 1709 
L 2253 4666 
z
" transform="scale(0.015625)"/>
       </defs>
       <use xlink:href="#DejaVuSans-34"/>
      </g>
     </g>
    </g>
    <g id="ytick_4">
     <g id="line2d_44">
      <path d="M 44.05 222.66613 
L 1054.8 222.66613 
" clip-path="url(#pd97ebce9cf)" style="fill: none; stroke: #b0b0b0; stroke-width: 0.8; stroke-linecap: square"/>
     </g>
     <g id="line2d_45">
      <g>
       <use xlink:href="#mdd739ce39f" x="44.05" y="222.66613" style="stroke: #000000; stroke-width: 0.8"/>
      </g>
     </g>
     <g id="text_41">
      <!-- 6 -->
      <g transform="translate(30.6875 226.465348) scale(0.1 -0.1)">
       <defs>
        <path id="DejaVuSans-36" d="M 2113 2584 
Q 1688 2584 1439 2293 
Q 1191 2003 1191 1497 
Q 1191 994 1439 701 
Q 1688 409 2113 409 
Q 2538 409 2786 701 
Q 3034 994 3034 1497 
Q 3034 2003 2786 2293 
Q 2538 2584 2113 2584 
z
M 3366 4563 
L 3366 3988 
Q 3128 4100 2886 4159 
Q 2644 4219 2406 4219 
Q 1781 4219 1451 3797 
Q 1122 3375 1075 2522 
Q 1259 2794 1537 2939 
Q 1816 3084 2150 3084 
Q 2853 3084 3261 2657 
Q 3669 2231 3669 1497 
Q 3669 778 3244 343 
Q 2819 -91 2113 -91 
Q 1303 -91 875 529 
Q 447 1150 447 2328 
Q 447 3434 972 4092 
Q 1497 4750 2381 4750 
Q 2619 4750 2861 4703 
Q 3103 4656 3366 4563 
z
" transform="scale(0.015625)"/>
       </defs>
       <use xlink:href="#DejaVuSans-36"/>
      </g>
     </g>
    </g>
    <g id="ytick_5">
     <g id="line2d_46">
      <path d="M 44.05 175.998308 
L 1054.8 175.998308 
" clip-path="url(#pd97ebce9cf)" style="fill: none; stroke: #b0b0b0; stroke-width: 0.8; stroke-linecap: square"/>
     </g>
     <g id="line2d_47">
      <g>
       <use xlink:href="#mdd739ce39f" x="44.05" y="175.998308" style="stroke: #000000; stroke-width: 0.8"/>
      </g>
     </g>
     <g id="text_42">
      <!-- 8 -->
      <g transform="translate(30.6875 179.797527) scale(0.1 -0.1)">
       <defs>
        <path id="DejaVuSans-38" d="M 2034 2216 
Q 1584 2216 1326 1975 
Q 1069 1734 1069 1313 
Q 1069 891 1326 650 
Q 1584 409 2034 409 
Q 2484 409 2743 651 
Q 3003 894 3003 1313 
Q 3003 1734 2745 1975 
Q 2488 2216 2034 2216 
z
M 1403 2484 
Q 997 2584 770 2862 
Q 544 3141 544 3541 
Q 544 4100 942 4425 
Q 1341 4750 2034 4750 
Q 2731 4750 3128 4425 
Q 3525 4100 3525 3541 
Q 3525 3141 3298 2862 
Q 3072 2584 2669 2484 
Q 3125 2378 3379 2068 
Q 3634 1759 3634 1313 
Q 3634 634 3220 271 
Q 2806 -91 2034 -91 
Q 1263 -91 848 271 
Q 434 634 434 1313 
Q 434 1759 690 2068 
Q 947 2378 1403 2484 
z
M 1172 3481 
Q 1172 3119 1398 2916 
Q 1625 2713 2034 2713 
Q 2441 2713 2670 2916 
Q 2900 3119 2900 3481 
Q 2900 3844 2670 4047 
Q 2441 4250 2034 4250 
Q 1625 4250 1398 4047 
Q 1172 3844 1172 3481 
z
" transform="scale(0.015625)"/>
       </defs>
       <use xlink:href="#DejaVuSans-38"/>
      </g>
     </g>
    </g>
    <g id="ytick_6">
     <g id="line2d_48">
      <path d="M 44.05 129.330487 
L 1054.8 129.330487 
" clip-path="url(#pd97ebce9cf)" style="fill: none; stroke: #b0b0b0; stroke-width: 0.8; stroke-linecap: square"/>
     </g>
     <g id="line2d_49">
      <g>
       <use xlink:href="#mdd739ce39f" x="44.05" y="129.330487" style="stroke: #000000; stroke-width: 0.8"/>
      </g>
     </g>
     <g id="text_43">
      <!-- 10 -->
      <g transform="translate(24.325 133.129706) scale(0.1 -0.1)">
       <defs>
        <path id="DejaVuSans-31" d="M 794 531 
L 1825 531 
L 1825 4091 
L 703 3866 
L 703 4441 
L 1819 4666 
L 2450 4666 
L 2450 531 
L 3481 531 
L 3481 0 
L 794 0 
L 794 531 
z
" transform="scale(0.015625)"/>
       </defs>
       <use xlink:href="#DejaVuSans-31"/>
       <use xlink:href="#DejaVuSans-30" transform="translate(63.623047 0)"/>
      </g>
     </g>
    </g>
    <g id="ytick_7">
     <g id="line2d_50">
      <path d="M 44.05 82.662666 
L 1054.8 82.662666 
" clip-path="url(#pd97ebce9cf)" style="fill: none; stroke: #b0b0b0; stroke-width: 0.8; stroke-linecap: square"/>
     </g>
     <g id="line2d_51">
      <g>
       <use xlink:href="#mdd739ce39f" x="44.05" y="82.662666" style="stroke: #000000; stroke-width: 0.8"/>
      </g>
     </g>
     <g id="text_44">
      <!-- 12 -->
      <g transform="translate(24.325 86.461885) scale(0.1 -0.1)">
       <use xlink:href="#DejaVuSans-31"/>
       <use xlink:href="#DejaVuSans-32" transform="translate(63.623047 0)"/>
      </g>
     </g>
    </g>
    <g id="ytick_8">
     <g id="line2d_52">
      <path d="M 44.05 35.994845 
L 1054.8 35.994845 
" clip-path="url(#pd97ebce9cf)" style="fill: none; stroke: #b0b0b0; stroke-width: 0.8; stroke-linecap: square"/>
     </g>
     <g id="line2d_53">
      <g>
       <use xlink:href="#mdd739ce39f" x="44.05" y="35.994845" style="stroke: #000000; stroke-width: 0.8"/>
      </g>
     </g>
     <g id="text_45">
      <!-- 14 -->
      <g transform="translate(24.325 39.794063) scale(0.1 -0.1)">
       <use xlink:href="#DejaVuSans-31"/>
       <use xlink:href="#DejaVuSans-34" transform="translate(63.623047 0)"/>
      </g>
     </g>
    </g>
    <g id="text_46">
     <!-- Instalirana snaga [MW] -->
     <g transform="translate(18.245312 252.676203) rotate(-90) scale(0.1 -0.1)">
      <defs>
       <path id="DejaVuSans-6e" d="M 3513 2113 
L 3513 0 
L 2938 0 
L 2938 2094 
Q 2938 2591 2744 2837 
Q 2550 3084 2163 3084 
Q 1697 3084 1428 2787 
Q 1159 2491 1159 1978 
L 1159 0 
L 581 0 
L 581 3500 
L 1159 3500 
L 1159 2956 
Q 1366 3272 1645 3428 
Q 1925 3584 2291 3584 
Q 2894 3584 3203 3211 
Q 3513 2838 3513 2113 
z
" transform="scale(0.015625)"/>
       <path id="DejaVuSans-73" d="M 2834 3397 
L 2834 2853 
Q 2591 2978 2328 3040 
Q 2066 3103 1784 3103 
Q 1356 3103 1142 2972 
Q 928 2841 928 2578 
Q 928 2378 1081 2264 
Q 1234 2150 1697 2047 
L 1894 2003 
Q 2506 1872 2764 1633 
Q 3022 1394 3022 966 
Q 3022 478 2636 193 
Q 2250 -91 1575 -91 
Q 1294 -91 989 -36 
Q 684 19 347 128 
L 347 722 
Q 666 556 975 473 
Q 1284 391 1588 391 
Q 1994 391 2212 530 
Q 2431 669 2431 922 
Q 2431 1156 2273 1281 
Q 2116 1406 1581 1522 
L 1381 1569 
Q 847 1681 609 1914 
Q 372 2147 372 2553 
Q 372 3047 722 3315 
Q 1072 3584 1716 3584 
Q 2034 3584 2315 3537 
Q 2597 3491 2834 3397 
z
" transform="scale(0.015625)"/>
       <path id="DejaVuSans-74" d="M 1172 4494 
L 1172 3500 
L 2356 3500 
L 2356 3053 
L 1172 3053 
L 1172 1153 
Q 1172 725 1289 603 
Q 1406 481 1766 481 
L 2356 481 
L 2356 0 
L 1766 0 
Q 1100 0 847 248 
Q 594 497 594 1153 
L 594 3053 
L 172 3053 
L 172 3500 
L 594 3500 
L 594 4494 
L 1172 4494 
z
" transform="scale(0.015625)"/>
       <path id="DejaVuSans-61" d="M 2194 1759 
Q 1497 1759 1228 1600 
Q 959 1441 959 1056 
Q 959 750 1161 570 
Q 1363 391 1709 391 
Q 2188 391 2477 730 
Q 2766 1069 2766 1631 
L 2766 1759 
L 2194 1759 
z
M 3341 1997 
L 3341 0 
L 2766 0 
L 2766 531 
Q 2569 213 2275 61 
Q 1981 -91 1556 -91 
Q 1019 -91 701 211 
Q 384 513 384 1019 
Q 384 1609 779 1909 
Q 1175 2209 1959 2209 
L 2766 2209 
L 2766 2266 
Q 2766 2663 2505 2880 
Q 2244 3097 1772 3097 
Q 1472 3097 1187 3025 
Q 903 2953 641 2809 
L 641 3341 
Q 956 3463 1253 3523 
Q 1550 3584 1831 3584 
Q 2591 3584 2966 3190 
Q 3341 2797 3341 1997 
z
" transform="scale(0.015625)"/>
       <path id="DejaVuSans-6c" d="M 603 4863 
L 1178 4863 
L 1178 0 
L 603 0 
L 603 4863 
z
" transform="scale(0.015625)"/>
       <path id="DejaVuSans-69" d="M 603 3500 
L 1178 3500 
L 1178 0 
L 603 0 
L 603 3500 
z
M 603 4863 
L 1178 4863 
L 1178 4134 
L 603 4134 
L 603 4863 
z
" transform="scale(0.015625)"/>
       <path id="DejaVuSans-72" d="M 2631 2963 
Q 2534 3019 2420 3045 
Q 2306 3072 2169 3072 
Q 1681 3072 1420 2755 
Q 1159 2438 1159 1844 
L 1159 0 
L 581 0 
L 581 3500 
L 1159 3500 
L 1159 2956 
Q 1341 3275 1631 3429 
Q 1922 3584 2338 3584 
Q 2397 3584 2469 3576 
Q 2541 3569 2628 3553 
L 2631 2963 
z
" transform="scale(0.015625)"/>
       <path id="DejaVuSans-67" d="M 2906 1791 
Q 2906 2416 2648 2759 
Q 2391 3103 1925 3103 
Q 1463 3103 1205 2759 
Q 947 2416 947 1791 
Q 947 1169 1205 825 
Q 1463 481 1925 481 
Q 2391 481 2648 825 
Q 2906 1169 2906 1791 
z
M 3481 434 
Q 3481 -459 3084 -895 
Q 2688 -1331 1869 -1331 
Q 1566 -1331 1297 -1286 
Q 1028 -1241 775 -1147 
L 775 -588 
Q 1028 -725 1275 -790 
Q 1522 -856 1778 -856 
Q 2344 -856 2625 -561 
Q 2906 -266 2906 331 
L 2906 616 
Q 2728 306 2450 153 
Q 2172 0 1784 0 
Q 1141 0 747 490 
Q 353 981 353 1791 
Q 353 2603 747 3093 
Q 1141 3584 1784 3584 
Q 2172 3584 2450 3431 
Q 2728 3278 2906 2969 
L 2906 3500 
L 3481 3500 
L 3481 434 
z
" transform="scale(0.015625)"/>
       <path id="DejaVuSans-5b" d="M 550 4863 
L 1875 4863 
L 1875 4416 
L 1125 4416 
L 1125 -397 
L 1875 -397 
L 1875 -844 
L 550 -844 
L 550 4863 
z
" transform="scale(0.015625)"/>
       <path id="DejaVuSans-57" d="M 213 4666 
L 850 4666 
L 1831 722 
L 2809 4666 
L 3519 4666 
L 4500 722 
L 5478 4666 
L 6119 4666 
L 4947 0 
L 4153 0 
L 3169 4050 
L 2175 0 
L 1381 0 
L 213 4666 
z
" transform="scale(0.015625)"/>
       <path id="DejaVuSans-5d" d="M 1947 4863 
L 1947 -844 
L 622 -844 
L 622 -397 
L 1369 -397 
L 1369 4416 
L 622 4416 
L 622 4863 
L 1947 4863 
z
" transform="scale(0.015625)"/>
      </defs>
      <use xlink:href="#DejaVuSans-49"/>
      <use xlink:href="#DejaVuSans-6e" transform="translate(29.492188 0)"/>
      <use xlink:href="#DejaVuSans-73" transform="translate(92.871094 0)"/>
      <use xlink:href="#DejaVuSans-74" transform="translate(144.970703 0)"/>
      <use xlink:href="#DejaVuSans-61" transform="translate(184.179688 0)"/>
      <use xlink:href="#DejaVuSans-6c" transform="translate(245.458984 0)"/>
      <use xlink:href="#DejaVuSans-69" transform="translate(273.242188 0)"/>
      <use xlink:href="#DejaVuSans-72" transform="translate(301.025391 0)"/>
      <use xlink:href="#DejaVuSans-61" transform="translate(342.138672 0)"/>
      <use xlink:href="#DejaVuSans-6e" transform="translate(403.417969 0)"/>
      <use xlink:href="#DejaVuSans-61" transform="translate(466.796875 0)"/>
      <use xlink:href="#DejaVuSans-20" transform="translate(528.076172 0)"/>
      <use xlink:href="#DejaVuSans-73" transform="translate(559.863281 0)"/>
      <use xlink:href="#DejaVuSans-6e" transform="translate(611.962891 0)"/>
      <use xlink:href="#DejaVuSans-61" transform="translate(675.341797 0)"/>
      <use xlink:href="#DejaVuSans-67" transform="translate(736.621094 0)"/>
      <use xlink:href="#DejaVuSans-61" transform="translate(800.097656 0)"/>
      <use xlink:href="#DejaVuSans-20" transform="translate(861.376953 0)"/>
      <use xlink:href="#DejaVuSans-5b" transform="translate(893.164062 0)"/>
      <use xlink:href="#DejaVuSans-4d" transform="translate(932.177734 0)"/>
      <use xlink:href="#DejaVuSans-57" transform="translate(1018.457031 0)"/>
      <use xlink:href="#DejaVuSans-5d" transform="translate(1117.333984 0)"/>
     </g>
    </g>
   </g>
   <g id="patch_3">
    <path d="M 89.993182 362.669593 
L 109.968478 362.669593 
L 109.968478 168.220416 
L 89.993182 168.220416 
z
" clip-path="url(#pd97ebce9cf)" style="fill: #1f77b4"/>
   </g>
   <g id="patch_4">
    <path d="M 114.962302 362.669593 
L 134.937599 362.669593 
L 134.937599 259.791781 
L 114.962302 259.791781 
z
" clip-path="url(#pd97ebce9cf)" style="fill: #1f77b4"/>
   </g>
   <g id="patch_5">
    <path d="M 139.931423 362.669593 
L 159.906719 362.669593 
L 159.906719 276.192954 
L 139.931423 276.192954 
z
" clip-path="url(#pd97ebce9cf)" style="fill: #1f77b4"/>
   </g>
   <g id="patch_6">
    <path d="M 164.900543 362.669593 
L 184.87584 362.669593 
L 184.87584 278.592613 
L 164.900543 278.592613 
z
" clip-path="url(#pd97ebce9cf)" style="fill: #1f77b4"/>
   </g>
   <g id="patch_7">
    <path d="M 189.869664 362.669593 
L 209.84496 362.669593 
L 209.84496 291.011387 
L 189.869664 291.011387 
z
" clip-path="url(#pd97ebce9cf)" style="fill: #1f77b4"/>
   </g>
   <g id="patch_8">
    <path d="M 214.838785 362.669593 
L 234.814081 362.669593 
L 234.814081 293.982961 
L 214.838785 293.982961 
z
" clip-path="url(#pd97ebce9cf)" style="fill: #1f77b4"/>
   </g>
   <g id="patch_9">
    <path d="M 239.807905 362.669593 
L 259.783202 362.669593 
L 259.783202 295.491498 
L 239.807905 295.491498 
z
" clip-path="url(#pd97ebce9cf)" style="fill: #1f77b4"/>
   </g>
   <g id="patch_10">
    <path d="M 264.777026 362.669593 
L 284.752322 362.669593 
L 284.752322 296.773696 
L 264.777026 296.773696 
z
" clip-path="url(#pd97ebce9cf)" style="fill: #1f77b4"/>
   </g>
   <g id="patch_11">
    <path d="M 289.746146 362.669593 
L 309.721443 362.669593 
L 309.721443 298.585575 
L 289.746146 298.585575 
z
" clip-path="url(#pd97ebce9cf)" style="fill: #1f77b4"/>
   </g>
   <g id="patch_12">
    <path d="M 314.715267 362.669593 
L 334.690563 362.669593 
L 334.690563 308.106743 
L 314.715267 308.106743 
z
" clip-path="url(#pd97ebce9cf)" style="fill: #1f77b4"/>
   </g>
   <g id="patch_13">
    <path d="M 339.684387 362.669593 
L 359.659684 362.669593 
L 359.659684 318.837076 
L 339.684387 318.837076 
z
" clip-path="url(#pd97ebce9cf)" style="fill: #1f77b4"/>
   </g>
   <g id="patch_14">
    <path d="M 364.653508 362.669593 
L 384.628804 362.669593 
L 384.628804 319.321254 
L 364.653508 319.321254 
z
" clip-path="url(#pd97ebce9cf)" style="fill: #1f77b4"/>
   </g>
   <g id="patch_15">
    <path d="M 389.622628 362.669593 
L 409.597925 362.669593 
L 409.597925 328.821889 
L 389.622628 328.821889 
z
" clip-path="url(#pd97ebce9cf)" style="fill: #1f77b4"/>
   </g>
   <g id="patch_16">
    <path d="M 414.591749 362.669593 
L 434.567045 362.669593 
L 434.567045 338.620498 
L 414.591749 338.620498 
z
" clip-path="url(#pd97ebce9cf)" style="fill: #1f77b4"/>
   </g>
   <g id="patch_17">
    <path d="M 439.56087 362.669593 
L 459.536166 362.669593 
L 459.536166 43.031885 
L 439.56087 43.031885 
z
" clip-path="url(#pd97ebce9cf)" style="fill: #aec7e8"/>
   </g>
   <g id="patch_18">
    <path d="M 464.52999 362.669593 
L 484.505287 362.669593 
L 484.505287 184.342981 
L 464.52999 184.342981 
z
" clip-path="url(#pd97ebce9cf)" style="fill: #aec7e8"/>
   </g>
   <g id="patch_19">
    <path d="M 489.499111 362.669593 
L 509.474407 362.669593 
L 509.474407 208.115803 
L 489.499111 208.115803 
z
" clip-path="url(#pd97ebce9cf)" style="fill: #aec7e8"/>
   </g>
   <g id="patch_20">
    <path d="M 514.468231 362.669593 
L 534.443528 362.669593 
L 534.443528 217.490902 
L 514.468231 217.490902 
z
" clip-path="url(#pd97ebce9cf)" style="fill: #aec7e8"/>
   </g>
   <g id="patch_21">
    <path d="M 539.437352 362.669593 
L 559.412648 362.669593 
L 559.412648 262.626152 
L 539.437352 262.626152 
z
" clip-path="url(#pd97ebce9cf)" style="fill: #aec7e8"/>
   </g>
   <g id="patch_22">
    <path d="M 564.406472 362.669593 
L 584.381769 362.669593 
L 584.381769 271.827179 
L 564.406472 271.827179 
z
" clip-path="url(#pd97ebce9cf)" style="fill: #aec7e8"/>
   </g>
   <g id="patch_23">
    <path d="M 589.375593 362.669593 
L 609.350889 362.669593 
L 609.350889 283.528902 
L 589.375593 283.528902 
z
" clip-path="url(#pd97ebce9cf)" style="fill: #aec7e8"/>
   </g>
   <g id="patch_24">
    <path d="M 614.344713 362.669593 
L 634.32001 362.669593 
L 634.32001 286.356972 
L 614.344713 286.356972 
z
" clip-path="url(#pd97ebce9cf)" style="fill: #aec7e8"/>
   </g>
   <g id="patch_25">
    <path d="M 639.313834 362.669593 
L 659.28913 362.669593 
L 659.28913 302.749744 
L 639.313834 302.749744 
z
" clip-path="url(#pd97ebce9cf)" style="fill: #aec7e8"/>
   </g>
   <g id="patch_26">
    <path d="M 664.282955 362.669593 
L 684.258251 362.669593 
L 684.258251 316.355514 
L 664.282955 316.355514 
z
" clip-path="url(#pd97ebce9cf)" style="fill: #aec7e8"/>
   </g>
   <g id="patch_27">
    <path d="M 689.252075 362.669593 
L 709.227372 362.669593 
L 709.227372 317.890769 
L 689.252075 317.890769 
z
" clip-path="url(#pd97ebce9cf)" style="fill: #aec7e8"/>
   </g>
   <g id="patch_28">
    <path d="M 714.221196 362.669593 
L 734.196492 362.669593 
L 734.196492 319.202485 
L 714.221196 319.202485 
z
" clip-path="url(#pd97ebce9cf)" style="fill: #aec7e8"/>
   </g>
   <g id="patch_29">
    <path d="M 739.190316 362.669593 
L 759.165613 362.669593 
L 759.165613 331.114913 
L 739.190316 331.114913 
z
" clip-path="url(#pd97ebce9cf)" style="fill: #aec7e8"/>
   </g>
   <g id="patch_30">
    <path d="M 764.159437 362.669593 
L 784.134733 362.669593 
L 784.134733 335.486987 
L 764.159437 335.486987 
z
" clip-path="url(#pd97ebce9cf)" style="fill: #aec7e8"/>
   </g>
   <g id="patch_31">
    <path d="M 789.128557 362.669593 
L 809.103854 362.669593 
L 809.103854 344.698749 
L 789.128557 344.698749 
z
" clip-path="url(#pd97ebce9cf)" style="fill: #aec7e8"/>
   </g>
   <g id="patch_32">
    <path d="M 814.097678 362.669593 
L 834.072974 362.669593 
L 834.072974 352.384239 
L 814.097678 352.384239 
z
" clip-path="url(#pd97ebce9cf)" style="fill: #aec7e8"/>
   </g>
   <g id="patch_33">
    <path d="M 839.066798 362.669593 
L 859.042095 362.669593 
L 859.042095 159.535301 
L 839.066798 159.535301 
z
" clip-path="url(#pd97ebce9cf)" style="fill: #ff7f0e"/>
   </g>
   <g id="patch_34">
    <path d="M 864.035919 362.669593 
L 884.011215 362.669593 
L 884.011215 234.860431 
L 864.035919 234.860431 
z
" clip-path="url(#pd97ebce9cf)" style="fill: #ff7f0e"/>
   </g>
   <g id="patch_35">
    <path d="M 889.00504 362.669593 
L 908.980336 362.669593 
L 908.980336 323.18395 
L 889.00504 323.18395 
z
" clip-path="url(#pd97ebce9cf)" style="fill: #ff7f0e"/>
   </g>
   <g id="patch_36">
    <path d="M 913.97416 362.669593 
L 933.949457 362.669593 
L 933.949457 349.306263 
L 913.97416 349.306263 
z
" clip-path="url(#pd97ebce9cf)" style="fill: #ff7f0e"/>
   </g>
   <g id="patch_37">
    <path d="M 938.943281 362.669593 
L 958.918577 362.669593 
L 958.918577 355.367479 
L 938.943281 355.367479 
z
" clip-path="url(#pd97ebce9cf)" style="fill: #ff7f0e"/>
   </g>
   <g id="patch_38">
    <path d="M 963.912401 362.669593 
L 983.887698 362.669593 
L 983.887698 355.974628 
L 963.912401 355.974628 
z
" clip-path="url(#pd97ebce9cf)" style="fill: #ff7f0e"/>
   </g>
   <g id="patch_39">
    <path d="M 988.881522 362.669593 
L 1008.856818 362.669593 
L 1008.856818 359.418013 
L 988.881522 359.418013 
z
" clip-path="url(#pd97ebce9cf)" style="fill: #ff7f0e"/>
   </g>
   <g id="patch_40">
    <path d="M 44.05 362.669593 
L 44.05 27.05 
" style="fill: none; stroke: #000000; stroke-width: 0.8; stroke-linejoin: miter; stroke-linecap: square"/>
   </g>
   <g id="patch_41">
    <path d="M 1054.8 362.669593 
L 1054.8 27.05 
" style="fill: none; stroke: #000000; stroke-width: 0.8; stroke-linejoin: miter; stroke-linecap: square"/>
   </g>
   <g id="patch_42">
    <path d="M 44.05 362.669593 
L 1054.8 362.669593 
" style="fill: none; stroke: #000000; stroke-width: 0.8; stroke-linejoin: miter; stroke-linecap: square"/>
   </g>
   <g id="patch_43">
    <path d="M 44.05 27.05 
L 1054.8 27.05 
" style="fill: none; stroke: #000000; stroke-width: 0.8; stroke-linejoin: miter; stroke-linecap: square"/>
   </g>
   <g id="text_47">
    <!-- 8.3 -->
    <g transform="translate(93.61958 163.360289) scale(0.08 -0.08)">
     <defs>
      <path id="DejaVuSans-2e" d="M 684 794 
L 1344 794 
L 1344 0 
L 684 0 
L 684 794 
z
" transform="scale(0.015625)"/>
      <path id="DejaVuSans-33" d="M 2597 2516 
Q 3050 2419 3304 2112 
Q 3559 1806 3559 1356 
Q 3559 666 3084 287 
Q 2609 -91 1734 -91 
Q 1441 -91 1130 -33 
Q 819 25 488 141 
L 488 750 
Q 750 597 1062 519 
Q 1375 441 1716 441 
Q 2309 441 2620 675 
Q 2931 909 2931 1356 
Q 2931 1769 2642 2001 
Q 2353 2234 1838 2234 
L 1294 2234 
L 1294 2753 
L 1863 2753 
Q 2328 2753 2575 2939 
Q 2822 3125 2822 3475 
Q 2822 3834 2567 4026 
Q 2313 4219 1838 4219 
Q 1578 4219 1281 4162 
Q 984 4106 628 3988 
L 628 4550 
Q 988 4650 1302 4700 
Q 1616 4750 1894 4750 
Q 2613 4750 3031 4423 
Q 3450 4097 3450 3541 
Q 3450 3153 3228 2886 
Q 3006 2619 2597 2516 
z
" transform="scale(0.015625)"/>
     </defs>
     <use xlink:href="#DejaVuSans-38"/>
     <use xlink:href="#DejaVuSans-2e" transform="translate(63.623047 0)"/>
     <use xlink:href="#DejaVuSans-33" transform="translate(95.410156 0)"/>
    </g>
   </g>
   <g id="text_48">
    <!-- 4.4 -->
    <g transform="translate(118.588701 254.931654) scale(0.08 -0.08)">
     <use xlink:href="#DejaVuSans-34"/>
     <use xlink:href="#DejaVuSans-2e" transform="translate(63.623047 0)"/>
     <use xlink:href="#DejaVuSans-34" transform="translate(95.410156 0)"/>
    </g>
   </g>
   <g id="text_49">
    <!-- 3.7 -->
    <g transform="translate(143.557821 271.332827) scale(0.08 -0.08)">
     <defs>
      <path id="DejaVuSans-37" d="M 525 4666 
L 3525 4666 
L 3525 4397 
L 1831 0 
L 1172 0 
L 2766 4134 
L 525 4134 
L 525 4666 
z
" transform="scale(0.015625)"/>
     </defs>
     <use xlink:href="#DejaVuSans-33"/>
     <use xlink:href="#DejaVuSans-2e" transform="translate(63.623047 0)"/>
     <use xlink:href="#DejaVuSans-37" transform="translate(95.410156 0)"/>
    </g>
   </g>
   <g id="text_50">
    <!-- 3.6 -->
    <g transform="translate(168.526942 273.732486) scale(0.08 -0.08)">
     <use xlink:href="#DejaVuSans-33"/>
     <use xlink:href="#DejaVuSans-2e" transform="translate(63.623047 0)"/>
     <use xlink:href="#DejaVuSans-36" transform="translate(95.410156 0)"/>
    </g>
   </g>
   <g id="text_51">
    <!-- 3.1 -->
    <g transform="translate(193.496062 286.15126) scale(0.08 -0.08)">
     <use xlink:href="#DejaVuSans-33"/>
     <use xlink:href="#DejaVuSans-2e" transform="translate(63.623047 0)"/>
     <use xlink:href="#DejaVuSans-31" transform="translate(95.410156 0)"/>
    </g>
   </g>
   <g id="text_52">
    <!-- 2.9 -->
    <g transform="translate(218.465183 289.122834) scale(0.08 -0.08)">
     <defs>
      <path id="DejaVuSans-39" d="M 703 97 
L 703 672 
Q 941 559 1184 500 
Q 1428 441 1663 441 
Q 2288 441 2617 861 
Q 2947 1281 2994 2138 
Q 2813 1869 2534 1725 
Q 2256 1581 1919 1581 
Q 1219 1581 811 2004 
Q 403 2428 403 3163 
Q 403 3881 828 4315 
Q 1253 4750 1959 4750 
Q 2769 4750 3195 4129 
Q 3622 3509 3622 2328 
Q 3622 1225 3098 567 
Q 2575 -91 1691 -91 
Q 1453 -91 1209 -44 
Q 966 3 703 97 
z
M 1959 2075 
Q 2384 2075 2632 2365 
Q 2881 2656 2881 3163 
Q 2881 3666 2632 3958 
Q 2384 4250 1959 4250 
Q 1534 4250 1286 3958 
Q 1038 3666 1038 3163 
Q 1038 2656 1286 2365 
Q 1534 2075 1959 2075 
z
" transform="scale(0.015625)"/>
     </defs>
     <use xlink:href="#DejaVuSans-32"/>
     <use xlink:href="#DejaVuSans-2e" transform="translate(63.623047 0)"/>
     <use xlink:href="#DejaVuSans-39" transform="translate(95.410156 0)"/>
    </g>
   </g>
   <g id="text_53">
    <!-- 2.9 -->
    <g transform="translate(243.434303 290.631371) scale(0.08 -0.08)">
     <use xlink:href="#DejaVuSans-32"/>
     <use xlink:href="#DejaVuSans-2e" transform="translate(63.623047 0)"/>
     <use xlink:href="#DejaVuSans-39" transform="translate(95.410156 0)"/>
    </g>
   </g>
   <g id="text_54">
    <!-- 2.8 -->
    <g transform="translate(268.403424 291.913569) scale(0.08 -0.08)">
     <use xlink:href="#DejaVuSans-32"/>
     <use xlink:href="#DejaVuSans-2e" transform="translate(63.623047 0)"/>
     <use xlink:href="#DejaVuSans-38" transform="translate(95.410156 0)"/>
    </g>
   </g>
   <g id="text_55">
    <!-- 2.7 -->
    <g transform="translate(293.372544 293.725447) scale(0.08 -0.08)">
     <use xlink:href="#DejaVuSans-32"/>
     <use xlink:href="#DejaVuSans-2e" transform="translate(63.623047 0)"/>
     <use xlink:href="#DejaVuSans-37" transform="translate(95.410156 0)"/>
    </g>
   </g>
   <g id="text_56">
    <!-- 2.3 -->
    <g transform="translate(318.341665 303.246616) scale(0.08 -0.08)">
     <use xlink:href="#DejaVuSans-32"/>
     <use xlink:href="#DejaVuSans-2e" transform="translate(63.623047 0)"/>
     <use xlink:href="#DejaVuSans-33" transform="translate(95.410156 0)"/>
    </g>
   </g>
   <g id="text_57">
    <!-- 1.9 -->
    <g transform="translate(343.310786 313.976948) scale(0.08 -0.08)">
     <use xlink:href="#DejaVuSans-31"/>
     <use xlink:href="#DejaVuSans-2e" transform="translate(63.623047 0)"/>
     <use xlink:href="#DejaVuSans-39" transform="translate(95.410156 0)"/>
    </g>
   </g>
   <g id="text_58">
    <!-- 1.9 -->
    <g transform="translate(368.279906 314.461127) scale(0.08 -0.08)">
     <use xlink:href="#DejaVuSans-31"/>
     <use xlink:href="#DejaVuSans-2e" transform="translate(63.623047 0)"/>
     <use xlink:href="#DejaVuSans-39" transform="translate(95.410156 0)"/>
    </g>
   </g>
   <g id="text_59">
    <!-- 1.5 -->
    <g transform="translate(393.249027 323.961762) scale(0.08 -0.08)">
     <defs>
      <path id="DejaVuSans-35" d="M 691 4666 
L 3169 4666 
L 3169 4134 
L 1269 4134 
L 1269 2991 
Q 1406 3038 1543 3061 
Q 1681 3084 1819 3084 
Q 2600 3084 3056 2656 
Q 3513 2228 3513 1497 
Q 3513 744 3044 326 
Q 2575 -91 1722 -91 
Q 1428 -91 1123 -41 
Q 819 9 494 109 
L 494 744 
Q 775 591 1075 516 
Q 1375 441 1709 441 
Q 2250 441 2565 725 
Q 2881 1009 2881 1497 
Q 2881 1984 2565 2268 
Q 2250 2553 1709 2553 
Q 1456 2553 1204 2497 
Q 953 2441 691 2322 
L 691 4666 
z
" transform="scale(0.015625)"/>
     </defs>
     <use xlink:href="#DejaVuSans-31"/>
     <use xlink:href="#DejaVuSans-2e" transform="translate(63.623047 0)"/>
     <use xlink:href="#DejaVuSans-35" transform="translate(95.410156 0)"/>
    </g>
   </g>
   <g id="text_60">
    <!-- 1.0 -->
    <g transform="translate(418.218147 333.760371) scale(0.08 -0.08)">
     <use xlink:href="#DejaVuSans-31"/>
     <use xlink:href="#DejaVuSans-2e" transform="translate(63.623047 0)"/>
     <use xlink:href="#DejaVuSans-30" transform="translate(95.410156 0)"/>
    </g>
   </g>
   <g id="text_61">
    <!-- 13.7 -->
    <g transform="translate(440.642268 38.171758) scale(0.08 -0.08)">
     <use xlink:href="#DejaVuSans-31"/>
     <use xlink:href="#DejaVuSans-33" transform="translate(63.623047 0)"/>
     <use xlink:href="#DejaVuSans-2e" transform="translate(127.246094 0)"/>
     <use xlink:href="#DejaVuSans-37" transform="translate(159.033203 0)"/>
    </g>
   </g>
   <g id="text_62">
    <!-- 7.6 -->
    <g transform="translate(468.156388 179.482854) scale(0.08 -0.08)">
     <use xlink:href="#DejaVuSans-37"/>
     <use xlink:href="#DejaVuSans-2e" transform="translate(63.623047 0)"/>
     <use xlink:href="#DejaVuSans-36" transform="translate(95.410156 0)"/>
    </g>
   </g>
   <g id="text_63">
    <!-- 6.6 -->
    <g transform="translate(493.125509 203.255676) scale(0.08 -0.08)">
     <use xlink:href="#DejaVuSans-36"/>
     <use xlink:href="#DejaVuSans-2e" transform="translate(63.623047 0)"/>
     <use xlink:href="#DejaVuSans-36" transform="translate(95.410156 0)"/>
    </g>
   </g>
   <g id="text_64">
    <!-- 6.2 -->
    <g transform="translate(518.094629 212.630774) scale(0.08 -0.08)">
     <use xlink:href="#DejaVuSans-36"/>
     <use xlink:href="#DejaVuSans-2e" transform="translate(63.623047 0)"/>
     <use xlink:href="#DejaVuSans-32" transform="translate(95.410156 0)"/>
    </g>
   </g>
   <g id="text_65">
    <!-- 4.3 -->
    <g transform="translate(543.06375 257.766024) scale(0.08 -0.08)">
     <use xlink:href="#DejaVuSans-34"/>
     <use xlink:href="#DejaVuSans-2e" transform="translate(63.623047 0)"/>
     <use xlink:href="#DejaVuSans-33" transform="translate(95.410156 0)"/>
    </g>
   </g>
   <g id="text_66">
    <!-- 3.9 -->
    <g transform="translate(568.032871 266.967052) scale(0.08 -0.08)">
     <use xlink:href="#DejaVuSans-33"/>
     <use xlink:href="#DejaVuSans-2e" transform="translate(63.623047 0)"/>
     <use xlink:href="#DejaVuSans-39" transform="translate(95.410156 0)"/>
    </g>
   </g>
   <g id="text_67">
    <!-- 3.4 -->
    <g transform="translate(593.001991 278.668775) scale(0.08 -0.08)">
     <use xlink:href="#DejaVuSans-33"/>
     <use xlink:href="#DejaVuSans-2e" transform="translate(63.623047 0)"/>
     <use xlink:href="#DejaVuSans-34" transform="translate(95.410156 0)"/>
    </g>
   </g>
   <g id="text_68">
    <!-- 3.3 -->
    <g transform="translate(617.971112 281.496845) scale(0.08 -0.08)">
     <use xlink:href="#DejaVuSans-33"/>
     <use xlink:href="#DejaVuSans-2e" transform="translate(63.623047 0)"/>
     <use xlink:href="#DejaVuSans-33" transform="translate(95.410156 0)"/>
    </g>
   </g>
   <g id="text_69">
    <!-- 2.6 -->
    <g transform="translate(642.940232 297.889617) scale(0.08 -0.08)">
     <use xlink:href="#DejaVuSans-32"/>
     <use xlink:href="#DejaVuSans-2e" transform="translate(63.623047 0)"/>
     <use xlink:href="#DejaVuSans-36" transform="translate(95.410156 0)"/>
    </g>
   </g>
   <g id="text_70">
    <!-- 2.0 -->
    <g transform="translate(667.909353 311.495387) scale(0.08 -0.08)">
     <use xlink:href="#DejaVuSans-32"/>
     <use xlink:href="#DejaVuSans-2e" transform="translate(63.623047 0)"/>
     <use xlink:href="#DejaVuSans-30" transform="translate(95.410156 0)"/>
    </g>
   </g>
   <g id="text_71">
    <!-- 1.9 -->
    <g transform="translate(692.878473 313.030642) scale(0.08 -0.08)">
     <use xlink:href="#DejaVuSans-31"/>
     <use xlink:href="#DejaVuSans-2e" transform="translate(63.623047 0)"/>
     <use xlink:href="#DejaVuSans-39" transform="translate(95.410156 0)"/>
    </g>
   </g>
   <g id="text_72">
    <!-- 1.9 -->
    <g transform="translate(717.847594 314.342358) scale(0.08 -0.08)">
     <use xlink:href="#DejaVuSans-31"/>
     <use xlink:href="#DejaVuSans-2e" transform="translate(63.623047 0)"/>
     <use xlink:href="#DejaVuSans-39" transform="translate(95.410156 0)"/>
    </g>
   </g>
   <g id="text_73">
    <!-- 1.4 -->
    <g transform="translate(742.816714 326.254786) scale(0.08 -0.08)">
     <use xlink:href="#DejaVuSans-31"/>
     <use xlink:href="#DejaVuSans-2e" transform="translate(63.623047 0)"/>
     <use xlink:href="#DejaVuSans-34" transform="translate(95.410156 0)"/>
    </g>
   </g>
   <g id="text_74">
    <!-- 1.2 -->
    <g transform="translate(767.785835 330.62686) scale(0.08 -0.08)">
     <use xlink:href="#DejaVuSans-31"/>
     <use xlink:href="#DejaVuSans-2e" transform="translate(63.623047 0)"/>
     <use xlink:href="#DejaVuSans-32" transform="translate(95.410156 0)"/>
    </g>
   </g>
   <g id="text_75">
    <!-- 0.8 -->
    <g transform="translate(792.754956 339.838622) scale(0.08 -0.08)">
     <use xlink:href="#DejaVuSans-30"/>
     <use xlink:href="#DejaVuSans-2e" transform="translate(63.623047 0)"/>
     <use xlink:href="#DejaVuSans-38" transform="translate(95.410156 0)"/>
    </g>
   </g>
   <g id="text_76">
    <!-- 0.4 -->
    <g transform="translate(817.724076 347.524112) scale(0.08 -0.08)">
     <use xlink:href="#DejaVuSans-30"/>
     <use xlink:href="#DejaVuSans-2e" transform="translate(63.623047 0)"/>
     <use xlink:href="#DejaVuSans-34" transform="translate(95.410156 0)"/>
    </g>
   </g>
   <g id="text_77">
    <!-- 8.7 -->
    <g transform="translate(842.693197 154.675174) scale(0.08 -0.08)">
     <use xlink:href="#DejaVuSans-38"/>
     <use xlink:href="#DejaVuSans-2e" transform="translate(63.623047 0)"/>
     <use xlink:href="#DejaVuSans-37" transform="translate(95.410156 0)"/>
    </g>
   </g>
   <g id="text_78">
    <!-- 5.5 -->
    <g transform="translate(867.662317 230.000304) scale(0.08 -0.08)">
     <use xlink:href="#DejaVuSans-35"/>
     <use xlink:href="#DejaVuSans-2e" transform="translate(63.623047 0)"/>
     <use xlink:href="#DejaVuSans-35" transform="translate(95.410156 0)"/>
    </g>
   </g>
   <g id="text_79">
    <!-- 1.7 -->
    <g transform="translate(892.631438 318.323823) scale(0.08 -0.08)">
     <use xlink:href="#DejaVuSans-31"/>
     <use xlink:href="#DejaVuSans-2e" transform="translate(63.623047 0)"/>
     <use xlink:href="#DejaVuSans-37" transform="translate(95.410156 0)"/>
    </g>
   </g>
   <g id="text_80">
    <!-- 0.6 -->
    <g transform="translate(917.600558 344.446136) scale(0.08 -0.08)">
     <use xlink:href="#DejaVuSans-30"/>
     <use xlink:href="#DejaVuSans-2e" transform="translate(63.623047 0)"/>
     <use xlink:href="#DejaVuSans-36" transform="translate(95.410156 0)"/>
    </g>
   </g>
   <g id="text_81">
    <!-- 0.3 -->
    <g transform="translate(942.569679 350.507352) scale(0.08 -0.08)">
     <use xlink:href="#DejaVuSans-30"/>
     <use xlink:href="#DejaVuSans-2e" transform="translate(63.623047 0)"/>
     <use xlink:href="#DejaVuSans-33" transform="translate(95.410156 0)"/>
    </g>
   </g>
   <g id="text_82">
    <!-- 0.3 -->
    <g transform="translate(967.538799 351.114501) scale(0.08 -0.08)">
     <use xlink:href="#DejaVuSans-30"/>
     <use xlink:href="#DejaVuSans-2e" transform="translate(63.623047 0)"/>
     <use xlink:href="#DejaVuSans-33" transform="translate(95.410156 0)"/>
    </g>
   </g>
   <g id="text_83">
    <!-- 0.1 -->
    <g transform="translate(992.50792 354.557886) scale(0.08 -0.08)">
     <use xlink:href="#DejaVuSans-30"/>
     <use xlink:href="#DejaVuSans-2e" transform="translate(63.623047 0)"/>
     <use xlink:href="#DejaVuSans-31" transform="translate(95.410156 0)"/>
    </g>
   </g>
   <g id="text_84">
    <!-- Instalirana snaga po grupi područja - ZAPAD -->
    <g transform="translate(416.634688 21.05) scale(0.12 -0.12)">
     <defs>
      <path id="DejaVuSans-70" d="M 1159 525 
L 1159 -1331 
L 581 -1331 
L 581 3500 
L 1159 3500 
L 1159 2969 
Q 1341 3281 1617 3432 
Q 1894 3584 2278 3584 
Q 2916 3584 3314 3078 
Q 3713 2572 3713 1747 
Q 3713 922 3314 415 
Q 2916 -91 2278 -91 
Q 1894 -91 1617 61 
Q 1341 213 1159 525 
z
M 3116 1747 
Q 3116 2381 2855 2742 
Q 2594 3103 2138 3103 
Q 1681 3103 1420 2742 
Q 1159 2381 1159 1747 
Q 1159 1113 1420 752 
Q 1681 391 2138 391 
Q 2594 391 2855 752 
Q 3116 1113 3116 1747 
z
" transform="scale(0.015625)"/>
      <path id="DejaVuSans-6f" d="M 1959 3097 
Q 1497 3097 1228 2736 
Q 959 2375 959 1747 
Q 959 1119 1226 758 
Q 1494 397 1959 397 
Q 2419 397 2687 759 
Q 2956 1122 2956 1747 
Q 2956 2369 2687 2733 
Q 2419 3097 1959 3097 
z
M 1959 3584 
Q 2709 3584 3137 3096 
Q 3566 2609 3566 1747 
Q 3566 888 3137 398 
Q 2709 -91 1959 -91 
Q 1206 -91 779 398 
Q 353 888 353 1747 
Q 353 2609 779 3096 
Q 1206 3584 1959 3584 
z
" transform="scale(0.015625)"/>
      <path id="DejaVuSans-75" d="M 544 1381 
L 544 3500 
L 1119 3500 
L 1119 1403 
Q 1119 906 1312 657 
Q 1506 409 1894 409 
Q 2359 409 2629 706 
Q 2900 1003 2900 1516 
L 2900 3500 
L 3475 3500 
L 3475 0 
L 2900 0 
L 2900 538 
Q 2691 219 2414 64 
Q 2138 -91 1772 -91 
Q 1169 -91 856 284 
Q 544 659 544 1381 
z
M 1991 3584 
L 1991 3584 
z
" transform="scale(0.015625)"/>
      <path id="DejaVuSans-64" d="M 2906 2969 
L 2906 4863 
L 3481 4863 
L 3481 0 
L 2906 0 
L 2906 525 
Q 2725 213 2448 61 
Q 2172 -91 1784 -91 
Q 1150 -91 751 415 
Q 353 922 353 1747 
Q 353 2572 751 3078 
Q 1150 3584 1784 3584 
Q 2172 3584 2448 3432 
Q 2725 3281 2906 2969 
z
M 947 1747 
Q 947 1113 1208 752 
Q 1469 391 1925 391 
Q 2381 391 2643 752 
Q 2906 1113 2906 1747 
Q 2906 2381 2643 2742 
Q 2381 3103 1925 3103 
Q 1469 3103 1208 2742 
Q 947 2381 947 1747 
z
" transform="scale(0.015625)"/>
      <path id="DejaVuSans-10d" d="M 3122 3366 
L 3122 2828 
Q 2878 2963 2633 3030 
Q 2388 3097 2138 3097 
Q 1578 3097 1268 2742 
Q 959 2388 959 1747 
Q 959 1106 1268 751 
Q 1578 397 2138 397 
Q 2388 397 2633 464 
Q 2878 531 3122 666 
L 3122 134 
Q 2881 22 2623 -34 
Q 2366 -91 2075 -91 
Q 1284 -91 818 406 
Q 353 903 353 1747 
Q 353 2603 823 3093 
Q 1294 3584 2113 3584 
Q 2378 3584 2631 3529 
Q 2884 3475 3122 3366 
z
M 1797 3944 
L 1031 5119 
L 1466 5119 
L 2028 4353 
L 2591 5119 
L 3025 5119 
L 2259 3944 
L 1797 3944 
z
" transform="scale(0.015625)"/>
      <path id="DejaVuSans-6a" d="M 603 3500 
L 1178 3500 
L 1178 -63 
Q 1178 -731 923 -1031 
Q 669 -1331 103 -1331 
L -116 -1331 
L -116 -844 
L 38 -844 
Q 366 -844 484 -692 
Q 603 -541 603 -63 
L 603 3500 
z
M 603 4863 
L 1178 4863 
L 1178 4134 
L 603 4134 
L 603 4863 
z
" transform="scale(0.015625)"/>
      <path id="DejaVuSans-2d" d="M 313 2009 
L 1997 2009 
L 1997 1497 
L 313 1497 
L 313 2009 
z
" transform="scale(0.015625)"/>
     </defs>
     <use xlink:href="#DejaVuSans-49"/>
     <use xlink:href="#DejaVuSans-6e" transform="translate(29.492188 0)"/>
     <use xlink:href="#DejaVuSans-73" transform="translate(92.871094 0)"/>
     <use xlink:href="#DejaVuSans-74" transform="translate(144.970703 0)"/>
     <use xlink:href="#DejaVuSans-61" transform="translate(184.179688 0)"/>
     <use xlink:href="#DejaVuSans-6c" transform="translate(245.458984 0)"/>
     <use xlink:href="#DejaVuSans-69" transform="translate(273.242188 0)"/>
     <use xlink:href="#DejaVuSans-72" transform="translate(301.025391 0)"/>
     <use xlink:href="#DejaVuSans-61" transform="translate(342.138672 0)"/>
     <use xlink:href="#DejaVuSans-6e" transform="translate(403.417969 0)"/>
     <use xlink:href="#DejaVuSans-61" transform="translate(466.796875 0)"/>
     <use xlink:href="#DejaVuSans-20" transform="translate(528.076172 0)"/>
     <use xlink:href="#DejaVuSans-73" transform="translate(559.863281 0)"/>
     <use xlink:href="#DejaVuSans-6e" transform="translate(611.962891 0)"/>
     <use xlink:href="#DejaVuSans-61" transform="translate(675.341797 0)"/>
     <use xlink:href="#DejaVuSans-67" transform="translate(736.621094 0)"/>
     <use xlink:href="#DejaVuSans-61" transform="translate(800.097656 0)"/>
     <use xlink:href="#DejaVuSans-20" transform="translate(861.376953 0)"/>
     <use xlink:href="#DejaVuSans-70" transform="translate(893.164062 0)"/>
     <use xlink:href="#DejaVuSans-6f" transform="translate(956.640625 0)"/>
     <use xlink:href="#DejaVuSans-20" transform="translate(1017.822266 0)"/>
     <use xlink:href="#DejaVuSans-67" transform="translate(1049.609375 0)"/>
     <use xlink:href="#DejaVuSans-72" transform="translate(1113.085938 0)"/>
     <use xlink:href="#DejaVuSans-75" transform="translate(1154.199219 0)"/>
     <use xlink:href="#DejaVuSans-70" transform="translate(1217.578125 0)"/>
     <use xlink:href="#DejaVuSans-69" transform="translate(1281.054688 0)"/>
     <use xlink:href="#DejaVuSans-20" transform="translate(1308.837891 0)"/>
     <use xlink:href="#DejaVuSans-70" transform="translate(1340.625 0)"/>
     <use xlink:href="#DejaVuSans-6f" transform="translate(1404.101562 0)"/>
     <use xlink:href="#DejaVuSans-64" transform="translate(1465.283203 0)"/>
     <use xlink:href="#DejaVuSans-72" transform="translate(1528.759766 0)"/>
     <use xlink:href="#DejaVuSans-75" transform="translate(1569.873047 0)"/>
     <use xlink:href="#DejaVuSans-10d" transform="translate(1633.251953 0)"/>
     <use xlink:href="#DejaVuSans-6a" transform="translate(1688.232422 0)"/>
     <use xlink:href="#DejaVuSans-61" transform="translate(1716.015625 0)"/>
     <use xlink:href="#DejaVuSans-20" transform="translate(1777.294922 0)"/>
     <use xlink:href="#DejaVuSans-2d" transform="translate(1809.082031 0)"/>
     <use xlink:href="#DejaVuSans-20" transform="translate(1845.166016 0)"/>
     <use xlink:href="#DejaVuSans-5a" transform="translate(1876.953125 0)"/>
     <use xlink:href="#DejaVuSans-41" transform="translate(1945.458984 0)"/>
     <use xlink:href="#DejaVuSans-50" transform="translate(2013.867188 0)"/>
     <use xlink:href="#DejaVuSans-41" transform="translate(2067.794922 0)"/>
     <use xlink:href="#DejaVuSans-44" transform="translate(2136.203125 0)"/>
    </g>
   </g>
   <g id="legend_1">
    <g id="patch_44">
     <path d="M 973.442188 93.7625 
L 1047.8 93.7625 
Q 1049.8 93.7625 1049.8 91.7625 
L 1049.8 34.05 
Q 1049.8 32.05 1047.8 32.05 
L 973.442188 32.05 
Q 971.442188 32.05 971.442188 34.05 
L 971.442188 91.7625 
Q 971.442188 93.7625 973.442188 93.7625 
z
" style="fill: #ffffff; opacity: 0.8; stroke: #cccccc; stroke-linejoin: miter"/>
    </g>
    <g id="text_85">
     <!-- DP -->
     <g transform="translate(1003.75625 43.648438) scale(0.1 -0.1)">
      <use xlink:href="#DejaVuSans-44"/>
      <use xlink:href="#DejaVuSans-50" transform="translate(77.001953 0)"/>
     </g>
    </g>
    <g id="patch_45">
     <path d="M 975.442188 58.326563 
L 995.442188 58.326563 
L 995.442188 51.326563 
L 975.442188 51.326563 
z
" style="fill: #1f77b4; stroke: #1f77b4; stroke-linejoin: miter"/>
    </g>
    <g id="text_86">
     <!-- DP 4011 -->
     <g transform="translate(1003.442188 58.326563) scale(0.1 -0.1)">
      <use xlink:href="#DejaVuSans-44"/>
      <use xlink:href="#DejaVuSans-50" transform="translate(77.001953 0)"/>
      <use xlink:href="#DejaVuSans-20" transform="translate(137.304688 0)"/>
      <use xlink:href="#DejaVuSans-34" transform="translate(169.091797 0)"/>
      <use xlink:href="#DejaVuSans-30" transform="translate(232.714844 0)"/>
      <use xlink:href="#DejaVuSans-31" transform="translate(296.337891 0)"/>
      <use xlink:href="#DejaVuSans-31" transform="translate(359.960938 0)"/>
     </g>
    </g>
    <g id="patch_46">
     <path d="M 975.442188 73.004688 
L 995.442188 73.004688 
L 995.442188 66.004688 
L 975.442188 66.004688 
z
" style="fill: #aec7e8; stroke: #aec7e8; stroke-linejoin: miter"/>
    </g>
    <g id="text_87">
     <!-- DP 4012 -->
     <g transform="translate(1003.442188 73.004688) scale(0.1 -0.1)">
      <use xlink:href="#DejaVuSans-44"/>
      <use xlink:href="#DejaVuSans-50" transform="translate(77.001953 0)"/>
      <use xlink:href="#DejaVuSans-20" transform="translate(137.304688 0)"/>
      <use xlink:href="#DejaVuSans-34" transform="translate(169.091797 0)"/>
      <use xlink:href="#DejaVuSans-30" transform="translate(232.714844 0)"/>
      <use xlink:href="#DejaVuSans-31" transform="translate(296.337891 0)"/>
      <use xlink:href="#DejaVuSans-32" transform="translate(359.960938 0)"/>
     </g>
    </g>
    <g id="patch_47">
     <path d="M 975.442188 87.682813 
L 995.442188 87.682813 
L 995.442188 80.682813 
L 975.442188 80.682813 
z
" style="fill: #ff7f0e; stroke: #ff7f0e; stroke-linejoin: miter"/>
    </g>
    <g id="text_88">
     <!-- DP 4019 -->
     <g transform="translate(1003.442188 87.682813) scale(0.1 -0.1)">
      <use xlink:href="#DejaVuSans-44"/>
      <use xlink:href="#DejaVuSans-50" transform="translate(77.001953 0)"/>
      <use xlink:href="#DejaVuSans-20" transform="translate(137.304688 0)"/>
      <use xlink:href="#DejaVuSans-34" transform="translate(169.091797 0)"/>
      <use xlink:href="#DejaVuSans-30" transform="translate(232.714844 0)"/>
      <use xlink:href="#DejaVuSans-31" transform="translate(296.337891 0)"/>
      <use xlink:href="#DejaVuSans-39" transform="translate(359.960938 0)"/>
     </g>
    </g>
   </g>
  </g>
 </g>
 <defs>
  <clipPath id="pd97ebce9cf">
   <rect x="44.05" y="27.05" width="1010.75" height="335.619593"/>
  </clipPath>
 </defs>
</svg>
