<?xml version="1.0" encoding="utf-8" standalone="no"?>
<!DOCTYPE svg PUBLIC "-//W3C//DTD SVG 1.1//EN"
  "http://www.w3.org/Graphics/SVG/1.1/DTD/svg11.dtd">
<svg xmlns:xlink="http://www.w3.org/1999/xlink" width="1036.8pt" height="432pt" viewBox="0 0 1036.8 432" xmlns="http://www.w3.org/2000/svg" version="1.1">
 <metadata>
  <rdf:RDF xmlns:dc="http://purl.org/dc/elements/1.1/" xmlns:cc="http://creativecommons.org/ns#" xmlns:rdf="http://www.w3.org/1999/02/22-rdf-syntax-ns#">
   <cc:Work>
    <dc:type rdf:resource="http://purl.org/dc/dcmitype/StillImage"/>
    <dc:date>2025-10-21T11:20:36.404145</dc:date>
    <dc:format>image/svg+xml</dc:format>
    <dc:creator>
     <cc:Agent>
      <dc:title>Matplotlib v3.10.0, https://matplotlib.org/</dc:title>
     </cc:Agent>
    </dc:creator>
   </cc:Work>
  </rdf:RDF>
 </metadata>
 <defs>
  <style type="text/css">*{stroke-linejoin: round; stroke-linecap: butt}</style>
 </defs>
 <g id="figure_1">
  <g id="patch_1">
   <path d="M 0 432 
L 1036.8 432 
L 1036.8 0 
L 0 0 
z
" style="fill: #ffffff"/>
  </g>
  <g id="axes_1">
   <g id="patch_2">
    <path d="M 44.05 352.283962 
L 1026 352.283962 
L 1026 27.05 
L 44.05 27.05 
z
" style="fill: #ffffff"/>
   </g>
   <g id="matplotlib.axis_1">
    <g id="xtick_1">
     <g id="line2d_1">
      <defs>
       <path id="m4fe33052f3" d="M 0 0 
L 0 3.5 
" style="stroke: #000000; stroke-width: 0.8"/>
      </defs>
      <g>
       <use xlink:href="#m4fe33052f3" x="98.658189" y="352.283962" style="stroke: #000000; stroke-width: 0.8"/>
      </g>
     </g>
     <g id="text_1">
      <!-- HE KRALJEVAC -->
      <g transform="translate(46.519008 415.325489) rotate(-45) scale(0.1 -0.1)">
       <defs>
        <path id="DejaVuSans-48" d="M 628 4666 
L 1259 4666 
L 1259 2753 
L 3553 2753 
L 3553 4666 
L 4184 4666 
L 4184 0 
L 3553 0 
L 3553 2222 
L 1259 2222 
L 1259 0 
L 628 0 
L 628 4666 
z
" transform="scale(0.015625)"/>
        <path id="DejaVuSans-45" d="M 628 4666 
L 3578 4666 
L 3578 4134 
L 1259 4134 
L 1259 2753 
L 3481 2753 
L 3481 2222 
L 1259 2222 
L 1259 531 
L 3634 531 
L 3634 0 
L 628 0 
L 628 4666 
z
" transform="scale(0.015625)"/>
        <path id="DejaVuSans-20" transform="scale(0.015625)"/>
        <path id="DejaVuSans-4b" d="M 628 4666 
L 1259 4666 
L 1259 2694 
L 3353 4666 
L 4166 4666 
L 1850 2491 
L 4331 0 
L 3500 0 
L 1259 2247 
L 1259 0 
L 628 0 
L 628 4666 
z
" transform="scale(0.015625)"/>
        <path id="DejaVuSans-52" d="M 2841 2188 
Q 3044 2119 3236 1894 
Q 3428 1669 3622 1275 
L 4263 0 
L 3584 0 
L 2988 1197 
Q 2756 1666 2539 1819 
Q 2322 1972 1947 1972 
L 1259 1972 
L 1259 0 
L 628 0 
L 628 4666 
L 2053 4666 
Q 2853 4666 3247 4331 
Q 3641 3997 3641 3322 
Q 3641 2881 3436 2590 
Q 3231 2300 2841 2188 
z
M 1259 4147 
L 1259 2491 
L 2053 2491 
Q 2509 2491 2742 2702 
Q 2975 2913 2975 3322 
Q 2975 3731 2742 3939 
Q 2509 4147 2053 4147 
L 1259 4147 
z
" transform="scale(0.015625)"/>
        <path id="DejaVuSans-41" d="M 2188 4044 
L 1331 1722 
L 3047 1722 
L 2188 4044 
z
M 1831 4666 
L 2547 4666 
L 4325 0 
L 3669 0 
L 3244 1197 
L 1141 1197 
L 716 0 
L 50 0 
L 1831 4666 
z
" transform="scale(0.015625)"/>
        <path id="DejaVuSans-4c" d="M 628 4666 
L 1259 4666 
L 1259 531 
L 3531 531 
L 3531 0 
L 628 0 
L 628 4666 
z
" transform="scale(0.015625)"/>
        <path id="DejaVuSans-4a" d="M 628 4666 
L 1259 4666 
L 1259 325 
Q 1259 -519 939 -900 
Q 619 -1281 -91 -1281 
L -331 -1281 
L -331 -750 
L -134 -750 
Q 284 -750 456 -515 
Q 628 -281 628 325 
L 628 4666 
z
" transform="scale(0.015625)"/>
        <path id="DejaVuSans-56" d="M 1831 0 
L 50 4666 
L 709 4666 
L 2188 738 
L 3669 4666 
L 4325 4666 
L 2547 0 
L 1831 0 
z
" transform="scale(0.015625)"/>
        <path id="DejaVuSans-43" d="M 4122 4306 
L 4122 3641 
Q 3803 3938 3442 4084 
Q 3081 4231 2675 4231 
Q 1875 4231 1450 3742 
Q 1025 3253 1025 2328 
Q 1025 1406 1450 917 
Q 1875 428 2675 428 
Q 3081 428 3442 575 
Q 3803 722 4122 1019 
L 4122 359 
Q 3791 134 3420 21 
Q 3050 -91 2638 -91 
Q 1578 -91 968 557 
Q 359 1206 359 2328 
Q 359 3453 968 4101 
Q 1578 4750 2638 4750 
Q 3056 4750 3426 4639 
Q 3797 4528 4122 4306 
z
" transform="scale(0.015625)"/>
       </defs>
       <use xlink:href="#DejaVuSans-48"/>
       <use xlink:href="#DejaVuSans-45" transform="translate(75.195312 0)"/>
       <use xlink:href="#DejaVuSans-20" transform="translate(138.378906 0)"/>
       <use xlink:href="#DejaVuSans-4b" transform="translate(170.166016 0)"/>
       <use xlink:href="#DejaVuSans-52" transform="translate(235.742188 0)"/>
       <use xlink:href="#DejaVuSans-41" transform="translate(301.224609 0)"/>
       <use xlink:href="#DejaVuSans-4c" transform="translate(369.632812 0)"/>
       <use xlink:href="#DejaVuSans-4a" transform="translate(425.345703 0)"/>
       <use xlink:href="#DejaVuSans-45" transform="translate(454.837891 0)"/>
       <use xlink:href="#DejaVuSans-56" transform="translate(518.021484 0)"/>
       <use xlink:href="#DejaVuSans-41" transform="translate(580.054688 0)"/>
       <use xlink:href="#DejaVuSans-43" transform="translate(646.712891 0)"/>
      </g>
     </g>
    </g>
    <g id="xtick_2">
     <g id="line2d_2">
      <g>
       <use xlink:href="#m4fe33052f3" x="123.593436" y="352.283962" style="stroke: #000000; stroke-width: 0.8"/>
      </g>
     </g>
     <g id="text_2">
      <!-- DUGOPOLJE -->
      <g transform="translate(80.13399 406.645754) rotate(-45) scale(0.1 -0.1)">
       <defs>
        <path id="DejaVuSans-44" d="M 1259 4147 
L 1259 519 
L 2022 519 
Q 2988 519 3436 956 
Q 3884 1394 3884 2338 
Q 3884 3275 3436 3711 
Q 2988 4147 2022 4147 
L 1259 4147 
z
M 628 4666 
L 1925 4666 
Q 3281 4666 3915 4102 
Q 4550 3538 4550 2338 
Q 4550 1131 3912 565 
Q 3275 0 1925 0 
L 628 0 
L 628 4666 
z
" transform="scale(0.015625)"/>
        <path id="DejaVuSans-55" d="M 556 4666 
L 1191 4666 
L 1191 1831 
Q 1191 1081 1462 751 
Q 1734 422 2344 422 
Q 2950 422 3222 751 
Q 3494 1081 3494 1831 
L 3494 4666 
L 4128 4666 
L 4128 1753 
Q 4128 841 3676 375 
Q 3225 -91 2344 -91 
Q 1459 -91 1007 375 
Q 556 841 556 1753 
L 556 4666 
z
" transform="scale(0.015625)"/>
        <path id="DejaVuSans-47" d="M 3809 666 
L 3809 1919 
L 2778 1919 
L 2778 2438 
L 4434 2438 
L 4434 434 
Q 4069 175 3628 42 
Q 3188 -91 2688 -91 
Q 1594 -91 976 548 
Q 359 1188 359 2328 
Q 359 3472 976 4111 
Q 1594 4750 2688 4750 
Q 3144 4750 3555 4637 
Q 3966 4525 4313 4306 
L 4313 3634 
Q 3963 3931 3569 4081 
Q 3175 4231 2741 4231 
Q 1884 4231 1454 3753 
Q 1025 3275 1025 2328 
Q 1025 1384 1454 906 
Q 1884 428 2741 428 
Q 3075 428 3337 486 
Q 3600 544 3809 666 
z
" transform="scale(0.015625)"/>
        <path id="DejaVuSans-4f" d="M 2522 4238 
Q 1834 4238 1429 3725 
Q 1025 3213 1025 2328 
Q 1025 1447 1429 934 
Q 1834 422 2522 422 
Q 3209 422 3611 934 
Q 4013 1447 4013 2328 
Q 4013 3213 3611 3725 
Q 3209 4238 2522 4238 
z
M 2522 4750 
Q 3503 4750 4090 4092 
Q 4678 3434 4678 2328 
Q 4678 1225 4090 567 
Q 3503 -91 2522 -91 
Q 1538 -91 948 565 
Q 359 1222 359 2328 
Q 359 3434 948 4092 
Q 1538 4750 2522 4750 
z
" transform="scale(0.015625)"/>
        <path id="DejaVuSans-50" d="M 1259 4147 
L 1259 2394 
L 2053 2394 
Q 2494 2394 2734 2622 
Q 2975 2850 2975 3272 
Q 2975 3691 2734 3919 
Q 2494 4147 2053 4147 
L 1259 4147 
z
M 628 4666 
L 2053 4666 
Q 2838 4666 3239 4311 
Q 3641 3956 3641 3272 
Q 3641 2581 3239 2228 
Q 2838 1875 2053 1875 
L 1259 1875 
L 1259 0 
L 628 0 
L 628 4666 
z
" transform="scale(0.015625)"/>
       </defs>
       <use xlink:href="#DejaVuSans-44"/>
       <use xlink:href="#DejaVuSans-55" transform="translate(77.001953 0)"/>
       <use xlink:href="#DejaVuSans-47" transform="translate(150.195312 0)"/>
       <use xlink:href="#DejaVuSans-4f" transform="translate(227.685547 0)"/>
       <use xlink:href="#DejaVuSans-50" transform="translate(306.396484 0)"/>
       <use xlink:href="#DejaVuSans-4f" transform="translate(366.699219 0)"/>
       <use xlink:href="#DejaVuSans-4c" transform="translate(445.410156 0)"/>
       <use xlink:href="#DejaVuSans-4a" transform="translate(501.123047 0)"/>
       <use xlink:href="#DejaVuSans-45" transform="translate(530.615234 0)"/>
      </g>
     </g>
    </g>
    <g id="xtick_3">
     <g id="line2d_3">
      <g>
       <use xlink:href="#m4fe33052f3" x="148.528682" y="352.283962" style="stroke: #000000; stroke-width: 0.8"/>
      </g>
     </g>
     <g id="text_3">
      <!-- NEREŽIŠĆA -->
      <g transform="translate(106.725413 404.989577) rotate(-45) scale(0.1 -0.1)">
       <defs>
        <path id="DejaVuSans-4e" d="M 628 4666 
L 1478 4666 
L 3547 763 
L 3547 4666 
L 4159 4666 
L 4159 0 
L 3309 0 
L 1241 3903 
L 1241 0 
L 628 0 
L 628 4666 
z
" transform="scale(0.015625)"/>
        <path id="DejaVuSans-17d" d="M 359 4666 
L 4025 4666 
L 4025 4184 
L 1075 531 
L 4097 531 
L 4097 0 
L 288 0 
L 288 481 
L 3238 4134 
L 359 4134 
L 359 4666 
z
M 1900 5110 
L 1241 5941 
L 1675 5941 
L 2194 5385 
L 2713 5941 
L 3147 5941 
L 2488 5110 
L 1900 5110 
z
" transform="scale(0.015625)"/>
        <path id="DejaVuSans-49" d="M 628 4666 
L 1259 4666 
L 1259 0 
L 628 0 
L 628 4666 
z
" transform="scale(0.015625)"/>
        <path id="DejaVuSans-160" d="M 3425 4513 
L 3425 3897 
Q 3066 4069 2747 4153 
Q 2428 4238 2131 4238 
Q 1616 4238 1336 4038 
Q 1056 3838 1056 3469 
Q 1056 3159 1242 3001 
Q 1428 2844 1947 2747 
L 2328 2669 
Q 3034 2534 3370 2195 
Q 3706 1856 3706 1288 
Q 3706 609 3251 259 
Q 2797 -91 1919 -91 
Q 1588 -91 1214 -16 
Q 841 59 441 206 
L 441 856 
Q 825 641 1194 531 
Q 1563 422 1919 422 
Q 2459 422 2753 634 
Q 3047 847 3047 1241 
Q 3047 1584 2836 1778 
Q 2625 1972 2144 2069 
L 1759 2144 
Q 1053 2284 737 2584 
Q 422 2884 422 3419 
Q 422 4038 858 4394 
Q 1294 4750 2059 4750 
Q 2388 4750 2728 4690 
Q 3069 4631 3425 4513 
z
M 1741 5110 
L 1081 5941 
L 1516 5941 
L 2034 5385 
L 2553 5941 
L 2988 5941 
L 2328 5110 
L 1741 5110 
z
" transform="scale(0.015625)"/>
        <path id="DejaVuSans-106" d="M 4122 4306 
L 4122 3641 
Q 3803 3938 3442 4084 
Q 3081 4231 2675 4231 
Q 1875 4231 1450 3742 
Q 1025 3253 1025 2328 
Q 1025 1406 1450 917 
Q 1875 428 2675 428 
Q 3081 428 3442 575 
Q 3803 722 4122 1019 
L 4122 359 
Q 3791 134 3420 21 
Q 3050 -91 2638 -91 
Q 1578 -91 968 557 
Q 359 1206 359 2328 
Q 359 3453 968 4101 
Q 1578 4750 2638 4750 
Q 3056 4750 3426 4639 
Q 3797 4528 4122 4306 
z
M 2713 5935 
L 3291 5935 
L 2578 5110 
L 2100 5110 
L 2713 5935 
z
" transform="scale(0.015625)"/>
       </defs>
       <use xlink:href="#DejaVuSans-4e"/>
       <use xlink:href="#DejaVuSans-45" transform="translate(74.804688 0)"/>
       <use xlink:href="#DejaVuSans-52" transform="translate(137.988281 0)"/>
       <use xlink:href="#DejaVuSans-45" transform="translate(207.470703 0)"/>
       <use xlink:href="#DejaVuSans-17d" transform="translate(270.654297 0)"/>
       <use xlink:href="#DejaVuSans-49" transform="translate(339.160156 0)"/>
       <use xlink:href="#DejaVuSans-160" transform="translate(368.652344 0)"/>
       <use xlink:href="#DejaVuSans-106" transform="translate(432.128906 0)"/>
       <use xlink:href="#DejaVuSans-41" transform="translate(501.953125 0)"/>
      </g>
     </g>
    </g>
    <g id="xtick_4">
     <g id="line2d_4">
      <g>
       <use xlink:href="#m4fe33052f3" x="173.463928" y="352.283962" style="stroke: #000000; stroke-width: 0.8"/>
      </g>
     </g>
     <g id="text_4">
      <!-- OPUZEN -->
      <g transform="translate(142.510329 394.139907) rotate(-45) scale(0.1 -0.1)">
       <defs>
        <path id="DejaVuSans-5a" d="M 359 4666 
L 4025 4666 
L 4025 4184 
L 1075 531 
L 4097 531 
L 4097 0 
L 288 0 
L 288 481 
L 3238 4134 
L 359 4134 
L 359 4666 
z
" transform="scale(0.015625)"/>
       </defs>
       <use xlink:href="#DejaVuSans-4f"/>
       <use xlink:href="#DejaVuSans-50" transform="translate(78.710938 0)"/>
       <use xlink:href="#DejaVuSans-55" transform="translate(139.013672 0)"/>
       <use xlink:href="#DejaVuSans-5a" transform="translate(210.457031 0)"/>
       <use xlink:href="#DejaVuSans-45" transform="translate(278.962891 0)"/>
       <use xlink:href="#DejaVuSans-4e" transform="translate(342.146484 0)"/>
      </g>
     </g>
    </g>
    <g id="xtick_5">
     <g id="line2d_5">
      <g>
       <use xlink:href="#m4fe33052f3" x="198.399175" y="352.283962" style="stroke: #000000; stroke-width: 0.8"/>
      </g>
     </g>
     <g id="text_5">
      <!-- TROGIR -->
      <g transform="translate(169.651969 391.933513) rotate(-45) scale(0.1 -0.1)">
       <defs>
        <path id="DejaVuSans-54" d="M -19 4666 
L 3928 4666 
L 3928 4134 
L 2272 4134 
L 2272 0 
L 1638 0 
L 1638 4134 
L -19 4134 
L -19 4666 
z
" transform="scale(0.015625)"/>
       </defs>
       <use xlink:href="#DejaVuSans-54"/>
       <use xlink:href="#DejaVuSans-52" transform="translate(61.083984 0)"/>
       <use xlink:href="#DejaVuSans-4f" transform="translate(130.566406 0)"/>
       <use xlink:href="#DejaVuSans-47" transform="translate(209.277344 0)"/>
       <use xlink:href="#DejaVuSans-49" transform="translate(286.767578 0)"/>
       <use xlink:href="#DejaVuSans-52" transform="translate(316.259766 0)"/>
      </g>
     </g>
    </g>
    <g id="xtick_6">
     <g id="line2d_6">
      <g>
       <use xlink:href="#m4fe33052f3" x="223.334421" y="352.283962" style="stroke: #000000; stroke-width: 0.8"/>
      </g>
     </g>
     <g id="text_6">
      <!-- KAŠTELA -->
      <g transform="translate(190.301486 396.219243) rotate(-45) scale(0.1 -0.1)">
       <use xlink:href="#DejaVuSans-4b"/>
       <use xlink:href="#DejaVuSans-41" transform="translate(63.826172 0)"/>
       <use xlink:href="#DejaVuSans-160" transform="translate(132.234375 0)"/>
       <use xlink:href="#DejaVuSans-54" transform="translate(195.710938 0)"/>
       <use xlink:href="#DejaVuSans-45" transform="translate(256.794922 0)"/>
       <use xlink:href="#DejaVuSans-4c" transform="translate(319.978516 0)"/>
       <use xlink:href="#DejaVuSans-41" transform="translate(377.941406 0)"/>
      </g>
     </g>
    </g>
    <g id="xtick_7">
     <g id="line2d_7">
      <g>
       <use xlink:href="#m4fe33052f3" x="248.269667" y="352.283962" style="stroke: #000000; stroke-width: 0.8"/>
      </g>
     </g>
     <g id="text_7">
      <!-- DUJMOVAČA -->
      <g transform="translate(203.675536 408.916229) rotate(-45) scale(0.1 -0.1)">
       <defs>
        <path id="DejaVuSans-4d" d="M 628 4666 
L 1569 4666 
L 2759 1491 
L 3956 4666 
L 4897 4666 
L 4897 0 
L 4281 0 
L 4281 4097 
L 3078 897 
L 2444 897 
L 1241 4097 
L 1241 0 
L 628 0 
L 628 4666 
z
" transform="scale(0.015625)"/>
        <path id="DejaVuSans-10c" d="M 4122 4306 
L 4122 3641 
Q 3803 3938 3442 4084 
Q 3081 4231 2675 4231 
Q 1875 4231 1450 3742 
Q 1025 3253 1025 2328 
Q 1025 1406 1450 917 
Q 1875 428 2675 428 
Q 3081 428 3442 575 
Q 3803 722 4122 1019 
L 4122 359 
Q 3791 134 3420 21 
Q 3050 -91 2638 -91 
Q 1578 -91 968 557 
Q 359 1206 359 2328 
Q 359 3453 968 4101 
Q 1578 4750 2638 4750 
Q 3056 4750 3426 4639 
Q 3797 4528 4122 4306 
z
M 2247 5110 
L 1588 5941 
L 2022 5941 
L 2541 5385 
L 3059 5941 
L 3494 5941 
L 2834 5110 
L 2247 5110 
z
" transform="scale(0.015625)"/>
       </defs>
       <use xlink:href="#DejaVuSans-44"/>
       <use xlink:href="#DejaVuSans-55" transform="translate(77.001953 0)"/>
       <use xlink:href="#DejaVuSans-4a" transform="translate(150.195312 0)"/>
       <use xlink:href="#DejaVuSans-4d" transform="translate(179.6875 0)"/>
       <use xlink:href="#DejaVuSans-4f" transform="translate(265.966797 0)"/>
       <use xlink:href="#DejaVuSans-56" transform="translate(342.927734 0)"/>
       <use xlink:href="#DejaVuSans-41" transform="translate(404.960938 0)"/>
       <use xlink:href="#DejaVuSans-10c" transform="translate(471.619141 0)"/>
       <use xlink:href="#DejaVuSans-41" transform="translate(541.443359 0)"/>
      </g>
     </g>
    </g>
    <g id="xtick_8">
     <g id="line2d_8">
      <g>
       <use xlink:href="#m4fe33052f3" x="273.204914" y="352.283962" style="stroke: #000000; stroke-width: 0.8"/>
      </g>
     </g>
     <g id="text_8">
      <!-- MAKARSKA -->
      <g transform="translate(232.693219 403.698002) rotate(-45) scale(0.1 -0.1)">
       <defs>
        <path id="DejaVuSans-53" d="M 3425 4513 
L 3425 3897 
Q 3066 4069 2747 4153 
Q 2428 4238 2131 4238 
Q 1616 4238 1336 4038 
Q 1056 3838 1056 3469 
Q 1056 3159 1242 3001 
Q 1428 2844 1947 2747 
L 2328 2669 
Q 3034 2534 3370 2195 
Q 3706 1856 3706 1288 
Q 3706 609 3251 259 
Q 2797 -91 1919 -91 
Q 1588 -91 1214 -16 
Q 841 59 441 206 
L 441 856 
Q 825 641 1194 531 
Q 1563 422 1919 422 
Q 2459 422 2753 634 
Q 3047 847 3047 1241 
Q 3047 1584 2836 1778 
Q 2625 1972 2144 2069 
L 1759 2144 
Q 1053 2284 737 2584 
Q 422 2884 422 3419 
Q 422 4038 858 4394 
Q 1294 4750 2059 4750 
Q 2388 4750 2728 4690 
Q 3069 4631 3425 4513 
z
" transform="scale(0.015625)"/>
       </defs>
       <use xlink:href="#DejaVuSans-4d"/>
       <use xlink:href="#DejaVuSans-41" transform="translate(86.279297 0)"/>
       <use xlink:href="#DejaVuSans-4b" transform="translate(154.6875 0)"/>
       <use xlink:href="#DejaVuSans-41" transform="translate(218.513672 0)"/>
       <use xlink:href="#DejaVuSans-52" transform="translate(286.921875 0)"/>
       <use xlink:href="#DejaVuSans-53" transform="translate(356.404297 0)"/>
       <use xlink:href="#DejaVuSans-4b" transform="translate(419.880859 0)"/>
       <use xlink:href="#DejaVuSans-41" transform="translate(483.707031 0)"/>
      </g>
     </g>
    </g>
    <g id="xtick_9">
     <g id="line2d_9">
      <g>
       <use xlink:href="#m4fe33052f3" x="298.14016" y="352.283962" style="stroke: #000000; stroke-width: 0.8"/>
      </g>
     </g>
     <g id="text_9">
      <!-- ZAKUČAC -->
      <g transform="translate(262.773772 398.552696) rotate(-45) scale(0.1 -0.1)">
       <use xlink:href="#DejaVuSans-5a"/>
       <use xlink:href="#DejaVuSans-41" transform="translate(68.505859 0)"/>
       <use xlink:href="#DejaVuSans-4b" transform="translate(136.914062 0)"/>
       <use xlink:href="#DejaVuSans-55" transform="translate(199.865234 0)"/>
       <use xlink:href="#DejaVuSans-10c" transform="translate(273.058594 0)"/>
       <use xlink:href="#DejaVuSans-41" transform="translate(342.882812 0)"/>
       <use xlink:href="#DejaVuSans-43" transform="translate(409.541016 0)"/>
      </g>
     </g>
    </g>
    <g id="xtick_10">
     <g id="line2d_10">
      <g>
       <use xlink:href="#m4fe33052f3" x="323.075406" y="352.283962" style="stroke: #000000; stroke-width: 0.8"/>
      </g>
     </g>
     <g id="text_10">
      <!-- METERIZE -->
      <g transform="translate(285.937937 400.323777) rotate(-45) scale(0.1 -0.1)">
       <use xlink:href="#DejaVuSans-4d"/>
       <use xlink:href="#DejaVuSans-45" transform="translate(86.279297 0)"/>
       <use xlink:href="#DejaVuSans-54" transform="translate(149.462891 0)"/>
       <use xlink:href="#DejaVuSans-45" transform="translate(210.546875 0)"/>
       <use xlink:href="#DejaVuSans-52" transform="translate(273.730469 0)"/>
       <use xlink:href="#DejaVuSans-49" transform="translate(343.212891 0)"/>
       <use xlink:href="#DejaVuSans-5a" transform="translate(372.705078 0)"/>
       <use xlink:href="#DejaVuSans-45" transform="translate(441.210938 0)"/>
      </g>
     </g>
    </g>
    <g id="xtick_11">
     <g id="line2d_11">
      <g>
       <use xlink:href="#m4fe33052f3" x="348.010653" y="352.283962" style="stroke: #000000; stroke-width: 0.8"/>
      </g>
     </g>
     <g id="text_11">
      <!-- SINJ -->
      <g transform="translate(332.589096 378.607865) rotate(-45) scale(0.1 -0.1)">
       <use xlink:href="#DejaVuSans-53"/>
       <use xlink:href="#DejaVuSans-49" transform="translate(63.476562 0)"/>
       <use xlink:href="#DejaVuSans-4e" transform="translate(92.96875 0)"/>
       <use xlink:href="#DejaVuSans-4a" transform="translate(167.773438 0)"/>
      </g>
     </g>
    </g>
    <g id="xtick_12">
     <g id="line2d_12">
      <g>
       <use xlink:href="#m4fe33052f3" x="372.945899" y="352.283962" style="stroke: #000000; stroke-width: 0.8"/>
      </g>
     </g>
     <g id="text_12">
      <!-- IMOTSKI -->
      <g transform="translate(342.191173 393.941034) rotate(-45) scale(0.1 -0.1)">
       <use xlink:href="#DejaVuSans-49"/>
       <use xlink:href="#DejaVuSans-4d" transform="translate(29.492188 0)"/>
       <use xlink:href="#DejaVuSans-4f" transform="translate(115.771484 0)"/>
       <use xlink:href="#DejaVuSans-54" transform="translate(194.482422 0)"/>
       <use xlink:href="#DejaVuSans-53" transform="translate(255.566406 0)"/>
       <use xlink:href="#DejaVuSans-4b" transform="translate(319.042969 0)"/>
       <use xlink:href="#DejaVuSans-49" transform="translate(384.619141 0)"/>
      </g>
     </g>
    </g>
    <g id="xtick_13">
     <g id="line2d_13">
      <g>
       <use xlink:href="#m4fe33052f3" x="397.881145" y="352.283962" style="stroke: #000000; stroke-width: 0.8"/>
      </g>
     </g>
     <g id="text_13">
      <!-- VRGORAC -->
      <g transform="translate(361.333668 399.733785) rotate(-45) scale(0.1 -0.1)">
       <use xlink:href="#DejaVuSans-56"/>
       <use xlink:href="#DejaVuSans-52" transform="translate(68.408203 0)"/>
       <use xlink:href="#DejaVuSans-47" transform="translate(137.890625 0)"/>
       <use xlink:href="#DejaVuSans-4f" transform="translate(215.380859 0)"/>
       <use xlink:href="#DejaVuSans-52" transform="translate(294.091797 0)"/>
       <use xlink:href="#DejaVuSans-41" transform="translate(359.574219 0)"/>
       <use xlink:href="#DejaVuSans-43" transform="translate(426.232422 0)"/>
      </g>
     </g>
    </g>
    <g id="xtick_14">
     <g id="line2d_14">
      <g>
       <use xlink:href="#m4fe33052f3" x="422.816392" y="352.283962" style="stroke: #000000; stroke-width: 0.8"/>
      </g>
     </g>
     <g id="text_14">
      <!-- DUGI RAT -->
      <g transform="translate(387.675394 398.327305) rotate(-45) scale(0.1 -0.1)">
       <use xlink:href="#DejaVuSans-44"/>
       <use xlink:href="#DejaVuSans-55" transform="translate(77.001953 0)"/>
       <use xlink:href="#DejaVuSans-47" transform="translate(150.195312 0)"/>
       <use xlink:href="#DejaVuSans-49" transform="translate(227.685547 0)"/>
       <use xlink:href="#DejaVuSans-20" transform="translate(257.177734 0)"/>
       <use xlink:href="#DejaVuSans-52" transform="translate(288.964844 0)"/>
       <use xlink:href="#DejaVuSans-41" transform="translate(354.447266 0)"/>
       <use xlink:href="#DejaVuSans-54" transform="translate(415.105469 0)"/>
      </g>
     </g>
    </g>
    <g id="xtick_15">
     <g id="line2d_15">
      <g>
       <use xlink:href="#m4fe33052f3" x="447.751638" y="352.283962" style="stroke: #000000; stroke-width: 0.8"/>
      </g>
     </g>
     <g id="text_15">
      <!-- VRBORAN -->
      <g transform="translate(411.47927 399.458676) rotate(-45) scale(0.1 -0.1)">
       <defs>
        <path id="DejaVuSans-42" d="M 1259 2228 
L 1259 519 
L 2272 519 
Q 2781 519 3026 730 
Q 3272 941 3272 1375 
Q 3272 1813 3026 2020 
Q 2781 2228 2272 2228 
L 1259 2228 
z
M 1259 4147 
L 1259 2741 
L 2194 2741 
Q 2656 2741 2882 2914 
Q 3109 3088 3109 3444 
Q 3109 3797 2882 3972 
Q 2656 4147 2194 4147 
L 1259 4147 
z
M 628 4666 
L 2241 4666 
Q 2963 4666 3353 4366 
Q 3744 4066 3744 3513 
Q 3744 3084 3544 2831 
Q 3344 2578 2956 2516 
Q 3422 2416 3680 2098 
Q 3938 1781 3938 1306 
Q 3938 681 3513 340 
Q 3088 0 2303 0 
L 628 0 
L 628 4666 
z
" transform="scale(0.015625)"/>
       </defs>
       <use xlink:href="#DejaVuSans-56"/>
       <use xlink:href="#DejaVuSans-52" transform="translate(68.408203 0)"/>
       <use xlink:href="#DejaVuSans-42" transform="translate(137.890625 0)"/>
       <use xlink:href="#DejaVuSans-4f" transform="translate(204.744141 0)"/>
       <use xlink:href="#DejaVuSans-52" transform="translate(283.455078 0)"/>
       <use xlink:href="#DejaVuSans-41" transform="translate(348.9375 0)"/>
       <use xlink:href="#DejaVuSans-4e" transform="translate(417.345703 0)"/>
      </g>
     </g>
    </g>
    <g id="xtick_16">
     <g id="line2d_16">
      <g>
       <use xlink:href="#m4fe33052f3" x="472.686884" y="352.283962" style="stroke: #000000; stroke-width: 0.8"/>
      </g>
     </g>
     <g id="text_16">
      <!-- SUĆIDAR -->
      <g transform="translate(439.457285 396.415907) rotate(-45) scale(0.1 -0.1)">
       <use xlink:href="#DejaVuSans-53"/>
       <use xlink:href="#DejaVuSans-55" transform="translate(63.476562 0)"/>
       <use xlink:href="#DejaVuSans-106" transform="translate(136.669922 0)"/>
       <use xlink:href="#DejaVuSans-49" transform="translate(206.494141 0)"/>
       <use xlink:href="#DejaVuSans-44" transform="translate(235.986328 0)"/>
       <use xlink:href="#DejaVuSans-41" transform="translate(311.238281 0)"/>
       <use xlink:href="#DejaVuSans-52" transform="translate(379.646484 0)"/>
      </g>
     </g>
    </g>
    <g id="xtick_17">
     <g id="line2d_17">
      <g>
       <use xlink:href="#m4fe33052f3" x="497.622131" y="352.283962" style="stroke: #000000; stroke-width: 0.8"/>
      </g>
     </g>
     <g id="text_17">
      <!-- DOBRI -->
      <g transform="translate(473.289923 387.518515) rotate(-45) scale(0.1 -0.1)">
       <use xlink:href="#DejaVuSans-44"/>
       <use xlink:href="#DejaVuSans-4f" transform="translate(77.001953 0)"/>
       <use xlink:href="#DejaVuSans-42" transform="translate(155.712891 0)"/>
       <use xlink:href="#DejaVuSans-52" transform="translate(224.316406 0)"/>
       <use xlink:href="#DejaVuSans-49" transform="translate(293.798828 0)"/>
      </g>
     </g>
    </g>
    <g id="xtick_18">
     <g id="line2d_18">
      <g>
       <use xlink:href="#m4fe33052f3" x="522.557377" y="352.283962" style="stroke: #000000; stroke-width: 0.8"/>
      </g>
     </g>
     <g id="text_18">
      <!-- PLOČE -->
      <g transform="translate(498.167717 387.575968) rotate(-45) scale(0.1 -0.1)">
       <use xlink:href="#DejaVuSans-50"/>
       <use xlink:href="#DejaVuSans-4c" transform="translate(60.302734 0)"/>
       <use xlink:href="#DejaVuSans-4f" transform="translate(112.390625 0)"/>
       <use xlink:href="#DejaVuSans-10c" transform="translate(191.101562 0)"/>
       <use xlink:href="#DejaVuSans-45" transform="translate(260.925781 0)"/>
      </g>
     </g>
    </g>
    <g id="xtick_19">
     <g id="line2d_19">
      <g>
       <use xlink:href="#m4fe33052f3" x="547.492623" y="352.283962" style="stroke: #000000; stroke-width: 0.8"/>
      </g>
     </g>
     <g id="text_19">
      <!-- VISOKA -->
      <g transform="translate(519.693383 390.985548) rotate(-45) scale(0.1 -0.1)">
       <use xlink:href="#DejaVuSans-56"/>
       <use xlink:href="#DejaVuSans-49" transform="translate(68.408203 0)"/>
       <use xlink:href="#DejaVuSans-53" transform="translate(97.900391 0)"/>
       <use xlink:href="#DejaVuSans-4f" transform="translate(161.376953 0)"/>
       <use xlink:href="#DejaVuSans-4b" transform="translate(240.087891 0)"/>
       <use xlink:href="#DejaVuSans-41" transform="translate(303.914062 0)"/>
      </g>
     </g>
    </g>
    <g id="xtick_20">
     <g id="line2d_20">
      <g>
       <use xlink:href="#m4fe33052f3" x="572.427869" y="352.283962" style="stroke: #000000; stroke-width: 0.8"/>
      </g>
     </g>
     <g id="text_20">
      <!-- ZAGVOZD -->
      <g transform="translate(535.353377 400.2608) rotate(-45) scale(0.1 -0.1)">
       <use xlink:href="#DejaVuSans-5a"/>
       <use xlink:href="#DejaVuSans-41" transform="translate(68.505859 0)"/>
       <use xlink:href="#DejaVuSans-47" transform="translate(135.164062 0)"/>
       <use xlink:href="#DejaVuSans-56" transform="translate(212.654297 0)"/>
       <use xlink:href="#DejaVuSans-4f" transform="translate(279.3125 0)"/>
       <use xlink:href="#DejaVuSans-5a" transform="translate(358.023438 0)"/>
       <use xlink:href="#DejaVuSans-44" transform="translate(426.529297 0)"/>
      </g>
     </g>
    </g>
    <g id="xtick_21">
     <g id="line2d_21">
      <g>
       <use xlink:href="#m4fe33052f3" x="597.363116" y="352.283962" style="stroke: #000000; stroke-width: 0.8"/>
      </g>
     </g>
     <g id="text_21">
      <!-- OBROVAC -->
      <g transform="translate(561.081909 399.467515) rotate(-45) scale(0.1 -0.1)">
       <use xlink:href="#DejaVuSans-4f"/>
       <use xlink:href="#DejaVuSans-42" transform="translate(78.710938 0)"/>
       <use xlink:href="#DejaVuSans-52" transform="translate(147.314453 0)"/>
       <use xlink:href="#DejaVuSans-4f" transform="translate(216.796875 0)"/>
       <use xlink:href="#DejaVuSans-56" transform="translate(293.757812 0)"/>
       <use xlink:href="#DejaVuSans-41" transform="translate(355.791016 0)"/>
       <use xlink:href="#DejaVuSans-43" transform="translate(422.449219 0)"/>
      </g>
     </g>
    </g>
    <g id="xtick_22">
     <g id="line2d_22">
      <g>
       <use xlink:href="#m4fe33052f3" x="622.298362" y="352.283962" style="stroke: #000000; stroke-width: 0.8"/>
      </g>
     </g>
     <g id="text_22">
      <!-- ZADAR -->
      <g transform="translate(596.075749 389.408921) rotate(-45) scale(0.1 -0.1)">
       <use xlink:href="#DejaVuSans-5a"/>
       <use xlink:href="#DejaVuSans-41" transform="translate(68.505859 0)"/>
       <use xlink:href="#DejaVuSans-44" transform="translate(136.914062 0)"/>
       <use xlink:href="#DejaVuSans-41" transform="translate(212.166016 0)"/>
       <use xlink:href="#DejaVuSans-52" transform="translate(280.574219 0)"/>
      </g>
     </g>
    </g>
    <g id="xtick_23">
     <g id="line2d_23">
      <g>
       <use xlink:href="#m4fe33052f3" x="647.233608" y="352.283962" style="stroke: #000000; stroke-width: 0.8"/>
      </g>
     </g>
     <g id="text_23">
      <!-- PAG -->
      <g transform="translate(631.757914 378.662003) rotate(-45) scale(0.1 -0.1)">
       <use xlink:href="#DejaVuSans-50"/>
       <use xlink:href="#DejaVuSans-41" transform="translate(53.927734 0)"/>
       <use xlink:href="#DejaVuSans-47" transform="translate(120.585938 0)"/>
      </g>
     </g>
    </g>
    <g id="xtick_24">
     <g id="line2d_24">
      <g>
       <use xlink:href="#m4fe33052f3" x="672.168855" y="352.283962" style="stroke: #000000; stroke-width: 0.8"/>
      </g>
     </g>
     <g id="text_24">
      <!-- BENKOVAC -->
      <g transform="translate(632.360953 402.99421) rotate(-45) scale(0.1 -0.1)">
       <use xlink:href="#DejaVuSans-42"/>
       <use xlink:href="#DejaVuSans-45" transform="translate(68.603516 0)"/>
       <use xlink:href="#DejaVuSans-4e" transform="translate(131.787109 0)"/>
       <use xlink:href="#DejaVuSans-4b" transform="translate(206.591797 0)"/>
       <use xlink:href="#DejaVuSans-4f" transform="translate(266.667969 0)"/>
       <use xlink:href="#DejaVuSans-56" transform="translate(343.628906 0)"/>
       <use xlink:href="#DejaVuSans-41" transform="translate(405.662109 0)"/>
       <use xlink:href="#DejaVuSans-43" transform="translate(472.320312 0)"/>
      </g>
     </g>
    </g>
    <g id="xtick_25">
     <g id="line2d_25">
      <g>
       <use xlink:href="#m4fe33052f3" x="697.104101" y="352.283962" style="stroke: #000000; stroke-width: 0.8"/>
      </g>
     </g>
     <g id="text_25">
      <!-- ZADAR CENTAR -->
      <g transform="translate(640.417339 419.87307) rotate(-45) scale(0.1 -0.1)">
       <use xlink:href="#DejaVuSans-5a"/>
       <use xlink:href="#DejaVuSans-41" transform="translate(68.505859 0)"/>
       <use xlink:href="#DejaVuSans-44" transform="translate(136.914062 0)"/>
       <use xlink:href="#DejaVuSans-41" transform="translate(212.166016 0)"/>
       <use xlink:href="#DejaVuSans-52" transform="translate(280.574219 0)"/>
       <use xlink:href="#DejaVuSans-20" transform="translate(350.056641 0)"/>
       <use xlink:href="#DejaVuSans-43" transform="translate(381.84375 0)"/>
       <use xlink:href="#DejaVuSans-45" transform="translate(451.667969 0)"/>
       <use xlink:href="#DejaVuSans-4e" transform="translate(514.851562 0)"/>
       <use xlink:href="#DejaVuSans-54" transform="translate(589.65625 0)"/>
       <use xlink:href="#DejaVuSans-41" transform="translate(642.990234 0)"/>
       <use xlink:href="#DejaVuSans-52" transform="translate(711.398438 0)"/>
      </g>
     </g>
    </g>
    <g id="xtick_26">
     <g id="line2d_26">
      <g>
       <use xlink:href="#m4fe33052f3" x="722.039347" y="352.283962" style="stroke: #000000; stroke-width: 0.8"/>
      </g>
     </g>
     <g id="text_26">
      <!-- BIOGRAD -->
      <g transform="translate(687.673958 397.551698) rotate(-45) scale(0.1 -0.1)">
       <use xlink:href="#DejaVuSans-42"/>
       <use xlink:href="#DejaVuSans-49" transform="translate(68.603516 0)"/>
       <use xlink:href="#DejaVuSans-4f" transform="translate(98.095703 0)"/>
       <use xlink:href="#DejaVuSans-47" transform="translate(176.806641 0)"/>
       <use xlink:href="#DejaVuSans-52" transform="translate(254.296875 0)"/>
       <use xlink:href="#DejaVuSans-41" transform="translate(319.779297 0)"/>
       <use xlink:href="#DejaVuSans-44" transform="translate(388.1875 0)"/>
      </g>
     </g>
    </g>
    <g id="xtick_27">
     <g id="line2d_27">
      <g>
       <use xlink:href="#m4fe33052f3" x="746.974594" y="352.283962" style="stroke: #000000; stroke-width: 0.8"/>
      </g>
     </g>
     <g id="text_27">
      <!-- ZADAR ISTOK -->
      <g transform="translate(697.407513 412.753389) rotate(-45) scale(0.1 -0.1)">
       <use xlink:href="#DejaVuSans-5a"/>
       <use xlink:href="#DejaVuSans-41" transform="translate(68.505859 0)"/>
       <use xlink:href="#DejaVuSans-44" transform="translate(136.914062 0)"/>
       <use xlink:href="#DejaVuSans-41" transform="translate(212.166016 0)"/>
       <use xlink:href="#DejaVuSans-52" transform="translate(280.574219 0)"/>
       <use xlink:href="#DejaVuSans-20" transform="translate(350.056641 0)"/>
       <use xlink:href="#DejaVuSans-49" transform="translate(381.84375 0)"/>
       <use xlink:href="#DejaVuSans-53" transform="translate(411.335938 0)"/>
       <use xlink:href="#DejaVuSans-54" transform="translate(474.8125 0)"/>
       <use xlink:href="#DejaVuSans-4f" transform="translate(535.896484 0)"/>
       <use xlink:href="#DejaVuSans-4b" transform="translate(614.607422 0)"/>
      </g>
     </g>
    </g>
    <g id="xtick_28">
     <g id="line2d_28">
      <g>
       <use xlink:href="#m4fe33052f3" x="771.90984" y="352.283962" style="stroke: #000000; stroke-width: 0.8"/>
      </g>
     </g>
     <g id="text_28">
      <!-- NIN -->
      <g transform="translate(757.773229 377.322919) rotate(-45) scale(0.1 -0.1)">
       <use xlink:href="#DejaVuSans-4e"/>
       <use xlink:href="#DejaVuSans-49" transform="translate(74.804688 0)"/>
       <use xlink:href="#DejaVuSans-4e" transform="translate(104.296875 0)"/>
      </g>
     </g>
    </g>
    <g id="xtick_29">
     <g id="line2d_29">
      <g>
       <use xlink:href="#m4fe33052f3" x="796.845086" y="352.283962" style="stroke: #000000; stroke-width: 0.8"/>
      </g>
     </g>
     <g id="text_29">
      <!-- BILICE -->
      <g transform="translate(773.005644 387.02575) rotate(-45) scale(0.1 -0.1)">
       <use xlink:href="#DejaVuSans-42"/>
       <use xlink:href="#DejaVuSans-49" transform="translate(68.603516 0)"/>
       <use xlink:href="#DejaVuSans-4c" transform="translate(98.095703 0)"/>
       <use xlink:href="#DejaVuSans-49" transform="translate(153.808594 0)"/>
       <use xlink:href="#DejaVuSans-43" transform="translate(183.300781 0)"/>
       <use xlink:href="#DejaVuSans-45" transform="translate(253.125 0)"/>
      </g>
     </g>
    </g>
    <g id="xtick_30">
     <g id="line2d_30">
      <g>
       <use xlink:href="#m4fe33052f3" x="821.780333" y="352.283962" style="stroke: #000000; stroke-width: 0.8"/>
      </g>
     </g>
     <g id="text_30">
      <!-- KNIN -->
      <g transform="translate(803.006648 381.959993) rotate(-45) scale(0.1 -0.1)">
       <use xlink:href="#DejaVuSans-4b"/>
       <use xlink:href="#DejaVuSans-4e" transform="translate(65.576172 0)"/>
       <use xlink:href="#DejaVuSans-49" transform="translate(140.380859 0)"/>
       <use xlink:href="#DejaVuSans-4e" transform="translate(169.873047 0)"/>
      </g>
     </g>
    </g>
    <g id="xtick_31">
     <g id="line2d_31">
      <g>
       <use xlink:href="#m4fe33052f3" x="846.715579" y="352.283962" style="stroke: #000000; stroke-width: 0.8"/>
      </g>
     </g>
     <g id="text_31">
      <!-- DRNIŠ -->
      <g transform="translate(823.021978 386.879909) rotate(-45) scale(0.1 -0.1)">
       <use xlink:href="#DejaVuSans-44"/>
       <use xlink:href="#DejaVuSans-52" transform="translate(77.001953 0)"/>
       <use xlink:href="#DejaVuSans-4e" transform="translate(146.484375 0)"/>
       <use xlink:href="#DejaVuSans-49" transform="translate(221.289062 0)"/>
       <use xlink:href="#DejaVuSans-160" transform="translate(250.78125 0)"/>
      </g>
     </g>
    </g>
    <g id="xtick_32">
     <g id="line2d_32">
      <g>
       <use xlink:href="#m4fe33052f3" x="871.650825" y="352.283962" style="stroke: #000000; stroke-width: 0.8"/>
      </g>
     </g>
     <g id="text_32">
      <!-- PLAT -->
      <g transform="translate(853.209701 381.627432) rotate(-45) scale(0.1 -0.1)">
       <use xlink:href="#DejaVuSans-50"/>
       <use xlink:href="#DejaVuSans-4c" transform="translate(60.302734 0)"/>
       <use xlink:href="#DejaVuSans-41" transform="translate(118.265625 0)"/>
       <use xlink:href="#DejaVuSans-54" transform="translate(178.923828 0)"/>
      </g>
     </g>
    </g>
    <g id="xtick_33">
     <g id="line2d_33">
      <g>
       <use xlink:href="#m4fe33052f3" x="896.586072" y="352.283962" style="stroke: #000000; stroke-width: 0.8"/>
      </g>
     </g>
     <g id="text_33">
      <!-- BLATO -->
      <g transform="translate(871.990909 387.781471) rotate(-45) scale(0.1 -0.1)">
       <use xlink:href="#DejaVuSans-42"/>
       <use xlink:href="#DejaVuSans-4c" transform="translate(68.603516 0)"/>
       <use xlink:href="#DejaVuSans-41" transform="translate(126.566406 0)"/>
       <use xlink:href="#DejaVuSans-54" transform="translate(187.224609 0)"/>
       <use xlink:href="#DejaVuSans-4f" transform="translate(248.308594 0)"/>
      </g>
     </g>
    </g>
    <g id="xtick_34">
     <g id="line2d_34">
      <g>
       <use xlink:href="#m4fe33052f3" x="921.521318" y="352.283962" style="stroke: #000000; stroke-width: 0.8"/>
      </g>
     </g>
     <g id="text_34">
      <!-- SRĐ -->
      <g transform="translate(905.169474 379.538152) rotate(-45) scale(0.1 -0.1)">
       <defs>
        <path id="DejaVuSans-110" d="M 659 4666 
L 1959 4666 
Q 3313 4666 3947 4102 
Q 4581 3538 4581 2338 
Q 4581 1131 3945 565 
Q 3309 0 1959 0 
L 659 0 
L 659 2188 
L 31 2188 
L 31 2638 
L 659 2638 
L 659 4666 
z
M 1294 4147 
L 1294 2638 
L 2344 2638 
L 2344 2188 
L 1294 2188 
L 1294 519 
L 2053 519 
Q 3019 519 3467 956 
Q 3916 1394 3916 2338 
Q 3916 3275 3467 3711 
Q 3019 4147 2053 4147 
L 1294 4147 
z
" transform="scale(0.015625)"/>
       </defs>
       <use xlink:href="#DejaVuSans-53"/>
       <use xlink:href="#DejaVuSans-52" transform="translate(63.476562 0)"/>
       <use xlink:href="#DejaVuSans-110" transform="translate(132.958984 0)"/>
      </g>
     </g>
    </g>
    <g id="xtick_35">
     <g id="line2d_35">
      <g>
       <use xlink:href="#m4fe33052f3" x="946.456564" y="352.283962" style="stroke: #000000; stroke-width: 0.8"/>
      </g>
     </g>
     <g id="text_35">
      <!-- KOMOLAC -->
      <g transform="translate(909.754408 399.888465) rotate(-45) scale(0.1 -0.1)">
       <use xlink:href="#DejaVuSans-4b"/>
       <use xlink:href="#DejaVuSans-4f" transform="translate(60.076172 0)"/>
       <use xlink:href="#DejaVuSans-4d" transform="translate(138.787109 0)"/>
       <use xlink:href="#DejaVuSans-4f" transform="translate(225.066406 0)"/>
       <use xlink:href="#DejaVuSans-4c" transform="translate(303.777344 0)"/>
       <use xlink:href="#DejaVuSans-41" transform="translate(361.740234 0)"/>
       <use xlink:href="#DejaVuSans-43" transform="translate(428.398438 0)"/>
      </g>
     </g>
    </g>
    <g id="xtick_36">
     <g id="line2d_36">
      <g>
       <use xlink:href="#m4fe33052f3" x="971.391811" y="352.283962" style="stroke: #000000; stroke-width: 0.8"/>
      </g>
     </g>
     <g id="text_36">
      <!-- STON -->
      <g transform="translate(950.257052 384.321067) rotate(-45) scale(0.1 -0.1)">
       <use xlink:href="#DejaVuSans-53"/>
       <use xlink:href="#DejaVuSans-54" transform="translate(63.476562 0)"/>
       <use xlink:href="#DejaVuSans-4f" transform="translate(124.560547 0)"/>
       <use xlink:href="#DejaVuSans-4e" transform="translate(203.271484 0)"/>
      </g>
     </g>
    </g>
   </g>
   <g id="matplotlib.axis_2">
    <g id="ytick_1">
     <g id="line2d_37">
      <path d="M 44.05 352.283962 
L 1026 352.283962 
" clip-path="url(#p31cac4805b)" style="fill: none; stroke: #b0b0b0; stroke-width: 0.8; stroke-linecap: square"/>
     </g>
     <g id="line2d_38">
      <defs>
       <path id="m9d4f89eacb" d="M 0 0 
L -3.5 0 
" style="stroke: #000000; stroke-width: 0.8"/>
      </defs>
      <g>
       <use xlink:href="#m9d4f89eacb" x="44.05" y="352.283962" style="stroke: #000000; stroke-width: 0.8"/>
      </g>
     </g>
     <g id="text_37">
      <!-- 0 -->
      <g transform="translate(30.6875 356.083181) scale(0.1 -0.1)">
       <defs>
        <path id="DejaVuSans-30" d="M 2034 4250 
Q 1547 4250 1301 3770 
Q 1056 3291 1056 2328 
Q 1056 1369 1301 889 
Q 1547 409 2034 409 
Q 2525 409 2770 889 
Q 3016 1369 3016 2328 
Q 3016 3291 2770 3770 
Q 2525 4250 2034 4250 
z
M 2034 4750 
Q 2819 4750 3233 4129 
Q 3647 3509 3647 2328 
Q 3647 1150 3233 529 
Q 2819 -91 2034 -91 
Q 1250 -91 836 529 
Q 422 1150 422 2328 
Q 422 3509 836 4129 
Q 1250 4750 2034 4750 
z
" transform="scale(0.015625)"/>
       </defs>
       <use xlink:href="#DejaVuSans-30"/>
      </g>
     </g>
    </g>
    <g id="ytick_2">
     <g id="line2d_39">
      <path d="M 44.05 292.375177 
L 1026 292.375177 
" clip-path="url(#p31cac4805b)" style="fill: none; stroke: #b0b0b0; stroke-width: 0.8; stroke-linecap: square"/>
     </g>
     <g id="line2d_40">
      <g>
       <use xlink:href="#m9d4f89eacb" x="44.05" y="292.375177" style="stroke: #000000; stroke-width: 0.8"/>
      </g>
     </g>
     <g id="text_38">
      <!-- 10 -->
      <g transform="translate(24.325 296.174396) scale(0.1 -0.1)">
       <defs>
        <path id="DejaVuSans-31" d="M 794 531 
L 1825 531 
L 1825 4091 
L 703 3866 
L 703 4441 
L 1819 4666 
L 2450 4666 
L 2450 531 
L 3481 531 
L 3481 0 
L 794 0 
L 794 531 
z
" transform="scale(0.015625)"/>
       </defs>
       <use xlink:href="#DejaVuSans-31"/>
       <use xlink:href="#DejaVuSans-30" transform="translate(63.623047 0)"/>
      </g>
     </g>
    </g>
    <g id="ytick_3">
     <g id="line2d_41">
      <path d="M 44.05 232.466392 
L 1026 232.466392 
" clip-path="url(#p31cac4805b)" style="fill: none; stroke: #b0b0b0; stroke-width: 0.8; stroke-linecap: square"/>
     </g>
     <g id="line2d_42">
      <g>
       <use xlink:href="#m9d4f89eacb" x="44.05" y="232.466392" style="stroke: #000000; stroke-width: 0.8"/>
      </g>
     </g>
     <g id="text_39">
      <!-- 20 -->
      <g transform="translate(24.325 236.265611) scale(0.1 -0.1)">
       <defs>
        <path id="DejaVuSans-32" d="M 1228 531 
L 3431 531 
L 3431 0 
L 469 0 
L 469 531 
Q 828 903 1448 1529 
Q 2069 2156 2228 2338 
Q 2531 2678 2651 2914 
Q 2772 3150 2772 3378 
Q 2772 3750 2511 3984 
Q 2250 4219 1831 4219 
Q 1534 4219 1204 4116 
Q 875 4013 500 3803 
L 500 4441 
Q 881 4594 1212 4672 
Q 1544 4750 1819 4750 
Q 2544 4750 2975 4387 
Q 3406 4025 3406 3419 
Q 3406 3131 3298 2873 
Q 3191 2616 2906 2266 
Q 2828 2175 2409 1742 
Q 1991 1309 1228 531 
z
" transform="scale(0.015625)"/>
       </defs>
       <use xlink:href="#DejaVuSans-32"/>
       <use xlink:href="#DejaVuSans-30" transform="translate(63.623047 0)"/>
      </g>
     </g>
    </g>
    <g id="ytick_4">
     <g id="line2d_43">
      <path d="M 44.05 172.557607 
L 1026 172.557607 
" clip-path="url(#p31cac4805b)" style="fill: none; stroke: #b0b0b0; stroke-width: 0.8; stroke-linecap: square"/>
     </g>
     <g id="line2d_44">
      <g>
       <use xlink:href="#m9d4f89eacb" x="44.05" y="172.557607" style="stroke: #000000; stroke-width: 0.8"/>
      </g>
     </g>
     <g id="text_40">
      <!-- 30 -->
      <g transform="translate(24.325 176.356826) scale(0.1 -0.1)">
       <defs>
        <path id="DejaVuSans-33" d="M 2597 2516 
Q 3050 2419 3304 2112 
Q 3559 1806 3559 1356 
Q 3559 666 3084 287 
Q 2609 -91 1734 -91 
Q 1441 -91 1130 -33 
Q 819 25 488 141 
L 488 750 
Q 750 597 1062 519 
Q 1375 441 1716 441 
Q 2309 441 2620 675 
Q 2931 909 2931 1356 
Q 2931 1769 2642 2001 
Q 2353 2234 1838 2234 
L 1294 2234 
L 1294 2753 
L 1863 2753 
Q 2328 2753 2575 2939 
Q 2822 3125 2822 3475 
Q 2822 3834 2567 4026 
Q 2313 4219 1838 4219 
Q 1578 4219 1281 4162 
Q 984 4106 628 3988 
L 628 4550 
Q 988 4650 1302 4700 
Q 1616 4750 1894 4750 
Q 2613 4750 3031 4423 
Q 3450 4097 3450 3541 
Q 3450 3153 3228 2886 
Q 3006 2619 2597 2516 
z
" transform="scale(0.015625)"/>
       </defs>
       <use xlink:href="#DejaVuSans-33"/>
       <use xlink:href="#DejaVuSans-30" transform="translate(63.623047 0)"/>
      </g>
     </g>
    </g>
    <g id="ytick_5">
     <g id="line2d_45">
      <path d="M 44.05 112.648822 
L 1026 112.648822 
" clip-path="url(#p31cac4805b)" style="fill: none; stroke: #b0b0b0; stroke-width: 0.8; stroke-linecap: square"/>
     </g>
     <g id="line2d_46">
      <g>
       <use xlink:href="#m9d4f89eacb" x="44.05" y="112.648822" style="stroke: #000000; stroke-width: 0.8"/>
      </g>
     </g>
     <g id="text_41">
      <!-- 40 -->
      <g transform="translate(24.325 116.448041) scale(0.1 -0.1)">
       <defs>
        <path id="DejaVuSans-34" d="M 2419 4116 
L 825 1625 
L 2419 1625 
L 2419 4116 
z
M 2253 4666 
L 3047 4666 
L 3047 1625 
L 3713 1625 
L 3713 1100 
L 3047 1100 
L 3047 0 
L 2419 0 
L 2419 1100 
L 313 1100 
L 313 1709 
L 2253 4666 
z
" transform="scale(0.015625)"/>
       </defs>
       <use xlink:href="#DejaVuSans-34"/>
       <use xlink:href="#DejaVuSans-30" transform="translate(63.623047 0)"/>
      </g>
     </g>
    </g>
    <g id="ytick_6">
     <g id="line2d_47">
      <path d="M 44.05 52.740037 
L 1026 52.740037 
" clip-path="url(#p31cac4805b)" style="fill: none; stroke: #b0b0b0; stroke-width: 0.8; stroke-linecap: square"/>
     </g>
     <g id="line2d_48">
      <g>
       <use xlink:href="#m9d4f89eacb" x="44.05" y="52.740037" style="stroke: #000000; stroke-width: 0.8"/>
      </g>
     </g>
     <g id="text_42">
      <!-- 50 -->
      <g transform="translate(24.325 56.539256) scale(0.1 -0.1)">
       <defs>
        <path id="DejaVuSans-35" d="M 691 4666 
L 3169 4666 
L 3169 4134 
L 1269 4134 
L 1269 2991 
Q 1406 3038 1543 3061 
Q 1681 3084 1819 3084 
Q 2600 3084 3056 2656 
Q 3513 2228 3513 1497 
Q 3513 744 3044 326 
Q 2575 -91 1722 -91 
Q 1428 -91 1123 -41 
Q 819 9 494 109 
L 494 744 
Q 775 591 1075 516 
Q 1375 441 1709 441 
Q 2250 441 2565 725 
Q 2881 1009 2881 1497 
Q 2881 1984 2565 2268 
Q 2250 2553 1709 2553 
Q 1456 2553 1204 2497 
Q 953 2441 691 2322 
L 691 4666 
z
" transform="scale(0.015625)"/>
       </defs>
       <use xlink:href="#DejaVuSans-35"/>
       <use xlink:href="#DejaVuSans-30" transform="translate(63.623047 0)"/>
      </g>
     </g>
    </g>
    <g id="text_43">
     <!-- Instalirana snaga [MW] -->
     <g transform="translate(18.245312 247.483387) rotate(-90) scale(0.1 -0.1)">
      <defs>
       <path id="DejaVuSans-6e" d="M 3513 2113 
L 3513 0 
L 2938 0 
L 2938 2094 
Q 2938 2591 2744 2837 
Q 2550 3084 2163 3084 
Q 1697 3084 1428 2787 
Q 1159 2491 1159 1978 
L 1159 0 
L 581 0 
L 581 3500 
L 1159 3500 
L 1159 2956 
Q 1366 3272 1645 3428 
Q 1925 3584 2291 3584 
Q 2894 3584 3203 3211 
Q 3513 2838 3513 2113 
z
" transform="scale(0.015625)"/>
       <path id="DejaVuSans-73" d="M 2834 3397 
L 2834 2853 
Q 2591 2978 2328 3040 
Q 2066 3103 1784 3103 
Q 1356 3103 1142 2972 
Q 928 2841 928 2578 
Q 928 2378 1081 2264 
Q 1234 2150 1697 2047 
L 1894 2003 
Q 2506 1872 2764 1633 
Q 3022 1394 3022 966 
Q 3022 478 2636 193 
Q 2250 -91 1575 -91 
Q 1294 -91 989 -36 
Q 684 19 347 128 
L 347 722 
Q 666 556 975 473 
Q 1284 391 1588 391 
Q 1994 391 2212 530 
Q 2431 669 2431 922 
Q 2431 1156 2273 1281 
Q 2116 1406 1581 1522 
L 1381 1569 
Q 847 1681 609 1914 
Q 372 2147 372 2553 
Q 372 3047 722 3315 
Q 1072 3584 1716 3584 
Q 2034 3584 2315 3537 
Q 2597 3491 2834 3397 
z
" transform="scale(0.015625)"/>
       <path id="DejaVuSans-74" d="M 1172 4494 
L 1172 3500 
L 2356 3500 
L 2356 3053 
L 1172 3053 
L 1172 1153 
Q 1172 725 1289 603 
Q 1406 481 1766 481 
L 2356 481 
L 2356 0 
L 1766 0 
Q 1100 0 847 248 
Q 594 497 594 1153 
L 594 3053 
L 172 3053 
L 172 3500 
L 594 3500 
L 594 4494 
L 1172 4494 
z
" transform="scale(0.015625)"/>
       <path id="DejaVuSans-61" d="M 2194 1759 
Q 1497 1759 1228 1600 
Q 959 1441 959 1056 
Q 959 750 1161 570 
Q 1363 391 1709 391 
Q 2188 391 2477 730 
Q 2766 1069 2766 1631 
L 2766 1759 
L 2194 1759 
z
M 3341 1997 
L 3341 0 
L 2766 0 
L 2766 531 
Q 2569 213 2275 61 
Q 1981 -91 1556 -91 
Q 1019 -91 701 211 
Q 384 513 384 1019 
Q 384 1609 779 1909 
Q 1175 2209 1959 2209 
L 2766 2209 
L 2766 2266 
Q 2766 2663 2505 2880 
Q 2244 3097 1772 3097 
Q 1472 3097 1187 3025 
Q 903 2953 641 2809 
L 641 3341 
Q 956 3463 1253 3523 
Q 1550 3584 1831 3584 
Q 2591 3584 2966 3190 
Q 3341 2797 3341 1997 
z
" transform="scale(0.015625)"/>
       <path id="DejaVuSans-6c" d="M 603 4863 
L 1178 4863 
L 1178 0 
L 603 0 
L 603 4863 
z
" transform="scale(0.015625)"/>
       <path id="DejaVuSans-69" d="M 603 3500 
L 1178 3500 
L 1178 0 
L 603 0 
L 603 3500 
z
M 603 4863 
L 1178 4863 
L 1178 4134 
L 603 4134 
L 603 4863 
z
" transform="scale(0.015625)"/>
       <path id="DejaVuSans-72" d="M 2631 2963 
Q 2534 3019 2420 3045 
Q 2306 3072 2169 3072 
Q 1681 3072 1420 2755 
Q 1159 2438 1159 1844 
L 1159 0 
L 581 0 
L 581 3500 
L 1159 3500 
L 1159 2956 
Q 1341 3275 1631 3429 
Q 1922 3584 2338 3584 
Q 2397 3584 2469 3576 
Q 2541 3569 2628 3553 
L 2631 2963 
z
" transform="scale(0.015625)"/>
       <path id="DejaVuSans-67" d="M 2906 1791 
Q 2906 2416 2648 2759 
Q 2391 3103 1925 3103 
Q 1463 3103 1205 2759 
Q 947 2416 947 1791 
Q 947 1169 1205 825 
Q 1463 481 1925 481 
Q 2391 481 2648 825 
Q 2906 1169 2906 1791 
z
M 3481 434 
Q 3481 -459 3084 -895 
Q 2688 -1331 1869 -1331 
Q 1566 -1331 1297 -1286 
Q 1028 -1241 775 -1147 
L 775 -588 
Q 1028 -725 1275 -790 
Q 1522 -856 1778 -856 
Q 2344 -856 2625 -561 
Q 2906 -266 2906 331 
L 2906 616 
Q 2728 306 2450 153 
Q 2172 0 1784 0 
Q 1141 0 747 490 
Q 353 981 353 1791 
Q 353 2603 747 3093 
Q 1141 3584 1784 3584 
Q 2172 3584 2450 3431 
Q 2728 3278 2906 2969 
L 2906 3500 
L 3481 3500 
L 3481 434 
z
" transform="scale(0.015625)"/>
       <path id="DejaVuSans-5b" d="M 550 4863 
L 1875 4863 
L 1875 4416 
L 1125 4416 
L 1125 -397 
L 1875 -397 
L 1875 -844 
L 550 -844 
L 550 4863 
z
" transform="scale(0.015625)"/>
       <path id="DejaVuSans-57" d="M 213 4666 
L 850 4666 
L 1831 722 
L 2809 4666 
L 3519 4666 
L 4500 722 
L 5478 4666 
L 6119 4666 
L 4947 0 
L 4153 0 
L 3169 4050 
L 2175 0 
L 1381 0 
L 213 4666 
z
" transform="scale(0.015625)"/>
       <path id="DejaVuSans-5d" d="M 1947 4863 
L 1947 -844 
L 622 -844 
L 622 -397 
L 1369 -397 
L 1369 4416 
L 622 4416 
L 622 4863 
L 1947 4863 
z
" transform="scale(0.015625)"/>
      </defs>
      <use xlink:href="#DejaVuSans-49"/>
      <use xlink:href="#DejaVuSans-6e" transform="translate(29.492188 0)"/>
      <use xlink:href="#DejaVuSans-73" transform="translate(92.871094 0)"/>
      <use xlink:href="#DejaVuSans-74" transform="translate(144.970703 0)"/>
      <use xlink:href="#DejaVuSans-61" transform="translate(184.179688 0)"/>
      <use xlink:href="#DejaVuSans-6c" transform="translate(245.458984 0)"/>
      <use xlink:href="#DejaVuSans-69" transform="translate(273.242188 0)"/>
      <use xlink:href="#DejaVuSans-72" transform="translate(301.025391 0)"/>
      <use xlink:href="#DejaVuSans-61" transform="translate(342.138672 0)"/>
      <use xlink:href="#DejaVuSans-6e" transform="translate(403.417969 0)"/>
      <use xlink:href="#DejaVuSans-61" transform="translate(466.796875 0)"/>
      <use xlink:href="#DejaVuSans-20" transform="translate(528.076172 0)"/>
      <use xlink:href="#DejaVuSans-73" transform="translate(559.863281 0)"/>
      <use xlink:href="#DejaVuSans-6e" transform="translate(611.962891 0)"/>
      <use xlink:href="#DejaVuSans-61" transform="translate(675.341797 0)"/>
      <use xlink:href="#DejaVuSans-67" transform="translate(736.621094 0)"/>
      <use xlink:href="#DejaVuSans-61" transform="translate(800.097656 0)"/>
      <use xlink:href="#DejaVuSans-20" transform="translate(861.376953 0)"/>
      <use xlink:href="#DejaVuSans-5b" transform="translate(893.164062 0)"/>
      <use xlink:href="#DejaVuSans-4d" transform="translate(932.177734 0)"/>
      <use xlink:href="#DejaVuSans-57" transform="translate(1018.457031 0)"/>
      <use xlink:href="#DejaVuSans-5d" transform="translate(1117.333984 0)"/>
     </g>
    </g>
   </g>
   <g id="patch_3">
    <path d="M 88.684091 352.283962 
L 108.632288 352.283962 
L 108.632288 255.476159 
L 88.684091 255.476159 
z
" clip-path="url(#p31cac4805b)" style="fill: #1f77b4"/>
   </g>
   <g id="patch_4">
    <path d="M 113.619337 352.283962 
L 133.567534 352.283962 
L 133.567534 297.337782 
L 113.619337 297.337782 
z
" clip-path="url(#p31cac4805b)" style="fill: #1f77b4"/>
   </g>
   <g id="patch_5">
    <path d="M 138.554584 352.283962 
L 158.502781 352.283962 
L 158.502781 311.569772 
L 138.554584 311.569772 
z
" clip-path="url(#p31cac4805b)" style="fill: #1f77b4"/>
   </g>
   <g id="patch_6">
    <path d="M 163.48983 352.283962 
L 183.438027 352.283962 
L 183.438027 323.541165 
L 163.48983 323.541165 
z
" clip-path="url(#p31cac4805b)" style="fill: #1f77b4"/>
   </g>
   <g id="patch_7">
    <path d="M 188.425076 352.283962 
L 208.373273 352.283962 
L 208.373273 327.480707 
L 188.425076 327.480707 
z
" clip-path="url(#p31cac4805b)" style="fill: #1f77b4"/>
   </g>
   <g id="patch_8">
    <path d="M 213.360322 352.283962 
L 233.30852 352.283962 
L 233.30852 329.753886 
L 213.360322 329.753886 
z
" clip-path="url(#p31cac4805b)" style="fill: #1f77b4"/>
   </g>
   <g id="patch_9">
    <path d="M 238.295569 352.283962 
L 258.243766 352.283962 
L 258.243766 332.051208 
L 238.295569 332.051208 
z
" clip-path="url(#p31cac4805b)" style="fill: #1f77b4"/>
   </g>
   <g id="patch_10">
    <path d="M 263.230815 352.283962 
L 283.179012 352.283962 
L 283.179012 332.648918 
L 263.230815 332.648918 
z
" clip-path="url(#p31cac4805b)" style="fill: #1f77b4"/>
   </g>
   <g id="patch_11">
    <path d="M 288.166061 352.283962 
L 308.114259 352.283962 
L 308.114259 334.054678 
L 288.166061 334.054678 
z
" clip-path="url(#p31cac4805b)" style="fill: #1f77b4"/>
   </g>
   <g id="patch_12">
    <path d="M 313.101308 352.283962 
L 333.049505 352.283962 
L 333.049505 334.320104 
L 313.101308 334.320104 
z
" clip-path="url(#p31cac4805b)" style="fill: #1f77b4"/>
   </g>
   <g id="patch_13">
    <path d="M 338.036554 352.283962 
L 357.984751 352.283962 
L 357.984751 334.685577 
L 338.036554 334.685577 
z
" clip-path="url(#p31cac4805b)" style="fill: #1f77b4"/>
   </g>
   <g id="patch_14">
    <path d="M 362.9718 352.283962 
L 382.919997 352.283962 
L 382.919997 336.271063 
L 362.9718 336.271063 
z
" clip-path="url(#p31cac4805b)" style="fill: #1f77b4"/>
   </g>
   <g id="patch_15">
    <path d="M 387.907047 352.283962 
L 407.855244 352.283962 
L 407.855244 340.723244 
L 387.907047 340.723244 
z
" clip-path="url(#p31cac4805b)" style="fill: #1f77b4"/>
   </g>
   <g id="patch_16">
    <path d="M 412.842293 352.283962 
L 432.79049 352.283962 
L 432.79049 341.973661 
L 412.842293 341.973661 
z
" clip-path="url(#p31cac4805b)" style="fill: #1f77b4"/>
   </g>
   <g id="patch_17">
    <path d="M 437.777539 352.283962 
L 457.725736 352.283962 
L 457.725736 341.997744 
L 437.777539 341.997744 
z
" clip-path="url(#p31cac4805b)" style="fill: #1f77b4"/>
   </g>
   <g id="patch_18">
    <path d="M 462.712786 352.283962 
L 482.660983 352.283962 
L 482.660983 343.424532 
L 462.712786 343.424532 
z
" clip-path="url(#p31cac4805b)" style="fill: #1f77b4"/>
   </g>
   <g id="patch_19">
    <path d="M 487.648032 352.283962 
L 507.596229 352.283962 
L 507.596229 343.814658 
L 487.648032 343.814658 
z
" clip-path="url(#p31cac4805b)" style="fill: #1f77b4"/>
   </g>
   <g id="patch_20">
    <path d="M 512.583278 352.283962 
L 532.531475 352.283962 
L 532.531475 345.742462 
L 512.583278 345.742462 
z
" clip-path="url(#p31cac4805b)" style="fill: #1f77b4"/>
   </g>
   <g id="patch_21">
    <path d="M 537.518525 352.283962 
L 557.466722 352.283962 
L 557.466722 348.537627 
L 537.518525 348.537627 
z
" clip-path="url(#p31cac4805b)" style="fill: #1f77b4"/>
   </g>
   <g id="patch_22">
    <path d="M 562.453771 352.283962 
L 582.401968 352.283962 
L 582.401968 348.935481 
L 562.453771 348.935481 
z
" clip-path="url(#p31cac4805b)" style="fill: #1f77b4"/>
   </g>
   <g id="patch_23">
    <path d="M 587.389017 352.283962 
L 607.337214 352.283962 
L 607.337214 288.560905 
L 587.389017 288.560905 
z
" clip-path="url(#p31cac4805b)" style="fill: #aec7e8"/>
   </g>
   <g id="patch_24">
    <path d="M 612.324264 352.283962 
L 632.272461 352.283962 
L 632.272461 302.265099 
L 612.324264 302.265099 
z
" clip-path="url(#p31cac4805b)" style="fill: #aec7e8"/>
   </g>
   <g id="patch_25">
    <path d="M 637.25951 352.283962 
L 657.207707 352.283962 
L 657.207707 307.25598 
L 637.25951 307.25598 
z
" clip-path="url(#p31cac4805b)" style="fill: #aec7e8"/>
   </g>
   <g id="patch_26">
    <path d="M 662.194756 352.283962 
L 682.142953 352.283962 
L 682.142953 308.785092 
L 662.194756 308.785092 
z
" clip-path="url(#p31cac4805b)" style="fill: #aec7e8"/>
   </g>
   <g id="patch_27">
    <path d="M 687.130003 352.283962 
L 707.0782 352.283962 
L 707.0782 328.971238 
L 687.130003 328.971238 
z
" clip-path="url(#p31cac4805b)" style="fill: #aec7e8"/>
   </g>
   <g id="patch_28">
    <path d="M 712.065249 352.283962 
L 732.013446 352.283962 
L 732.013446 330.988846 
L 712.065249 330.988846 
z
" clip-path="url(#p31cac4805b)" style="fill: #aec7e8"/>
   </g>
   <g id="patch_29">
    <path d="M 737.000495 352.283962 
L 756.948692 352.283962 
L 756.948692 334.610811 
L 737.000495 334.610811 
z
" clip-path="url(#p31cac4805b)" style="fill: #aec7e8"/>
   </g>
   <g id="patch_30">
    <path d="M 761.935741 352.283962 
L 781.883939 352.283962 
L 781.883939 335.930901 
L 761.935741 335.930901 
z
" clip-path="url(#p31cac4805b)" style="fill: #aec7e8"/>
   </g>
   <g id="patch_31">
    <path d="M 786.870988 352.283962 
L 806.819185 352.283962 
L 806.819185 42.537332 
L 786.870988 42.537332 
z
" clip-path="url(#p31cac4805b)" style="fill: #ff7f0e"/>
   </g>
   <g id="patch_32">
    <path d="M 811.806234 352.283962 
L 831.754431 352.283962 
L 831.754431 134.701845 
L 811.806234 134.701845 
z
" clip-path="url(#p31cac4805b)" style="fill: #ff7f0e"/>
   </g>
   <g id="patch_33">
    <path d="M 836.74148 352.283962 
L 856.689678 352.283962 
L 856.689678 329.980161 
L 836.74148 329.980161 
z
" clip-path="url(#p31cac4805b)" style="fill: #ff7f0e"/>
   </g>
   <g id="patch_34">
    <path d="M 861.676727 352.283962 
L 881.624924 352.283962 
L 881.624924 331.788628 
L 861.676727 331.788628 
z
" clip-path="url(#p31cac4805b)" style="fill: #ffbb78"/>
   </g>
   <g id="patch_35">
    <path d="M 886.611973 352.283962 
L 906.56017 352.283962 
L 906.56017 343.095992 
L 886.611973 343.095992 
z
" clip-path="url(#p31cac4805b)" style="fill: #ffbb78"/>
   </g>
   <g id="patch_36">
    <path d="M 911.547219 352.283962 
L 931.495416 352.283962 
L 931.495416 344.6009 
L 911.547219 344.6009 
z
" clip-path="url(#p31cac4805b)" style="fill: #ffbb78"/>
   </g>
   <g id="patch_37">
    <path d="M 936.482466 352.283962 
L 956.430663 352.283962 
L 956.430663 348.160501 
L 936.482466 348.160501 
z
" clip-path="url(#p31cac4805b)" style="fill: #ffbb78"/>
   </g>
   <g id="patch_38">
    <path d="M 961.417712 352.283962 
L 981.365909 352.283962 
L 981.365909 349.222803 
L 961.417712 349.222803 
z
" clip-path="url(#p31cac4805b)" style="fill: #ffbb78"/>
   </g>
   <g id="patch_39">
    <path d="M 44.05 352.283962 
L 44.05 27.05 
" style="fill: none; stroke: #000000; stroke-width: 0.8; stroke-linejoin: miter; stroke-linecap: square"/>
   </g>
   <g id="patch_40">
    <path d="M 1026 352.283962 
L 1026 27.05 
" style="fill: none; stroke: #000000; stroke-width: 0.8; stroke-linejoin: miter; stroke-linecap: square"/>
   </g>
   <g id="patch_41">
    <path d="M 44.05 352.283962 
L 1026 352.283962 
" style="fill: none; stroke: #000000; stroke-width: 0.8; stroke-linejoin: miter; stroke-linecap: square"/>
   </g>
   <g id="patch_42">
    <path d="M 44.05 27.05 
L 1026 27.05 
" style="fill: none; stroke: #000000; stroke-width: 0.8; stroke-linejoin: miter; stroke-linecap: square"/>
   </g>
   <g id="text_44">
    <!-- 16.2 -->
    <g transform="translate(89.751939 250.714942) scale(0.08 -0.08)">
     <defs>
      <path id="DejaVuSans-36" d="M 2113 2584 
Q 1688 2584 1439 2293 
Q 1191 2003 1191 1497 
Q 1191 994 1439 701 
Q 1688 409 2113 409 
Q 2538 409 2786 701 
Q 3034 994 3034 1497 
Q 3034 2003 2786 2293 
Q 2538 2584 2113 2584 
z
M 3366 4563 
L 3366 3988 
Q 3128 4100 2886 4159 
Q 2644 4219 2406 4219 
Q 1781 4219 1451 3797 
Q 1122 3375 1075 2522 
Q 1259 2794 1537 2939 
Q 1816 3084 2150 3084 
Q 2853 3084 3261 2657 
Q 3669 2231 3669 1497 
Q 3669 778 3244 343 
Q 2819 -91 2113 -91 
Q 1303 -91 875 529 
Q 447 1150 447 2328 
Q 447 3434 972 4092 
Q 1497 4750 2381 4750 
Q 2619 4750 2861 4703 
Q 3103 4656 3366 4563 
z
" transform="scale(0.015625)"/>
      <path id="DejaVuSans-2e" d="M 684 794 
L 1344 794 
L 1344 0 
L 684 0 
L 684 794 
z
" transform="scale(0.015625)"/>
     </defs>
     <use xlink:href="#DejaVuSans-31"/>
     <use xlink:href="#DejaVuSans-36" transform="translate(63.623047 0)"/>
     <use xlink:href="#DejaVuSans-2e" transform="translate(127.246094 0)"/>
     <use xlink:href="#DejaVuSans-32" transform="translate(159.033203 0)"/>
    </g>
   </g>
   <g id="text_45">
    <!-- 9.2 -->
    <g transform="translate(117.232186 292.576565) scale(0.08 -0.08)">
     <defs>
      <path id="DejaVuSans-39" d="M 703 97 
L 703 672 
Q 941 559 1184 500 
Q 1428 441 1663 441 
Q 2288 441 2617 861 
Q 2947 1281 2994 2138 
Q 2813 1869 2534 1725 
Q 2256 1581 1919 1581 
Q 1219 1581 811 2004 
Q 403 2428 403 3163 
Q 403 3881 828 4315 
Q 1253 4750 1959 4750 
Q 2769 4750 3195 4129 
Q 3622 3509 3622 2328 
Q 3622 1225 3098 567 
Q 2575 -91 1691 -91 
Q 1453 -91 1209 -44 
Q 966 3 703 97 
z
M 1959 2075 
Q 2384 2075 2632 2365 
Q 2881 2656 2881 3163 
Q 2881 3666 2632 3958 
Q 2384 4250 1959 4250 
Q 1534 4250 1286 3958 
Q 1038 3666 1038 3163 
Q 1038 2656 1286 2365 
Q 1534 2075 1959 2075 
z
" transform="scale(0.015625)"/>
     </defs>
     <use xlink:href="#DejaVuSans-39"/>
     <use xlink:href="#DejaVuSans-2e" transform="translate(63.623047 0)"/>
     <use xlink:href="#DejaVuSans-32" transform="translate(95.410156 0)"/>
    </g>
   </g>
   <g id="text_46">
    <!-- 6.8 -->
    <g transform="translate(142.167432 306.808556) scale(0.08 -0.08)">
     <defs>
      <path id="DejaVuSans-38" d="M 2034 2216 
Q 1584 2216 1326 1975 
Q 1069 1734 1069 1313 
Q 1069 891 1326 650 
Q 1584 409 2034 409 
Q 2484 409 2743 651 
Q 3003 894 3003 1313 
Q 3003 1734 2745 1975 
Q 2488 2216 2034 2216 
z
M 1403 2484 
Q 997 2584 770 2862 
Q 544 3141 544 3541 
Q 544 4100 942 4425 
Q 1341 4750 2034 4750 
Q 2731 4750 3128 4425 
Q 3525 4100 3525 3541 
Q 3525 3141 3298 2862 
Q 3072 2584 2669 2484 
Q 3125 2378 3379 2068 
Q 3634 1759 3634 1313 
Q 3634 634 3220 271 
Q 2806 -91 2034 -91 
Q 1263 -91 848 271 
Q 434 634 434 1313 
Q 434 1759 690 2068 
Q 947 2378 1403 2484 
z
M 1172 3481 
Q 1172 3119 1398 2916 
Q 1625 2713 2034 2713 
Q 2441 2713 2670 2916 
Q 2900 3119 2900 3481 
Q 2900 3844 2670 4047 
Q 2441 4250 2034 4250 
Q 1625 4250 1398 4047 
Q 1172 3844 1172 3481 
z
" transform="scale(0.015625)"/>
     </defs>
     <use xlink:href="#DejaVuSans-36"/>
     <use xlink:href="#DejaVuSans-2e" transform="translate(63.623047 0)"/>
     <use xlink:href="#DejaVuSans-38" transform="translate(95.410156 0)"/>
    </g>
   </g>
   <g id="text_47">
    <!-- 4.8 -->
    <g transform="translate(167.102678 318.779949) scale(0.08 -0.08)">
     <use xlink:href="#DejaVuSans-34"/>
     <use xlink:href="#DejaVuSans-2e" transform="translate(63.623047 0)"/>
     <use xlink:href="#DejaVuSans-38" transform="translate(95.410156 0)"/>
    </g>
   </g>
   <g id="text_48">
    <!-- 4.1 -->
    <g transform="translate(192.037925 322.719491) scale(0.08 -0.08)">
     <use xlink:href="#DejaVuSans-34"/>
     <use xlink:href="#DejaVuSans-2e" transform="translate(63.623047 0)"/>
     <use xlink:href="#DejaVuSans-31" transform="translate(95.410156 0)"/>
    </g>
   </g>
   <g id="text_49">
    <!-- 3.8 -->
    <g transform="translate(216.973171 324.99267) scale(0.08 -0.08)">
     <use xlink:href="#DejaVuSans-33"/>
     <use xlink:href="#DejaVuSans-2e" transform="translate(63.623047 0)"/>
     <use xlink:href="#DejaVuSans-38" transform="translate(95.410156 0)"/>
    </g>
   </g>
   <g id="text_50">
    <!-- 3.4 -->
    <g transform="translate(241.908417 327.289992) scale(0.08 -0.08)">
     <use xlink:href="#DejaVuSans-33"/>
     <use xlink:href="#DejaVuSans-2e" transform="translate(63.623047 0)"/>
     <use xlink:href="#DejaVuSans-34" transform="translate(95.410156 0)"/>
    </g>
   </g>
   <g id="text_51">
    <!-- 3.3 -->
    <g transform="translate(266.843664 327.887702) scale(0.08 -0.08)">
     <use xlink:href="#DejaVuSans-33"/>
     <use xlink:href="#DejaVuSans-2e" transform="translate(63.623047 0)"/>
     <use xlink:href="#DejaVuSans-33" transform="translate(95.410156 0)"/>
    </g>
   </g>
   <g id="text_52">
    <!-- 3.0 -->
    <g transform="translate(291.77891 329.293461) scale(0.08 -0.08)">
     <use xlink:href="#DejaVuSans-33"/>
     <use xlink:href="#DejaVuSans-2e" transform="translate(63.623047 0)"/>
     <use xlink:href="#DejaVuSans-30" transform="translate(95.410156 0)"/>
    </g>
   </g>
   <g id="text_53">
    <!-- 3.0 -->
    <g transform="translate(316.714156 329.558887) scale(0.08 -0.08)">
     <use xlink:href="#DejaVuSans-33"/>
     <use xlink:href="#DejaVuSans-2e" transform="translate(63.623047 0)"/>
     <use xlink:href="#DejaVuSans-30" transform="translate(95.410156 0)"/>
    </g>
   </g>
   <g id="text_54">
    <!-- 2.9 -->
    <g transform="translate(341.649403 329.924361) scale(0.08 -0.08)">
     <use xlink:href="#DejaVuSans-32"/>
     <use xlink:href="#DejaVuSans-2e" transform="translate(63.623047 0)"/>
     <use xlink:href="#DejaVuSans-39" transform="translate(95.410156 0)"/>
    </g>
   </g>
   <g id="text_55">
    <!-- 2.7 -->
    <g transform="translate(366.584649 331.509847) scale(0.08 -0.08)">
     <defs>
      <path id="DejaVuSans-37" d="M 525 4666 
L 3525 4666 
L 3525 4397 
L 1831 0 
L 1172 0 
L 2766 4134 
L 525 4134 
L 525 4666 
z
" transform="scale(0.015625)"/>
     </defs>
     <use xlink:href="#DejaVuSans-32"/>
     <use xlink:href="#DejaVuSans-2e" transform="translate(63.623047 0)"/>
     <use xlink:href="#DejaVuSans-37" transform="translate(95.410156 0)"/>
    </g>
   </g>
   <g id="text_56">
    <!-- 1.9 -->
    <g transform="translate(391.519895 335.962028) scale(0.08 -0.08)">
     <use xlink:href="#DejaVuSans-31"/>
     <use xlink:href="#DejaVuSans-2e" transform="translate(63.623047 0)"/>
     <use xlink:href="#DejaVuSans-39" transform="translate(95.410156 0)"/>
    </g>
   </g>
   <g id="text_57">
    <!-- 1.7 -->
    <g transform="translate(416.455142 337.212444) scale(0.08 -0.08)">
     <use xlink:href="#DejaVuSans-31"/>
     <use xlink:href="#DejaVuSans-2e" transform="translate(63.623047 0)"/>
     <use xlink:href="#DejaVuSans-37" transform="translate(95.410156 0)"/>
    </g>
   </g>
   <g id="text_58">
    <!-- 1.7 -->
    <g transform="translate(441.390388 337.236528) scale(0.08 -0.08)">
     <use xlink:href="#DejaVuSans-31"/>
     <use xlink:href="#DejaVuSans-2e" transform="translate(63.623047 0)"/>
     <use xlink:href="#DejaVuSans-37" transform="translate(95.410156 0)"/>
    </g>
   </g>
   <g id="text_59">
    <!-- 1.5 -->
    <g transform="translate(466.325634 338.663315) scale(0.08 -0.08)">
     <use xlink:href="#DejaVuSans-31"/>
     <use xlink:href="#DejaVuSans-2e" transform="translate(63.623047 0)"/>
     <use xlink:href="#DejaVuSans-35" transform="translate(95.410156 0)"/>
    </g>
   </g>
   <g id="text_60">
    <!-- 1.4 -->
    <g transform="translate(491.260881 339.053441) scale(0.08 -0.08)">
     <use xlink:href="#DejaVuSans-31"/>
     <use xlink:href="#DejaVuSans-2e" transform="translate(63.623047 0)"/>
     <use xlink:href="#DejaVuSans-34" transform="translate(95.410156 0)"/>
    </g>
   </g>
   <g id="text_61">
    <!-- 1.1 -->
    <g transform="translate(516.196127 340.981246) scale(0.08 -0.08)">
     <use xlink:href="#DejaVuSans-31"/>
     <use xlink:href="#DejaVuSans-2e" transform="translate(63.623047 0)"/>
     <use xlink:href="#DejaVuSans-31" transform="translate(95.410156 0)"/>
    </g>
   </g>
   <g id="text_62">
    <!-- 0.6 -->
    <g transform="translate(541.131373 343.77641) scale(0.08 -0.08)">
     <use xlink:href="#DejaVuSans-30"/>
     <use xlink:href="#DejaVuSans-2e" transform="translate(63.623047 0)"/>
     <use xlink:href="#DejaVuSans-36" transform="translate(95.410156 0)"/>
    </g>
   </g>
   <g id="text_63">
    <!-- 0.6 -->
    <g transform="translate(566.066619 344.174264) scale(0.08 -0.08)">
     <use xlink:href="#DejaVuSans-30"/>
     <use xlink:href="#DejaVuSans-2e" transform="translate(63.623047 0)"/>
     <use xlink:href="#DejaVuSans-36" transform="translate(95.410156 0)"/>
    </g>
   </g>
   <g id="text_64">
    <!-- 10.6 -->
    <g transform="translate(588.456866 283.799689) scale(0.08 -0.08)">
     <use xlink:href="#DejaVuSans-31"/>
     <use xlink:href="#DejaVuSans-30" transform="translate(63.623047 0)"/>
     <use xlink:href="#DejaVuSans-2e" transform="translate(127.246094 0)"/>
     <use xlink:href="#DejaVuSans-36" transform="translate(159.033203 0)"/>
    </g>
   </g>
   <g id="text_65">
    <!-- 8.3 -->
    <g transform="translate(615.937112 297.503883) scale(0.08 -0.08)">
     <use xlink:href="#DejaVuSans-38"/>
     <use xlink:href="#DejaVuSans-2e" transform="translate(63.623047 0)"/>
     <use xlink:href="#DejaVuSans-33" transform="translate(95.410156 0)"/>
    </g>
   </g>
   <g id="text_66">
    <!-- 7.5 -->
    <g transform="translate(640.872358 302.494764) scale(0.08 -0.08)">
     <use xlink:href="#DejaVuSans-37"/>
     <use xlink:href="#DejaVuSans-2e" transform="translate(63.623047 0)"/>
     <use xlink:href="#DejaVuSans-35" transform="translate(95.410156 0)"/>
    </g>
   </g>
   <g id="text_67">
    <!-- 7.3 -->
    <g transform="translate(665.807605 304.023876) scale(0.08 -0.08)">
     <use xlink:href="#DejaVuSans-37"/>
     <use xlink:href="#DejaVuSans-2e" transform="translate(63.623047 0)"/>
     <use xlink:href="#DejaVuSans-33" transform="translate(95.410156 0)"/>
    </g>
   </g>
   <g id="text_68">
    <!-- 3.9 -->
    <g transform="translate(690.742851 324.210021) scale(0.08 -0.08)">
     <use xlink:href="#DejaVuSans-33"/>
     <use xlink:href="#DejaVuSans-2e" transform="translate(63.623047 0)"/>
     <use xlink:href="#DejaVuSans-39" transform="translate(95.410156 0)"/>
    </g>
   </g>
   <g id="text_69">
    <!-- 3.6 -->
    <g transform="translate(715.678097 326.227629) scale(0.08 -0.08)">
     <use xlink:href="#DejaVuSans-33"/>
     <use xlink:href="#DejaVuSans-2e" transform="translate(63.623047 0)"/>
     <use xlink:href="#DejaVuSans-36" transform="translate(95.410156 0)"/>
    </g>
   </g>
   <g id="text_70">
    <!-- 3.0 -->
    <g transform="translate(740.613344 329.849595) scale(0.08 -0.08)">
     <use xlink:href="#DejaVuSans-33"/>
     <use xlink:href="#DejaVuSans-2e" transform="translate(63.623047 0)"/>
     <use xlink:href="#DejaVuSans-30" transform="translate(95.410156 0)"/>
    </g>
   </g>
   <g id="text_71">
    <!-- 2.7 -->
    <g transform="translate(765.54859 331.169685) scale(0.08 -0.08)">
     <use xlink:href="#DejaVuSans-32"/>
     <use xlink:href="#DejaVuSans-2e" transform="translate(63.623047 0)"/>
     <use xlink:href="#DejaVuSans-37" transform="translate(95.410156 0)"/>
    </g>
   </g>
   <g id="text_72">
    <!-- 51.7 -->
    <g transform="translate(787.938836 37.776115) scale(0.08 -0.08)">
     <use xlink:href="#DejaVuSans-35"/>
     <use xlink:href="#DejaVuSans-31" transform="translate(63.623047 0)"/>
     <use xlink:href="#DejaVuSans-2e" transform="translate(127.246094 0)"/>
     <use xlink:href="#DejaVuSans-37" transform="translate(159.033203 0)"/>
    </g>
   </g>
   <g id="text_73">
    <!-- 36.3 -->
    <g transform="translate(812.874083 129.940629) scale(0.08 -0.08)">
     <use xlink:href="#DejaVuSans-33"/>
     <use xlink:href="#DejaVuSans-36" transform="translate(63.623047 0)"/>
     <use xlink:href="#DejaVuSans-2e" transform="translate(127.246094 0)"/>
     <use xlink:href="#DejaVuSans-33" transform="translate(159.033203 0)"/>
    </g>
   </g>
   <g id="text_74">
    <!-- 3.7 -->
    <g transform="translate(840.354329 325.218945) scale(0.08 -0.08)">
     <use xlink:href="#DejaVuSans-33"/>
     <use xlink:href="#DejaVuSans-2e" transform="translate(63.623047 0)"/>
     <use xlink:href="#DejaVuSans-37" transform="translate(95.410156 0)"/>
    </g>
   </g>
   <g id="text_75">
    <!-- 3.4 -->
    <g transform="translate(865.289575 327.027412) scale(0.08 -0.08)">
     <use xlink:href="#DejaVuSans-33"/>
     <use xlink:href="#DejaVuSans-2e" transform="translate(63.623047 0)"/>
     <use xlink:href="#DejaVuSans-34" transform="translate(95.410156 0)"/>
    </g>
   </g>
   <g id="text_76">
    <!-- 1.5 -->
    <g transform="translate(890.224822 338.334775) scale(0.08 -0.08)">
     <use xlink:href="#DejaVuSans-31"/>
     <use xlink:href="#DejaVuSans-2e" transform="translate(63.623047 0)"/>
     <use xlink:href="#DejaVuSans-35" transform="translate(95.410156 0)"/>
    </g>
   </g>
   <g id="text_77">
    <!-- 1.3 -->
    <g transform="translate(915.160068 339.839684) scale(0.08 -0.08)">
     <use xlink:href="#DejaVuSans-31"/>
     <use xlink:href="#DejaVuSans-2e" transform="translate(63.623047 0)"/>
     <use xlink:href="#DejaVuSans-33" transform="translate(95.410156 0)"/>
    </g>
   </g>
   <g id="text_78">
    <!-- 0.7 -->
    <g transform="translate(940.095314 343.399284) scale(0.08 -0.08)">
     <use xlink:href="#DejaVuSans-30"/>
     <use xlink:href="#DejaVuSans-2e" transform="translate(63.623047 0)"/>
     <use xlink:href="#DejaVuSans-37" transform="translate(95.410156 0)"/>
    </g>
   </g>
   <g id="text_79">
    <!-- 0.5 -->
    <g transform="translate(965.030561 344.461587) scale(0.08 -0.08)">
     <use xlink:href="#DejaVuSans-30"/>
     <use xlink:href="#DejaVuSans-2e" transform="translate(63.623047 0)"/>
     <use xlink:href="#DejaVuSans-35" transform="translate(95.410156 0)"/>
    </g>
   </g>
   <g id="text_80">
    <!-- Instalirana snaga po grupi područja - JUG -->
    <g transform="translate(411.598437 21.05) scale(0.12 -0.12)">
     <defs>
      <path id="DejaVuSans-70" d="M 1159 525 
L 1159 -1331 
L 581 -1331 
L 581 3500 
L 1159 3500 
L 1159 2969 
Q 1341 3281 1617 3432 
Q 1894 3584 2278 3584 
Q 2916 3584 3314 3078 
Q 3713 2572 3713 1747 
Q 3713 922 3314 415 
Q 2916 -91 2278 -91 
Q 1894 -91 1617 61 
Q 1341 213 1159 525 
z
M 3116 1747 
Q 3116 2381 2855 2742 
Q 2594 3103 2138 3103 
Q 1681 3103 1420 2742 
Q 1159 2381 1159 1747 
Q 1159 1113 1420 752 
Q 1681 391 2138 391 
Q 2594 391 2855 752 
Q 3116 1113 3116 1747 
z
" transform="scale(0.015625)"/>
      <path id="DejaVuSans-6f" d="M 1959 3097 
Q 1497 3097 1228 2736 
Q 959 2375 959 1747 
Q 959 1119 1226 758 
Q 1494 397 1959 397 
Q 2419 397 2687 759 
Q 2956 1122 2956 1747 
Q 2956 2369 2687 2733 
Q 2419 3097 1959 3097 
z
M 1959 3584 
Q 2709 3584 3137 3096 
Q 3566 2609 3566 1747 
Q 3566 888 3137 398 
Q 2709 -91 1959 -91 
Q 1206 -91 779 398 
Q 353 888 353 1747 
Q 353 2609 779 3096 
Q 1206 3584 1959 3584 
z
" transform="scale(0.015625)"/>
      <path id="DejaVuSans-75" d="M 544 1381 
L 544 3500 
L 1119 3500 
L 1119 1403 
Q 1119 906 1312 657 
Q 1506 409 1894 409 
Q 2359 409 2629 706 
Q 2900 1003 2900 1516 
L 2900 3500 
L 3475 3500 
L 3475 0 
L 2900 0 
L 2900 538 
Q 2691 219 2414 64 
Q 2138 -91 1772 -91 
Q 1169 -91 856 284 
Q 544 659 544 1381 
z
M 1991 3584 
L 1991 3584 
z
" transform="scale(0.015625)"/>
      <path id="DejaVuSans-64" d="M 2906 2969 
L 2906 4863 
L 3481 4863 
L 3481 0 
L 2906 0 
L 2906 525 
Q 2725 213 2448 61 
Q 2172 -91 1784 -91 
Q 1150 -91 751 415 
Q 353 922 353 1747 
Q 353 2572 751 3078 
Q 1150 3584 1784 3584 
Q 2172 3584 2448 3432 
Q 2725 3281 2906 2969 
z
M 947 1747 
Q 947 1113 1208 752 
Q 1469 391 1925 391 
Q 2381 391 2643 752 
Q 2906 1113 2906 1747 
Q 2906 2381 2643 2742 
Q 2381 3103 1925 3103 
Q 1469 3103 1208 2742 
Q 947 2381 947 1747 
z
" transform="scale(0.015625)"/>
      <path id="DejaVuSans-10d" d="M 3122 3366 
L 3122 2828 
Q 2878 2963 2633 3030 
Q 2388 3097 2138 3097 
Q 1578 3097 1268 2742 
Q 959 2388 959 1747 
Q 959 1106 1268 751 
Q 1578 397 2138 397 
Q 2388 397 2633 464 
Q 2878 531 3122 666 
L 3122 134 
Q 2881 22 2623 -34 
Q 2366 -91 2075 -91 
Q 1284 -91 818 406 
Q 353 903 353 1747 
Q 353 2603 823 3093 
Q 1294 3584 2113 3584 
Q 2378 3584 2631 3529 
Q 2884 3475 3122 3366 
z
M 1797 3944 
L 1031 5119 
L 1466 5119 
L 2028 4353 
L 2591 5119 
L 3025 5119 
L 2259 3944 
L 1797 3944 
z
" transform="scale(0.015625)"/>
      <path id="DejaVuSans-6a" d="M 603 3500 
L 1178 3500 
L 1178 -63 
Q 1178 -731 923 -1031 
Q 669 -1331 103 -1331 
L -116 -1331 
L -116 -844 
L 38 -844 
Q 366 -844 484 -692 
Q 603 -541 603 -63 
L 603 3500 
z
M 603 4863 
L 1178 4863 
L 1178 4134 
L 603 4134 
L 603 4863 
z
" transform="scale(0.015625)"/>
      <path id="DejaVuSans-2d" d="M 313 2009 
L 1997 2009 
L 1997 1497 
L 313 1497 
L 313 2009 
z
" transform="scale(0.015625)"/>
     </defs>
     <use xlink:href="#DejaVuSans-49"/>
     <use xlink:href="#DejaVuSans-6e" transform="translate(29.492188 0)"/>
     <use xlink:href="#DejaVuSans-73" transform="translate(92.871094 0)"/>
     <use xlink:href="#DejaVuSans-74" transform="translate(144.970703 0)"/>
     <use xlink:href="#DejaVuSans-61" transform="translate(184.179688 0)"/>
     <use xlink:href="#DejaVuSans-6c" transform="translate(245.458984 0)"/>
     <use xlink:href="#DejaVuSans-69" transform="translate(273.242188 0)"/>
     <use xlink:href="#DejaVuSans-72" transform="translate(301.025391 0)"/>
     <use xlink:href="#DejaVuSans-61" transform="translate(342.138672 0)"/>
     <use xlink:href="#DejaVuSans-6e" transform="translate(403.417969 0)"/>
     <use xlink:href="#DejaVuSans-61" transform="translate(466.796875 0)"/>
     <use xlink:href="#DejaVuSans-20" transform="translate(528.076172 0)"/>
     <use xlink:href="#DejaVuSans-73" transform="translate(559.863281 0)"/>
     <use xlink:href="#DejaVuSans-6e" transform="translate(611.962891 0)"/>
     <use xlink:href="#DejaVuSans-61" transform="translate(675.341797 0)"/>
     <use xlink:href="#DejaVuSans-67" transform="translate(736.621094 0)"/>
     <use xlink:href="#DejaVuSans-61" transform="translate(800.097656 0)"/>
     <use xlink:href="#DejaVuSans-20" transform="translate(861.376953 0)"/>
     <use xlink:href="#DejaVuSans-70" transform="translate(893.164062 0)"/>
     <use xlink:href="#DejaVuSans-6f" transform="translate(956.640625 0)"/>
     <use xlink:href="#DejaVuSans-20" transform="translate(1017.822266 0)"/>
     <use xlink:href="#DejaVuSans-67" transform="translate(1049.609375 0)"/>
     <use xlink:href="#DejaVuSans-72" transform="translate(1113.085938 0)"/>
     <use xlink:href="#DejaVuSans-75" transform="translate(1154.199219 0)"/>
     <use xlink:href="#DejaVuSans-70" transform="translate(1217.578125 0)"/>
     <use xlink:href="#DejaVuSans-69" transform="translate(1281.054688 0)"/>
     <use xlink:href="#DejaVuSans-20" transform="translate(1308.837891 0)"/>
     <use xlink:href="#DejaVuSans-70" transform="translate(1340.625 0)"/>
     <use xlink:href="#DejaVuSans-6f" transform="translate(1404.101562 0)"/>
     <use xlink:href="#DejaVuSans-64" transform="translate(1465.283203 0)"/>
     <use xlink:href="#DejaVuSans-72" transform="translate(1528.759766 0)"/>
     <use xlink:href="#DejaVuSans-75" transform="translate(1569.873047 0)"/>
     <use xlink:href="#DejaVuSans-10d" transform="translate(1633.251953 0)"/>
     <use xlink:href="#DejaVuSans-6a" transform="translate(1688.232422 0)"/>
     <use xlink:href="#DejaVuSans-61" transform="translate(1716.015625 0)"/>
     <use xlink:href="#DejaVuSans-20" transform="translate(1777.294922 0)"/>
     <use xlink:href="#DejaVuSans-2d" transform="translate(1809.082031 0)"/>
     <use xlink:href="#DejaVuSans-20" transform="translate(1845.166016 0)"/>
     <use xlink:href="#DejaVuSans-4a" transform="translate(1876.953125 0)"/>
     <use xlink:href="#DejaVuSans-55" transform="translate(1906.445312 0)"/>
     <use xlink:href="#DejaVuSans-47" transform="translate(1979.638672 0)"/>
    </g>
   </g>
   <g id="legend_1">
    <g id="patch_43">
     <path d="M 944.642187 108.440625 
L 1019 108.440625 
Q 1021 108.440625 1021 106.440625 
L 1021 34.05 
Q 1021 32.05 1019 32.05 
L 944.642187 32.05 
Q 942.642187 32.05 942.642187 34.05 
L 942.642187 106.440625 
Q 942.642187 108.440625 944.642187 108.440625 
z
" style="fill: #ffffff; opacity: 0.8; stroke: #cccccc; stroke-linejoin: miter"/>
    </g>
    <g id="text_81">
     <!-- DP -->
     <g transform="translate(974.95625 43.648438) scale(0.1 -0.1)">
      <use xlink:href="#DejaVuSans-44"/>
      <use xlink:href="#DejaVuSans-50" transform="translate(77.001953 0)"/>
     </g>
    </g>
    <g id="patch_44">
     <path d="M 946.642187 58.326563 
L 966.642187 58.326563 
L 966.642187 51.326563 
L 946.642187 51.326563 
z
" style="fill: #1f77b4; stroke: #1f77b4; stroke-linejoin: miter"/>
    </g>
    <g id="text_82">
     <!-- DP 4013 -->
     <g transform="translate(974.642187 58.326563) scale(0.1 -0.1)">
      <use xlink:href="#DejaVuSans-44"/>
      <use xlink:href="#DejaVuSans-50" transform="translate(77.001953 0)"/>
      <use xlink:href="#DejaVuSans-20" transform="translate(137.304688 0)"/>
      <use xlink:href="#DejaVuSans-34" transform="translate(169.091797 0)"/>
      <use xlink:href="#DejaVuSans-30" transform="translate(232.714844 0)"/>
      <use xlink:href="#DejaVuSans-31" transform="translate(296.337891 0)"/>
      <use xlink:href="#DejaVuSans-33" transform="translate(359.960938 0)"/>
     </g>
    </g>
    <g id="patch_45">
     <path d="M 946.642187 73.004688 
L 966.642187 73.004688 
L 966.642187 66.004688 
L 946.642187 66.004688 
z
" style="fill: #aec7e8; stroke: #aec7e8; stroke-linejoin: miter"/>
    </g>
    <g id="text_83">
     <!-- DP 4014 -->
     <g transform="translate(974.642187 73.004688) scale(0.1 -0.1)">
      <use xlink:href="#DejaVuSans-44"/>
      <use xlink:href="#DejaVuSans-50" transform="translate(77.001953 0)"/>
      <use xlink:href="#DejaVuSans-20" transform="translate(137.304688 0)"/>
      <use xlink:href="#DejaVuSans-34" transform="translate(169.091797 0)"/>
      <use xlink:href="#DejaVuSans-30" transform="translate(232.714844 0)"/>
      <use xlink:href="#DejaVuSans-31" transform="translate(296.337891 0)"/>
      <use xlink:href="#DejaVuSans-34" transform="translate(359.960938 0)"/>
     </g>
    </g>
    <g id="patch_46">
     <path d="M 946.642187 87.682813 
L 966.642187 87.682813 
L 966.642187 80.682813 
L 946.642187 80.682813 
z
" style="fill: #ff7f0e; stroke: #ff7f0e; stroke-linejoin: miter"/>
    </g>
    <g id="text_84">
     <!-- DP 4015 -->
     <g transform="translate(974.642187 87.682813) scale(0.1 -0.1)">
      <use xlink:href="#DejaVuSans-44"/>
      <use xlink:href="#DejaVuSans-50" transform="translate(77.001953 0)"/>
      <use xlink:href="#DejaVuSans-20" transform="translate(137.304688 0)"/>
      <use xlink:href="#DejaVuSans-34" transform="translate(169.091797 0)"/>
      <use xlink:href="#DejaVuSans-30" transform="translate(232.714844 0)"/>
      <use xlink:href="#DejaVuSans-31" transform="translate(296.337891 0)"/>
      <use xlink:href="#DejaVuSans-35" transform="translate(359.960938 0)"/>
     </g>
    </g>
    <g id="patch_47">
     <path d="M 946.642187 102.360938 
L 966.642187 102.360938 
L 966.642187 95.360938 
L 946.642187 95.360938 
z
" style="fill: #ffbb78; stroke: #ffbb78; stroke-linejoin: miter"/>
    </g>
    <g id="text_85">
     <!-- DP 4016 -->
     <g transform="translate(974.642187 102.360938) scale(0.1 -0.1)">
      <use xlink:href="#DejaVuSans-44"/>
      <use xlink:href="#DejaVuSans-50" transform="translate(77.001953 0)"/>
      <use xlink:href="#DejaVuSans-20" transform="translate(137.304688 0)"/>
      <use xlink:href="#DejaVuSans-34" transform="translate(169.091797 0)"/>
      <use xlink:href="#DejaVuSans-30" transform="translate(232.714844 0)"/>
      <use xlink:href="#DejaVuSans-31" transform="translate(296.337891 0)"/>
      <use xlink:href="#DejaVuSans-36" transform="translate(359.960938 0)"/>
     </g>
    </g>
   </g>
  </g>
 </g>
 <defs>
  <clipPath id="p31cac4805b">
   <rect x="44.05" y="27.05" width="981.95" height="325.233962"/>
  </clipPath>
 </defs>
</svg>
