<?xml version="1.0" encoding="utf-8" standalone="no"?>
<!DOCTYPE svg PUBLIC "-//W3C//DTD SVG 1.1//EN"
  "http://www.w3.org/Graphics/SVG/1.1/DTD/svg11.dtd">
<svg xmlns:xlink="http://www.w3.org/1999/xlink" width="864pt" height="432pt" viewBox="0 0 864 432" xmlns="http://www.w3.org/2000/svg" version="1.1">
 <metadata>
  <rdf:RDF xmlns:dc="http://purl.org/dc/elements/1.1/" xmlns:cc="http://creativecommons.org/ns#" xmlns:rdf="http://www.w3.org/1999/02/22-rdf-syntax-ns#">
   <cc:Work>
    <dc:type rdf:resource="http://purl.org/dc/dcmitype/StillImage"/>
    <dc:date>2025-10-21T11:20:35.536772</dc:date>
    <dc:format>image/svg+xml</dc:format>
    <dc:creator>
     <cc:Agent>
      <dc:title>Matplotlib v3.10.0, https://matplotlib.org/</dc:title>
     </cc:Agent>
    </dc:creator>
   </cc:Work>
  </rdf:RDF>
 </metadata>
 <defs>
  <style type="text/css">*{stroke-linejoin: round; stroke-linecap: butt}</style>
 </defs>
 <g id="figure_1">
  <g id="patch_1">
   <path d="M 0 432 
L 864 432 
L 864 0 
L 0 0 
z
" style="fill: #ffffff"/>
  </g>
  <g id="axes_1">
   <g id="patch_2">
    <path d="M 44.05 348.969399 
L 853.2 348.969399 
L 853.2 27.05 
L 44.05 27.05 
z
" style="fill: #ffffff"/>
   </g>
   <g id="matplotlib.axis_1">
    <g id="xtick_1">
     <g id="line2d_1">
      <defs>
       <path id="me124f48a6a" d="M 0 0 
L 0 3.5 
" style="stroke: #000000; stroke-width: 0.8"/>
      </defs>
      <g>
       <use xlink:href="#me124f48a6a" x="94.326626" y="348.969399" style="stroke: #000000; stroke-width: 0.8"/>
      </g>
     </g>
     <g id="text_1">
      <!-- OSIJEK 2 -->
      <g transform="translate(62.777511 391.420861) rotate(-45) scale(0.1 -0.1)">
       <defs>
        <path id="DejaVuSans-4f" d="M 2522 4238 
Q 1834 4238 1429 3725 
Q 1025 3213 1025 2328 
Q 1025 1447 1429 934 
Q 1834 422 2522 422 
Q 3209 422 3611 934 
Q 4013 1447 4013 2328 
Q 4013 3213 3611 3725 
Q 3209 4238 2522 4238 
z
M 2522 4750 
Q 3503 4750 4090 4092 
Q 4678 3434 4678 2328 
Q 4678 1225 4090 567 
Q 3503 -91 2522 -91 
Q 1538 -91 948 565 
Q 359 1222 359 2328 
Q 359 3434 948 4092 
Q 1538 4750 2522 4750 
z
" transform="scale(0.015625)"/>
        <path id="DejaVuSans-53" d="M 3425 4513 
L 3425 3897 
Q 3066 4069 2747 4153 
Q 2428 4238 2131 4238 
Q 1616 4238 1336 4038 
Q 1056 3838 1056 3469 
Q 1056 3159 1242 3001 
Q 1428 2844 1947 2747 
L 2328 2669 
Q 3034 2534 3370 2195 
Q 3706 1856 3706 1288 
Q 3706 609 3251 259 
Q 2797 -91 1919 -91 
Q 1588 -91 1214 -16 
Q 841 59 441 206 
L 441 856 
Q 825 641 1194 531 
Q 1563 422 1919 422 
Q 2459 422 2753 634 
Q 3047 847 3047 1241 
Q 3047 1584 2836 1778 
Q 2625 1972 2144 2069 
L 1759 2144 
Q 1053 2284 737 2584 
Q 422 2884 422 3419 
Q 422 4038 858 4394 
Q 1294 4750 2059 4750 
Q 2388 4750 2728 4690 
Q 3069 4631 3425 4513 
z
" transform="scale(0.015625)"/>
        <path id="DejaVuSans-49" d="M 628 4666 
L 1259 4666 
L 1259 0 
L 628 0 
L 628 4666 
z
" transform="scale(0.015625)"/>
        <path id="DejaVuSans-4a" d="M 628 4666 
L 1259 4666 
L 1259 325 
Q 1259 -519 939 -900 
Q 619 -1281 -91 -1281 
L -331 -1281 
L -331 -750 
L -134 -750 
Q 284 -750 456 -515 
Q 628 -281 628 325 
L 628 4666 
z
" transform="scale(0.015625)"/>
        <path id="DejaVuSans-45" d="M 628 4666 
L 3578 4666 
L 3578 4134 
L 1259 4134 
L 1259 2753 
L 3481 2753 
L 3481 2222 
L 1259 2222 
L 1259 531 
L 3634 531 
L 3634 0 
L 628 0 
L 628 4666 
z
" transform="scale(0.015625)"/>
        <path id="DejaVuSans-4b" d="M 628 4666 
L 1259 4666 
L 1259 2694 
L 3353 4666 
L 4166 4666 
L 1850 2491 
L 4331 0 
L 3500 0 
L 1259 2247 
L 1259 0 
L 628 0 
L 628 4666 
z
" transform="scale(0.015625)"/>
        <path id="DejaVuSans-20" transform="scale(0.015625)"/>
        <path id="DejaVuSans-32" d="M 1228 531 
L 3431 531 
L 3431 0 
L 469 0 
L 469 531 
Q 828 903 1448 1529 
Q 2069 2156 2228 2338 
Q 2531 2678 2651 2914 
Q 2772 3150 2772 3378 
Q 2772 3750 2511 3984 
Q 2250 4219 1831 4219 
Q 1534 4219 1204 4116 
Q 875 4013 500 3803 
L 500 4441 
Q 881 4594 1212 4672 
Q 1544 4750 1819 4750 
Q 2544 4750 2975 4387 
Q 3406 4025 3406 3419 
Q 3406 3131 3298 2873 
Q 3191 2616 2906 2266 
Q 2828 2175 2409 1742 
Q 1991 1309 1228 531 
z
" transform="scale(0.015625)"/>
       </defs>
       <use xlink:href="#DejaVuSans-4f"/>
       <use xlink:href="#DejaVuSans-53" transform="translate(78.710938 0)"/>
       <use xlink:href="#DejaVuSans-49" transform="translate(142.1875 0)"/>
       <use xlink:href="#DejaVuSans-4a" transform="translate(171.679688 0)"/>
       <use xlink:href="#DejaVuSans-45" transform="translate(201.171875 0)"/>
       <use xlink:href="#DejaVuSans-4b" transform="translate(264.355469 0)"/>
       <use xlink:href="#DejaVuSans-20" transform="translate(329.931641 0)"/>
       <use xlink:href="#DejaVuSans-32" transform="translate(361.71875 0)"/>
      </g>
     </g>
    </g>
    <g id="xtick_2">
     <g id="line2d_2">
      <g>
       <use xlink:href="#me124f48a6a" x="128.069329" y="348.969399" style="stroke: #000000; stroke-width: 0.8"/>
      </g>
     </g>
     <g id="text_2">
      <!-- ĐAKOVO 3 -->
      <g transform="translate(89.690003 398.25107) rotate(-45) scale(0.1 -0.1)">
       <defs>
        <path id="DejaVuSans-110" d="M 659 4666 
L 1959 4666 
Q 3313 4666 3947 4102 
Q 4581 3538 4581 2338 
Q 4581 1131 3945 565 
Q 3309 0 1959 0 
L 659 0 
L 659 2188 
L 31 2188 
L 31 2638 
L 659 2638 
L 659 4666 
z
M 1294 4147 
L 1294 2638 
L 2344 2638 
L 2344 2188 
L 1294 2188 
L 1294 519 
L 2053 519 
Q 3019 519 3467 956 
Q 3916 1394 3916 2338 
Q 3916 3275 3467 3711 
Q 3019 4147 2053 4147 
L 1294 4147 
z
" transform="scale(0.015625)"/>
        <path id="DejaVuSans-41" d="M 2188 4044 
L 1331 1722 
L 3047 1722 
L 2188 4044 
z
M 1831 4666 
L 2547 4666 
L 4325 0 
L 3669 0 
L 3244 1197 
L 1141 1197 
L 716 0 
L 50 0 
L 1831 4666 
z
" transform="scale(0.015625)"/>
        <path id="DejaVuSans-56" d="M 1831 0 
L 50 4666 
L 709 4666 
L 2188 738 
L 3669 4666 
L 4325 4666 
L 2547 0 
L 1831 0 
z
" transform="scale(0.015625)"/>
        <path id="DejaVuSans-33" d="M 2597 2516 
Q 3050 2419 3304 2112 
Q 3559 1806 3559 1356 
Q 3559 666 3084 287 
Q 2609 -91 1734 -91 
Q 1441 -91 1130 -33 
Q 819 25 488 141 
L 488 750 
Q 750 597 1062 519 
Q 1375 441 1716 441 
Q 2309 441 2620 675 
Q 2931 909 2931 1356 
Q 2931 1769 2642 2001 
Q 2353 2234 1838 2234 
L 1294 2234 
L 1294 2753 
L 1863 2753 
Q 2328 2753 2575 2939 
Q 2822 3125 2822 3475 
Q 2822 3834 2567 4026 
Q 2313 4219 1838 4219 
Q 1578 4219 1281 4162 
Q 984 4106 628 3988 
L 628 4550 
Q 988 4650 1302 4700 
Q 1616 4750 1894 4750 
Q 2613 4750 3031 4423 
Q 3450 4097 3450 3541 
Q 3450 3153 3228 2886 
Q 3006 2619 2597 2516 
z
" transform="scale(0.015625)"/>
       </defs>
       <use xlink:href="#DejaVuSans-110"/>
       <use xlink:href="#DejaVuSans-41" transform="translate(75.740234 0)"/>
       <use xlink:href="#DejaVuSans-4b" transform="translate(144.148438 0)"/>
       <use xlink:href="#DejaVuSans-4f" transform="translate(204.224609 0)"/>
       <use xlink:href="#DejaVuSans-56" transform="translate(281.185547 0)"/>
       <use xlink:href="#DejaVuSans-4f" transform="translate(347.84375 0)"/>
       <use xlink:href="#DejaVuSans-20" transform="translate(426.554688 0)"/>
       <use xlink:href="#DejaVuSans-33" transform="translate(458.341797 0)"/>
      </g>
     </g>
    </g>
    <g id="xtick_3">
     <g id="line2d_3">
      <g>
       <use xlink:href="#me124f48a6a" x="161.812031" y="348.969399" style="stroke: #000000; stroke-width: 0.8"/>
      </g>
     </g>
     <g id="text_3">
      <!-- NAŠICE -->
      <g transform="translate(134.233762 387.450014) rotate(-45) scale(0.1 -0.1)">
       <defs>
        <path id="DejaVuSans-4e" d="M 628 4666 
L 1478 4666 
L 3547 763 
L 3547 4666 
L 4159 4666 
L 4159 0 
L 3309 0 
L 1241 3903 
L 1241 0 
L 628 0 
L 628 4666 
z
" transform="scale(0.015625)"/>
        <path id="DejaVuSans-160" d="M 3425 4513 
L 3425 3897 
Q 3066 4069 2747 4153 
Q 2428 4238 2131 4238 
Q 1616 4238 1336 4038 
Q 1056 3838 1056 3469 
Q 1056 3159 1242 3001 
Q 1428 2844 1947 2747 
L 2328 2669 
Q 3034 2534 3370 2195 
Q 3706 1856 3706 1288 
Q 3706 609 3251 259 
Q 2797 -91 1919 -91 
Q 1588 -91 1214 -16 
Q 841 59 441 206 
L 441 856 
Q 825 641 1194 531 
Q 1563 422 1919 422 
Q 2459 422 2753 634 
Q 3047 847 3047 1241 
Q 3047 1584 2836 1778 
Q 2625 1972 2144 2069 
L 1759 2144 
Q 1053 2284 737 2584 
Q 422 2884 422 3419 
Q 422 4038 858 4394 
Q 1294 4750 2059 4750 
Q 2388 4750 2728 4690 
Q 3069 4631 3425 4513 
z
M 1741 5110 
L 1081 5941 
L 1516 5941 
L 2034 5385 
L 2553 5941 
L 2988 5941 
L 2328 5110 
L 1741 5110 
z
" transform="scale(0.015625)"/>
        <path id="DejaVuSans-43" d="M 4122 4306 
L 4122 3641 
Q 3803 3938 3442 4084 
Q 3081 4231 2675 4231 
Q 1875 4231 1450 3742 
Q 1025 3253 1025 2328 
Q 1025 1406 1450 917 
Q 1875 428 2675 428 
Q 3081 428 3442 575 
Q 3803 722 4122 1019 
L 4122 359 
Q 3791 134 3420 21 
Q 3050 -91 2638 -91 
Q 1578 -91 968 557 
Q 359 1206 359 2328 
Q 359 3453 968 4101 
Q 1578 4750 2638 4750 
Q 3056 4750 3426 4639 
Q 3797 4528 4122 4306 
z
" transform="scale(0.015625)"/>
       </defs>
       <use xlink:href="#DejaVuSans-4e"/>
       <use xlink:href="#DejaVuSans-41" transform="translate(74.804688 0)"/>
       <use xlink:href="#DejaVuSans-160" transform="translate(143.212891 0)"/>
       <use xlink:href="#DejaVuSans-49" transform="translate(206.689453 0)"/>
       <use xlink:href="#DejaVuSans-43" transform="translate(236.181641 0)"/>
       <use xlink:href="#DejaVuSans-45" transform="translate(306.005859 0)"/>
      </g>
     </g>
    </g>
    <g id="xtick_4">
     <g id="line2d_4">
      <g>
       <use xlink:href="#me124f48a6a" x="195.554733" y="348.969399" style="stroke: #000000; stroke-width: 0.8"/>
      </g>
     </g>
     <g id="text_4">
      <!-- BELI MANASTIR -->
      <g transform="translate(139.619272 415.807206) rotate(-45) scale(0.1 -0.1)">
       <defs>
        <path id="DejaVuSans-42" d="M 1259 2228 
L 1259 519 
L 2272 519 
Q 2781 519 3026 730 
Q 3272 941 3272 1375 
Q 3272 1813 3026 2020 
Q 2781 2228 2272 2228 
L 1259 2228 
z
M 1259 4147 
L 1259 2741 
L 2194 2741 
Q 2656 2741 2882 2914 
Q 3109 3088 3109 3444 
Q 3109 3797 2882 3972 
Q 2656 4147 2194 4147 
L 1259 4147 
z
M 628 4666 
L 2241 4666 
Q 2963 4666 3353 4366 
Q 3744 4066 3744 3513 
Q 3744 3084 3544 2831 
Q 3344 2578 2956 2516 
Q 3422 2416 3680 2098 
Q 3938 1781 3938 1306 
Q 3938 681 3513 340 
Q 3088 0 2303 0 
L 628 0 
L 628 4666 
z
" transform="scale(0.015625)"/>
        <path id="DejaVuSans-4c" d="M 628 4666 
L 1259 4666 
L 1259 531 
L 3531 531 
L 3531 0 
L 628 0 
L 628 4666 
z
" transform="scale(0.015625)"/>
        <path id="DejaVuSans-4d" d="M 628 4666 
L 1569 4666 
L 2759 1491 
L 3956 4666 
L 4897 4666 
L 4897 0 
L 4281 0 
L 4281 4097 
L 3078 897 
L 2444 897 
L 1241 4097 
L 1241 0 
L 628 0 
L 628 4666 
z
" transform="scale(0.015625)"/>
        <path id="DejaVuSans-54" d="M -19 4666 
L 3928 4666 
L 3928 4134 
L 2272 4134 
L 2272 0 
L 1638 0 
L 1638 4134 
L -19 4134 
L -19 4666 
z
" transform="scale(0.015625)"/>
        <path id="DejaVuSans-52" d="M 2841 2188 
Q 3044 2119 3236 1894 
Q 3428 1669 3622 1275 
L 4263 0 
L 3584 0 
L 2988 1197 
Q 2756 1666 2539 1819 
Q 2322 1972 1947 1972 
L 1259 1972 
L 1259 0 
L 628 0 
L 628 4666 
L 2053 4666 
Q 2853 4666 3247 4331 
Q 3641 3997 3641 3322 
Q 3641 2881 3436 2590 
Q 3231 2300 2841 2188 
z
M 1259 4147 
L 1259 2491 
L 2053 2491 
Q 2509 2491 2742 2702 
Q 2975 2913 2975 3322 
Q 2975 3731 2742 3939 
Q 2509 4147 2053 4147 
L 1259 4147 
z
" transform="scale(0.015625)"/>
       </defs>
       <use xlink:href="#DejaVuSans-42"/>
       <use xlink:href="#DejaVuSans-45" transform="translate(68.603516 0)"/>
       <use xlink:href="#DejaVuSans-4c" transform="translate(131.787109 0)"/>
       <use xlink:href="#DejaVuSans-49" transform="translate(187.5 0)"/>
       <use xlink:href="#DejaVuSans-20" transform="translate(216.992188 0)"/>
       <use xlink:href="#DejaVuSans-4d" transform="translate(248.779297 0)"/>
       <use xlink:href="#DejaVuSans-41" transform="translate(335.058594 0)"/>
       <use xlink:href="#DejaVuSans-4e" transform="translate(403.466797 0)"/>
       <use xlink:href="#DejaVuSans-41" transform="translate(478.271484 0)"/>
       <use xlink:href="#DejaVuSans-53" transform="translate(546.679688 0)"/>
       <use xlink:href="#DejaVuSans-54" transform="translate(610.15625 0)"/>
       <use xlink:href="#DejaVuSans-49" transform="translate(671.240234 0)"/>
       <use xlink:href="#DejaVuSans-52" transform="translate(700.732422 0)"/>
      </g>
     </g>
    </g>
    <g id="xtick_5">
     <g id="line2d_5">
      <g>
       <use xlink:href="#me124f48a6a" x="229.297435" y="348.969399" style="stroke: #000000; stroke-width: 0.8"/>
      </g>
     </g>
     <g id="text_5">
      <!-- OSIJEK 4 -->
      <g transform="translate(197.74832 391.420861) rotate(-45) scale(0.1 -0.1)">
       <defs>
        <path id="DejaVuSans-34" d="M 2419 4116 
L 825 1625 
L 2419 1625 
L 2419 4116 
z
M 2253 4666 
L 3047 4666 
L 3047 1625 
L 3713 1625 
L 3713 1100 
L 3047 1100 
L 3047 0 
L 2419 0 
L 2419 1100 
L 313 1100 
L 313 1709 
L 2253 4666 
z
" transform="scale(0.015625)"/>
       </defs>
       <use xlink:href="#DejaVuSans-4f"/>
       <use xlink:href="#DejaVuSans-53" transform="translate(78.710938 0)"/>
       <use xlink:href="#DejaVuSans-49" transform="translate(142.1875 0)"/>
       <use xlink:href="#DejaVuSans-4a" transform="translate(171.679688 0)"/>
       <use xlink:href="#DejaVuSans-45" transform="translate(201.171875 0)"/>
       <use xlink:href="#DejaVuSans-4b" transform="translate(264.355469 0)"/>
       <use xlink:href="#DejaVuSans-20" transform="translate(329.931641 0)"/>
       <use xlink:href="#DejaVuSans-34" transform="translate(361.71875 0)"/>
      </g>
     </g>
    </g>
    <g id="xtick_6">
     <g id="line2d_6">
      <g>
       <use xlink:href="#me124f48a6a" x="263.040138" y="348.969399" style="stroke: #000000; stroke-width: 0.8"/>
      </g>
     </g>
     <g id="text_6">
      <!-- VALPOVO -->
      <g transform="translate(228.420632 394.491251) rotate(-45) scale(0.1 -0.1)">
       <defs>
        <path id="DejaVuSans-50" d="M 1259 4147 
L 1259 2394 
L 2053 2394 
Q 2494 2394 2734 2622 
Q 2975 2850 2975 3272 
Q 2975 3691 2734 3919 
Q 2494 4147 2053 4147 
L 1259 4147 
z
M 628 4666 
L 2053 4666 
Q 2838 4666 3239 4311 
Q 3641 3956 3641 3272 
Q 3641 2581 3239 2228 
Q 2838 1875 2053 1875 
L 1259 1875 
L 1259 0 
L 628 0 
L 628 4666 
z
" transform="scale(0.015625)"/>
       </defs>
       <use xlink:href="#DejaVuSans-56"/>
       <use xlink:href="#DejaVuSans-41" transform="translate(62.033203 0)"/>
       <use xlink:href="#DejaVuSans-4c" transform="translate(130.441406 0)"/>
       <use xlink:href="#DejaVuSans-50" transform="translate(186.154297 0)"/>
       <use xlink:href="#DejaVuSans-4f" transform="translate(246.457031 0)"/>
       <use xlink:href="#DejaVuSans-56" transform="translate(323.417969 0)"/>
       <use xlink:href="#DejaVuSans-4f" transform="translate(390.076172 0)"/>
      </g>
     </g>
    </g>
    <g id="xtick_7">
     <g id="line2d_7">
      <g>
       <use xlink:href="#me124f48a6a" x="296.78284" y="348.969399" style="stroke: #000000; stroke-width: 0.8"/>
      </g>
     </g>
     <g id="text_7">
      <!-- OSIJEK 3 -->
      <g transform="translate(265.233724 391.420861) rotate(-45) scale(0.1 -0.1)">
       <use xlink:href="#DejaVuSans-4f"/>
       <use xlink:href="#DejaVuSans-53" transform="translate(78.710938 0)"/>
       <use xlink:href="#DejaVuSans-49" transform="translate(142.1875 0)"/>
       <use xlink:href="#DejaVuSans-4a" transform="translate(171.679688 0)"/>
       <use xlink:href="#DejaVuSans-45" transform="translate(201.171875 0)"/>
       <use xlink:href="#DejaVuSans-4b" transform="translate(264.355469 0)"/>
       <use xlink:href="#DejaVuSans-20" transform="translate(329.931641 0)"/>
       <use xlink:href="#DejaVuSans-33" transform="translate(361.71875 0)"/>
      </g>
     </g>
    </g>
    <g id="xtick_8">
     <g id="line2d_8">
      <g>
       <use xlink:href="#me124f48a6a" x="330.525542" y="348.969399" style="stroke: #000000; stroke-width: 0.8"/>
      </g>
     </g>
     <g id="text_8">
      <!-- ĐAKOVO -->
      <g transform="translate(298.892457 391.50483) rotate(-45) scale(0.1 -0.1)">
       <use xlink:href="#DejaVuSans-110"/>
       <use xlink:href="#DejaVuSans-41" transform="translate(75.740234 0)"/>
       <use xlink:href="#DejaVuSans-4b" transform="translate(144.148438 0)"/>
       <use xlink:href="#DejaVuSans-4f" transform="translate(204.224609 0)"/>
       <use xlink:href="#DejaVuSans-56" transform="translate(281.185547 0)"/>
       <use xlink:href="#DejaVuSans-4f" transform="translate(347.84375 0)"/>
      </g>
     </g>
    </g>
    <g id="xtick_9">
     <g id="line2d_9">
      <g>
       <use xlink:href="#me124f48a6a" x="364.268244" y="348.969399" style="stroke: #000000; stroke-width: 0.8"/>
      </g>
     </g>
     <g id="text_9">
      <!-- OSIJEK 1 -->
      <g transform="translate(332.719129 391.420861) rotate(-45) scale(0.1 -0.1)">
       <defs>
        <path id="DejaVuSans-31" d="M 794 531 
L 1825 531 
L 1825 4091 
L 703 3866 
L 703 4441 
L 1819 4666 
L 2450 4666 
L 2450 531 
L 3481 531 
L 3481 0 
L 794 0 
L 794 531 
z
" transform="scale(0.015625)"/>
       </defs>
       <use xlink:href="#DejaVuSans-4f"/>
       <use xlink:href="#DejaVuSans-53" transform="translate(78.710938 0)"/>
       <use xlink:href="#DejaVuSans-49" transform="translate(142.1875 0)"/>
       <use xlink:href="#DejaVuSans-4a" transform="translate(171.679688 0)"/>
       <use xlink:href="#DejaVuSans-45" transform="translate(201.171875 0)"/>
       <use xlink:href="#DejaVuSans-4b" transform="translate(264.355469 0)"/>
       <use xlink:href="#DejaVuSans-20" transform="translate(329.931641 0)"/>
       <use xlink:href="#DejaVuSans-31" transform="translate(361.71875 0)"/>
      </g>
     </g>
    </g>
    <g id="xtick_10">
     <g id="line2d_10">
      <g>
       <use xlink:href="#me124f48a6a" x="398.010947" y="348.969399" style="stroke: #000000; stroke-width: 0.8"/>
      </g>
     </g>
     <g id="text_10">
      <!-- DONJI MIHOLJAC -->
      <g transform="translate(339.196235 418.686456) rotate(-45) scale(0.1 -0.1)">
       <defs>
        <path id="DejaVuSans-44" d="M 1259 4147 
L 1259 519 
L 2022 519 
Q 2988 519 3436 956 
Q 3884 1394 3884 2338 
Q 3884 3275 3436 3711 
Q 2988 4147 2022 4147 
L 1259 4147 
z
M 628 4666 
L 1925 4666 
Q 3281 4666 3915 4102 
Q 4550 3538 4550 2338 
Q 4550 1131 3912 565 
Q 3275 0 1925 0 
L 628 0 
L 628 4666 
z
" transform="scale(0.015625)"/>
        <path id="DejaVuSans-48" d="M 628 4666 
L 1259 4666 
L 1259 2753 
L 3553 2753 
L 3553 4666 
L 4184 4666 
L 4184 0 
L 3553 0 
L 3553 2222 
L 1259 2222 
L 1259 0 
L 628 0 
L 628 4666 
z
" transform="scale(0.015625)"/>
       </defs>
       <use xlink:href="#DejaVuSans-44"/>
       <use xlink:href="#DejaVuSans-4f" transform="translate(77.001953 0)"/>
       <use xlink:href="#DejaVuSans-4e" transform="translate(155.712891 0)"/>
       <use xlink:href="#DejaVuSans-4a" transform="translate(230.517578 0)"/>
       <use xlink:href="#DejaVuSans-49" transform="translate(260.009766 0)"/>
       <use xlink:href="#DejaVuSans-20" transform="translate(289.501953 0)"/>
       <use xlink:href="#DejaVuSans-4d" transform="translate(321.289062 0)"/>
       <use xlink:href="#DejaVuSans-49" transform="translate(407.568359 0)"/>
       <use xlink:href="#DejaVuSans-48" transform="translate(437.060547 0)"/>
       <use xlink:href="#DejaVuSans-4f" transform="translate(512.255859 0)"/>
       <use xlink:href="#DejaVuSans-4c" transform="translate(590.966797 0)"/>
       <use xlink:href="#DejaVuSans-4a" transform="translate(646.679688 0)"/>
       <use xlink:href="#DejaVuSans-41" transform="translate(674.421875 0)"/>
       <use xlink:href="#DejaVuSans-43" transform="translate(741.080078 0)"/>
      </g>
     </g>
    </g>
    <g id="xtick_11">
     <g id="line2d_11">
      <g>
       <use xlink:href="#me124f48a6a" x="431.753649" y="348.969399" style="stroke: #000000; stroke-width: 0.8"/>
      </g>
     </g>
     <g id="text_11">
      <!-- ĐAKOVO 2 -->
      <g transform="translate(393.374323 398.25107) rotate(-45) scale(0.1 -0.1)">
       <use xlink:href="#DejaVuSans-110"/>
       <use xlink:href="#DejaVuSans-41" transform="translate(75.740234 0)"/>
       <use xlink:href="#DejaVuSans-4b" transform="translate(144.148438 0)"/>
       <use xlink:href="#DejaVuSans-4f" transform="translate(204.224609 0)"/>
       <use xlink:href="#DejaVuSans-56" transform="translate(281.185547 0)"/>
       <use xlink:href="#DejaVuSans-4f" transform="translate(347.84375 0)"/>
       <use xlink:href="#DejaVuSans-20" transform="translate(426.554688 0)"/>
       <use xlink:href="#DejaVuSans-32" transform="translate(458.341797 0)"/>
      </g>
     </g>
    </g>
    <g id="xtick_12">
     <g id="line2d_12">
      <g>
       <use xlink:href="#me124f48a6a" x="465.496351" y="348.969399" style="stroke: #000000; stroke-width: 0.8"/>
      </g>
     </g>
     <g id="text_12">
      <!-- ŽUPANJA -->
      <g transform="translate(433.26775 393.236137) rotate(-45) scale(0.1 -0.1)">
       <defs>
        <path id="DejaVuSans-17d" d="M 359 4666 
L 4025 4666 
L 4025 4184 
L 1075 531 
L 4097 531 
L 4097 0 
L 288 0 
L 288 481 
L 3238 4134 
L 359 4134 
L 359 4666 
z
M 1900 5110 
L 1241 5941 
L 1675 5941 
L 2194 5385 
L 2713 5941 
L 3147 5941 
L 2488 5110 
L 1900 5110 
z
" transform="scale(0.015625)"/>
        <path id="DejaVuSans-55" d="M 556 4666 
L 1191 4666 
L 1191 1831 
Q 1191 1081 1462 751 
Q 1734 422 2344 422 
Q 2950 422 3222 751 
Q 3494 1081 3494 1831 
L 3494 4666 
L 4128 4666 
L 4128 1753 
Q 4128 841 3676 375 
Q 3225 -91 2344 -91 
Q 1459 -91 1007 375 
Q 556 841 556 1753 
L 556 4666 
z
" transform="scale(0.015625)"/>
       </defs>
       <use xlink:href="#DejaVuSans-17d"/>
       <use xlink:href="#DejaVuSans-55" transform="translate(68.505859 0)"/>
       <use xlink:href="#DejaVuSans-50" transform="translate(141.699219 0)"/>
       <use xlink:href="#DejaVuSans-41" transform="translate(195.626953 0)"/>
       <use xlink:href="#DejaVuSans-4e" transform="translate(264.035156 0)"/>
       <use xlink:href="#DejaVuSans-4a" transform="translate(338.839844 0)"/>
       <use xlink:href="#DejaVuSans-41" transform="translate(366.582031 0)"/>
      </g>
     </g>
    </g>
    <g id="xtick_13">
     <g id="line2d_13">
      <g>
       <use xlink:href="#me124f48a6a" x="499.239053" y="348.969399" style="stroke: #000000; stroke-width: 0.8"/>
      </g>
     </g>
     <g id="text_13">
      <!-- VINKOVCI -->
      <g transform="translate(464.004143 395.106655) rotate(-45) scale(0.1 -0.1)">
       <use xlink:href="#DejaVuSans-56"/>
       <use xlink:href="#DejaVuSans-49" transform="translate(68.408203 0)"/>
       <use xlink:href="#DejaVuSans-4e" transform="translate(97.900391 0)"/>
       <use xlink:href="#DejaVuSans-4b" transform="translate(172.705078 0)"/>
       <use xlink:href="#DejaVuSans-4f" transform="translate(232.78125 0)"/>
       <use xlink:href="#DejaVuSans-56" transform="translate(309.742188 0)"/>
       <use xlink:href="#DejaVuSans-43" transform="translate(378.150391 0)"/>
       <use xlink:href="#DejaVuSans-49" transform="translate(447.974609 0)"/>
      </g>
     </g>
    </g>
    <g id="xtick_14">
     <g id="line2d_14">
      <g>
       <use xlink:href="#me124f48a6a" x="532.981756" y="348.969399" style="stroke: #000000; stroke-width: 0.8"/>
      </g>
     </g>
     <g id="text_14">
      <!-- VUKOVAR -->
      <g transform="translate(497.671716 395.181785) rotate(-45) scale(0.1 -0.1)">
       <use xlink:href="#DejaVuSans-56"/>
       <use xlink:href="#DejaVuSans-55" transform="translate(68.408203 0)"/>
       <use xlink:href="#DejaVuSans-4b" transform="translate(141.601562 0)"/>
       <use xlink:href="#DejaVuSans-4f" transform="translate(201.677734 0)"/>
       <use xlink:href="#DejaVuSans-56" transform="translate(278.638672 0)"/>
       <use xlink:href="#DejaVuSans-41" transform="translate(340.671875 0)"/>
       <use xlink:href="#DejaVuSans-52" transform="translate(409.080078 0)"/>
      </g>
     </g>
    </g>
    <g id="xtick_15">
     <g id="line2d_15">
      <g>
       <use xlink:href="#me124f48a6a" x="566.724458" y="348.969399" style="stroke: #000000; stroke-width: 0.8"/>
      </g>
     </g>
     <g id="text_15">
      <!-- NIJEMCI -->
      <g transform="translate(538.199328 388.396874) rotate(-45) scale(0.1 -0.1)">
       <use xlink:href="#DejaVuSans-4e"/>
       <use xlink:href="#DejaVuSans-49" transform="translate(74.804688 0)"/>
       <use xlink:href="#DejaVuSans-4a" transform="translate(104.296875 0)"/>
       <use xlink:href="#DejaVuSans-45" transform="translate(133.789062 0)"/>
       <use xlink:href="#DejaVuSans-4d" transform="translate(196.972656 0)"/>
       <use xlink:href="#DejaVuSans-43" transform="translate(283.251953 0)"/>
       <use xlink:href="#DejaVuSans-49" transform="translate(353.076172 0)"/>
      </g>
     </g>
    </g>
    <g id="xtick_16">
     <g id="line2d_16">
      <g>
       <use xlink:href="#me124f48a6a" x="600.46716" y="348.969399" style="stroke: #000000; stroke-width: 0.8"/>
      </g>
     </g>
     <g id="text_16">
      <!-- NOVA GRADIŠKA -->
      <g transform="translate(540.476884 419.862021) rotate(-45) scale(0.1 -0.1)">
       <defs>
        <path id="DejaVuSans-47" d="M 3809 666 
L 3809 1919 
L 2778 1919 
L 2778 2438 
L 4434 2438 
L 4434 434 
Q 4069 175 3628 42 
Q 3188 -91 2688 -91 
Q 1594 -91 976 548 
Q 359 1188 359 2328 
Q 359 3472 976 4111 
Q 1594 4750 2688 4750 
Q 3144 4750 3555 4637 
Q 3966 4525 4313 4306 
L 4313 3634 
Q 3963 3931 3569 4081 
Q 3175 4231 2741 4231 
Q 1884 4231 1454 3753 
Q 1025 3275 1025 2328 
Q 1025 1384 1454 906 
Q 1884 428 2741 428 
Q 3075 428 3337 486 
Q 3600 544 3809 666 
z
" transform="scale(0.015625)"/>
       </defs>
       <use xlink:href="#DejaVuSans-4e"/>
       <use xlink:href="#DejaVuSans-4f" transform="translate(74.804688 0)"/>
       <use xlink:href="#DejaVuSans-56" transform="translate(151.765625 0)"/>
       <use xlink:href="#DejaVuSans-41" transform="translate(213.798828 0)"/>
       <use xlink:href="#DejaVuSans-20" transform="translate(282.207031 0)"/>
       <use xlink:href="#DejaVuSans-47" transform="translate(313.994141 0)"/>
       <use xlink:href="#DejaVuSans-52" transform="translate(391.484375 0)"/>
       <use xlink:href="#DejaVuSans-41" transform="translate(456.966797 0)"/>
       <use xlink:href="#DejaVuSans-44" transform="translate(525.375 0)"/>
       <use xlink:href="#DejaVuSans-49" transform="translate(602.376953 0)"/>
       <use xlink:href="#DejaVuSans-160" transform="translate(631.869141 0)"/>
       <use xlink:href="#DejaVuSans-4b" transform="translate(695.345703 0)"/>
       <use xlink:href="#DejaVuSans-41" transform="translate(759.171875 0)"/>
      </g>
     </g>
    </g>
    <g id="xtick_17">
     <g id="line2d_17">
      <g>
       <use xlink:href="#me124f48a6a" x="634.209862" y="348.969399" style="stroke: #000000; stroke-width: 0.8"/>
      </g>
     </g>
     <g id="text_17">
      <!-- SL. BROD 2 -->
      <g transform="translate(592.293898 401.787709) rotate(-45) scale(0.1 -0.1)">
       <defs>
        <path id="DejaVuSans-2e" d="M 684 794 
L 1344 794 
L 1344 0 
L 684 0 
L 684 794 
z
" transform="scale(0.015625)"/>
       </defs>
       <use xlink:href="#DejaVuSans-53"/>
       <use xlink:href="#DejaVuSans-4c" transform="translate(63.476562 0)"/>
       <use xlink:href="#DejaVuSans-2e" transform="translate(119.189453 0)"/>
       <use xlink:href="#DejaVuSans-20" transform="translate(150.976562 0)"/>
       <use xlink:href="#DejaVuSans-42" transform="translate(182.763672 0)"/>
       <use xlink:href="#DejaVuSans-52" transform="translate(251.367188 0)"/>
       <use xlink:href="#DejaVuSans-4f" transform="translate(320.849609 0)"/>
       <use xlink:href="#DejaVuSans-44" transform="translate(399.560547 0)"/>
       <use xlink:href="#DejaVuSans-20" transform="translate(476.5625 0)"/>
       <use xlink:href="#DejaVuSans-32" transform="translate(508.349609 0)"/>
      </g>
     </g>
    </g>
    <g id="xtick_18">
     <g id="line2d_18">
      <g>
       <use xlink:href="#me124f48a6a" x="667.952565" y="348.969399" style="stroke: #000000; stroke-width: 0.8"/>
      </g>
     </g>
     <g id="text_18">
      <!-- SL. BROD 1 -->
      <g transform="translate(626.0366 401.787709) rotate(-45) scale(0.1 -0.1)">
       <use xlink:href="#DejaVuSans-53"/>
       <use xlink:href="#DejaVuSans-4c" transform="translate(63.476562 0)"/>
       <use xlink:href="#DejaVuSans-2e" transform="translate(119.189453 0)"/>
       <use xlink:href="#DejaVuSans-20" transform="translate(150.976562 0)"/>
       <use xlink:href="#DejaVuSans-42" transform="translate(182.763672 0)"/>
       <use xlink:href="#DejaVuSans-52" transform="translate(251.367188 0)"/>
       <use xlink:href="#DejaVuSans-4f" transform="translate(320.849609 0)"/>
       <use xlink:href="#DejaVuSans-44" transform="translate(399.560547 0)"/>
       <use xlink:href="#DejaVuSans-20" transform="translate(476.5625 0)"/>
       <use xlink:href="#DejaVuSans-31" transform="translate(508.349609 0)"/>
      </g>
     </g>
    </g>
    <g id="xtick_19">
     <g id="line2d_19">
      <g>
       <use xlink:href="#me124f48a6a" x="701.695267" y="348.969399" style="stroke: #000000; stroke-width: 0.8"/>
      </g>
     </g>
     <g id="text_19">
      <!-- ANDRIJEVCI -->
      <g transform="translate(659.239029 402.327983) rotate(-45) scale(0.1 -0.1)">
       <use xlink:href="#DejaVuSans-41"/>
       <use xlink:href="#DejaVuSans-4e" transform="translate(68.408203 0)"/>
       <use xlink:href="#DejaVuSans-44" transform="translate(143.212891 0)"/>
       <use xlink:href="#DejaVuSans-52" transform="translate(220.214844 0)"/>
       <use xlink:href="#DejaVuSans-49" transform="translate(289.697266 0)"/>
       <use xlink:href="#DejaVuSans-4a" transform="translate(319.189453 0)"/>
       <use xlink:href="#DejaVuSans-45" transform="translate(348.681641 0)"/>
       <use xlink:href="#DejaVuSans-56" transform="translate(411.865234 0)"/>
       <use xlink:href="#DejaVuSans-43" transform="translate(480.273438 0)"/>
       <use xlink:href="#DejaVuSans-49" transform="translate(550.097656 0)"/>
      </g>
     </g>
    </g>
    <g id="xtick_20">
     <g id="line2d_20">
      <g>
       <use xlink:href="#me124f48a6a" x="735.437969" y="348.969399" style="stroke: #000000; stroke-width: 0.8"/>
      </g>
     </g>
     <g id="text_20">
      <!-- VIROVITICA -->
      <g transform="translate(693.586087 401.723628) rotate(-45) scale(0.1 -0.1)">
       <use xlink:href="#DejaVuSans-56"/>
       <use xlink:href="#DejaVuSans-49" transform="translate(68.408203 0)"/>
       <use xlink:href="#DejaVuSans-52" transform="translate(97.900391 0)"/>
       <use xlink:href="#DejaVuSans-4f" transform="translate(167.382812 0)"/>
       <use xlink:href="#DejaVuSans-56" transform="translate(244.34375 0)"/>
       <use xlink:href="#DejaVuSans-49" transform="translate(312.751953 0)"/>
       <use xlink:href="#DejaVuSans-54" transform="translate(342.244141 0)"/>
       <use xlink:href="#DejaVuSans-49" transform="translate(403.328125 0)"/>
       <use xlink:href="#DejaVuSans-43" transform="translate(432.820312 0)"/>
       <use xlink:href="#DejaVuSans-41" transform="translate(502.644531 0)"/>
      </g>
     </g>
    </g>
    <g id="xtick_21">
     <g id="line2d_21">
      <g>
       <use xlink:href="#me124f48a6a" x="769.180671" y="348.969399" style="stroke: #000000; stroke-width: 0.8"/>
      </g>
     </g>
     <g id="text_21">
      <!-- SLATINA -->
      <g transform="translate(738.301097 390.751319) rotate(-45) scale(0.1 -0.1)">
       <use xlink:href="#DejaVuSans-53"/>
       <use xlink:href="#DejaVuSans-4c" transform="translate(63.476562 0)"/>
       <use xlink:href="#DejaVuSans-41" transform="translate(121.439453 0)"/>
       <use xlink:href="#DejaVuSans-54" transform="translate(182.097656 0)"/>
       <use xlink:href="#DejaVuSans-49" transform="translate(243.181641 0)"/>
       <use xlink:href="#DejaVuSans-4e" transform="translate(272.673828 0)"/>
       <use xlink:href="#DejaVuSans-41" transform="translate(347.478516 0)"/>
      </g>
     </g>
    </g>
    <g id="xtick_22">
     <g id="line2d_22">
      <g>
       <use xlink:href="#me124f48a6a" x="802.923374" y="348.969399" style="stroke: #000000; stroke-width: 0.8"/>
      </g>
     </g>
     <g id="text_22">
      <!-- POŽEGA -->
      <g transform="translate(771.995186 390.799933) rotate(-45) scale(0.1 -0.1)">
       <use xlink:href="#DejaVuSans-50"/>
       <use xlink:href="#DejaVuSans-4f" transform="translate(60.302734 0)"/>
       <use xlink:href="#DejaVuSans-17d" transform="translate(139.013672 0)"/>
       <use xlink:href="#DejaVuSans-45" transform="translate(207.519531 0)"/>
       <use xlink:href="#DejaVuSans-47" transform="translate(270.703125 0)"/>
       <use xlink:href="#DejaVuSans-41" transform="translate(348.193359 0)"/>
      </g>
     </g>
    </g>
   </g>
   <g id="matplotlib.axis_2">
    <g id="ytick_1">
     <g id="line2d_23">
      <path d="M 44.05 348.969399 
L 853.2 348.969399 
" clip-path="url(#p65b401a482)" style="fill: none; stroke: #b0b0b0; stroke-width: 0.8; stroke-linecap: square"/>
     </g>
     <g id="line2d_24">
      <defs>
       <path id="m105ae219d8" d="M 0 0 
L -3.5 0 
" style="stroke: #000000; stroke-width: 0.8"/>
      </defs>
      <g>
       <use xlink:href="#m105ae219d8" x="44.05" y="348.969399" style="stroke: #000000; stroke-width: 0.8"/>
      </g>
     </g>
     <g id="text_23">
      <!-- 0 -->
      <g transform="translate(30.6875 352.768618) scale(0.1 -0.1)">
       <defs>
        <path id="DejaVuSans-30" d="M 2034 4250 
Q 1547 4250 1301 3770 
Q 1056 3291 1056 2328 
Q 1056 1369 1301 889 
Q 1547 409 2034 409 
Q 2525 409 2770 889 
Q 3016 1369 3016 2328 
Q 3016 3291 2770 3770 
Q 2525 4250 2034 4250 
z
M 2034 4750 
Q 2819 4750 3233 4129 
Q 3647 3509 3647 2328 
Q 3647 1150 3233 529 
Q 2819 -91 2034 -91 
Q 1250 -91 836 529 
Q 422 1150 422 2328 
Q 422 3509 836 4129 
Q 1250 4750 2034 4750 
z
" transform="scale(0.015625)"/>
       </defs>
       <use xlink:href="#DejaVuSans-30"/>
      </g>
     </g>
    </g>
    <g id="ytick_2">
     <g id="line2d_25">
      <path d="M 44.05 293.775333 
L 853.2 293.775333 
" clip-path="url(#p65b401a482)" style="fill: none; stroke: #b0b0b0; stroke-width: 0.8; stroke-linecap: square"/>
     </g>
     <g id="line2d_26">
      <g>
       <use xlink:href="#m105ae219d8" x="44.05" y="293.775333" style="stroke: #000000; stroke-width: 0.8"/>
      </g>
     </g>
     <g id="text_24">
      <!-- 5 -->
      <g transform="translate(30.6875 297.574552) scale(0.1 -0.1)">
       <defs>
        <path id="DejaVuSans-35" d="M 691 4666 
L 3169 4666 
L 3169 4134 
L 1269 4134 
L 1269 2991 
Q 1406 3038 1543 3061 
Q 1681 3084 1819 3084 
Q 2600 3084 3056 2656 
Q 3513 2228 3513 1497 
Q 3513 744 3044 326 
Q 2575 -91 1722 -91 
Q 1428 -91 1123 -41 
Q 819 9 494 109 
L 494 744 
Q 775 591 1075 516 
Q 1375 441 1709 441 
Q 2250 441 2565 725 
Q 2881 1009 2881 1497 
Q 2881 1984 2565 2268 
Q 2250 2553 1709 2553 
Q 1456 2553 1204 2497 
Q 953 2441 691 2322 
L 691 4666 
z
" transform="scale(0.015625)"/>
       </defs>
       <use xlink:href="#DejaVuSans-35"/>
      </g>
     </g>
    </g>
    <g id="ytick_3">
     <g id="line2d_27">
      <path d="M 44.05 238.581266 
L 853.2 238.581266 
" clip-path="url(#p65b401a482)" style="fill: none; stroke: #b0b0b0; stroke-width: 0.8; stroke-linecap: square"/>
     </g>
     <g id="line2d_28">
      <g>
       <use xlink:href="#m105ae219d8" x="44.05" y="238.581266" style="stroke: #000000; stroke-width: 0.8"/>
      </g>
     </g>
     <g id="text_25">
      <!-- 10 -->
      <g transform="translate(24.325 242.380485) scale(0.1 -0.1)">
       <use xlink:href="#DejaVuSans-31"/>
       <use xlink:href="#DejaVuSans-30" transform="translate(63.623047 0)"/>
      </g>
     </g>
    </g>
    <g id="ytick_4">
     <g id="line2d_29">
      <path d="M 44.05 183.387199 
L 853.2 183.387199 
" clip-path="url(#p65b401a482)" style="fill: none; stroke: #b0b0b0; stroke-width: 0.8; stroke-linecap: square"/>
     </g>
     <g id="line2d_30">
      <g>
       <use xlink:href="#m105ae219d8" x="44.05" y="183.387199" style="stroke: #000000; stroke-width: 0.8"/>
      </g>
     </g>
     <g id="text_26">
      <!-- 15 -->
      <g transform="translate(24.325 187.186418) scale(0.1 -0.1)">
       <use xlink:href="#DejaVuSans-31"/>
       <use xlink:href="#DejaVuSans-35" transform="translate(63.623047 0)"/>
      </g>
     </g>
    </g>
    <g id="ytick_5">
     <g id="line2d_31">
      <path d="M 44.05 128.193133 
L 853.2 128.193133 
" clip-path="url(#p65b401a482)" style="fill: none; stroke: #b0b0b0; stroke-width: 0.8; stroke-linecap: square"/>
     </g>
     <g id="line2d_32">
      <g>
       <use xlink:href="#m105ae219d8" x="44.05" y="128.193133" style="stroke: #000000; stroke-width: 0.8"/>
      </g>
     </g>
     <g id="text_27">
      <!-- 20 -->
      <g transform="translate(24.325 131.992351) scale(0.1 -0.1)">
       <use xlink:href="#DejaVuSans-32"/>
       <use xlink:href="#DejaVuSans-30" transform="translate(63.623047 0)"/>
      </g>
     </g>
    </g>
    <g id="ytick_6">
     <g id="line2d_33">
      <path d="M 44.05 72.999066 
L 853.2 72.999066 
" clip-path="url(#p65b401a482)" style="fill: none; stroke: #b0b0b0; stroke-width: 0.8; stroke-linecap: square"/>
     </g>
     <g id="line2d_34">
      <g>
       <use xlink:href="#m105ae219d8" x="44.05" y="72.999066" style="stroke: #000000; stroke-width: 0.8"/>
      </g>
     </g>
     <g id="text_28">
      <!-- 25 -->
      <g transform="translate(24.325 76.798285) scale(0.1 -0.1)">
       <use xlink:href="#DejaVuSans-32"/>
       <use xlink:href="#DejaVuSans-35" transform="translate(63.623047 0)"/>
      </g>
     </g>
    </g>
    <g id="text_29">
     <!-- Instalirana snaga [MW] -->
     <g transform="translate(18.245313 245.826106) rotate(-90) scale(0.1 -0.1)">
      <defs>
       <path id="DejaVuSans-6e" d="M 3513 2113 
L 3513 0 
L 2938 0 
L 2938 2094 
Q 2938 2591 2744 2837 
Q 2550 3084 2163 3084 
Q 1697 3084 1428 2787 
Q 1159 2491 1159 1978 
L 1159 0 
L 581 0 
L 581 3500 
L 1159 3500 
L 1159 2956 
Q 1366 3272 1645 3428 
Q 1925 3584 2291 3584 
Q 2894 3584 3203 3211 
Q 3513 2838 3513 2113 
z
" transform="scale(0.015625)"/>
       <path id="DejaVuSans-73" d="M 2834 3397 
L 2834 2853 
Q 2591 2978 2328 3040 
Q 2066 3103 1784 3103 
Q 1356 3103 1142 2972 
Q 928 2841 928 2578 
Q 928 2378 1081 2264 
Q 1234 2150 1697 2047 
L 1894 2003 
Q 2506 1872 2764 1633 
Q 3022 1394 3022 966 
Q 3022 478 2636 193 
Q 2250 -91 1575 -91 
Q 1294 -91 989 -36 
Q 684 19 347 128 
L 347 722 
Q 666 556 975 473 
Q 1284 391 1588 391 
Q 1994 391 2212 530 
Q 2431 669 2431 922 
Q 2431 1156 2273 1281 
Q 2116 1406 1581 1522 
L 1381 1569 
Q 847 1681 609 1914 
Q 372 2147 372 2553 
Q 372 3047 722 3315 
Q 1072 3584 1716 3584 
Q 2034 3584 2315 3537 
Q 2597 3491 2834 3397 
z
" transform="scale(0.015625)"/>
       <path id="DejaVuSans-74" d="M 1172 4494 
L 1172 3500 
L 2356 3500 
L 2356 3053 
L 1172 3053 
L 1172 1153 
Q 1172 725 1289 603 
Q 1406 481 1766 481 
L 2356 481 
L 2356 0 
L 1766 0 
Q 1100 0 847 248 
Q 594 497 594 1153 
L 594 3053 
L 172 3053 
L 172 3500 
L 594 3500 
L 594 4494 
L 1172 4494 
z
" transform="scale(0.015625)"/>
       <path id="DejaVuSans-61" d="M 2194 1759 
Q 1497 1759 1228 1600 
Q 959 1441 959 1056 
Q 959 750 1161 570 
Q 1363 391 1709 391 
Q 2188 391 2477 730 
Q 2766 1069 2766 1631 
L 2766 1759 
L 2194 1759 
z
M 3341 1997 
L 3341 0 
L 2766 0 
L 2766 531 
Q 2569 213 2275 61 
Q 1981 -91 1556 -91 
Q 1019 -91 701 211 
Q 384 513 384 1019 
Q 384 1609 779 1909 
Q 1175 2209 1959 2209 
L 2766 2209 
L 2766 2266 
Q 2766 2663 2505 2880 
Q 2244 3097 1772 3097 
Q 1472 3097 1187 3025 
Q 903 2953 641 2809 
L 641 3341 
Q 956 3463 1253 3523 
Q 1550 3584 1831 3584 
Q 2591 3584 2966 3190 
Q 3341 2797 3341 1997 
z
" transform="scale(0.015625)"/>
       <path id="DejaVuSans-6c" d="M 603 4863 
L 1178 4863 
L 1178 0 
L 603 0 
L 603 4863 
z
" transform="scale(0.015625)"/>
       <path id="DejaVuSans-69" d="M 603 3500 
L 1178 3500 
L 1178 0 
L 603 0 
L 603 3500 
z
M 603 4863 
L 1178 4863 
L 1178 4134 
L 603 4134 
L 603 4863 
z
" transform="scale(0.015625)"/>
       <path id="DejaVuSans-72" d="M 2631 2963 
Q 2534 3019 2420 3045 
Q 2306 3072 2169 3072 
Q 1681 3072 1420 2755 
Q 1159 2438 1159 1844 
L 1159 0 
L 581 0 
L 581 3500 
L 1159 3500 
L 1159 2956 
Q 1341 3275 1631 3429 
Q 1922 3584 2338 3584 
Q 2397 3584 2469 3576 
Q 2541 3569 2628 3553 
L 2631 2963 
z
" transform="scale(0.015625)"/>
       <path id="DejaVuSans-67" d="M 2906 1791 
Q 2906 2416 2648 2759 
Q 2391 3103 1925 3103 
Q 1463 3103 1205 2759 
Q 947 2416 947 1791 
Q 947 1169 1205 825 
Q 1463 481 1925 481 
Q 2391 481 2648 825 
Q 2906 1169 2906 1791 
z
M 3481 434 
Q 3481 -459 3084 -895 
Q 2688 -1331 1869 -1331 
Q 1566 -1331 1297 -1286 
Q 1028 -1241 775 -1147 
L 775 -588 
Q 1028 -725 1275 -790 
Q 1522 -856 1778 -856 
Q 2344 -856 2625 -561 
Q 2906 -266 2906 331 
L 2906 616 
Q 2728 306 2450 153 
Q 2172 0 1784 0 
Q 1141 0 747 490 
Q 353 981 353 1791 
Q 353 2603 747 3093 
Q 1141 3584 1784 3584 
Q 2172 3584 2450 3431 
Q 2728 3278 2906 2969 
L 2906 3500 
L 3481 3500 
L 3481 434 
z
" transform="scale(0.015625)"/>
       <path id="DejaVuSans-5b" d="M 550 4863 
L 1875 4863 
L 1875 4416 
L 1125 4416 
L 1125 -397 
L 1875 -397 
L 1875 -844 
L 550 -844 
L 550 4863 
z
" transform="scale(0.015625)"/>
       <path id="DejaVuSans-57" d="M 213 4666 
L 850 4666 
L 1831 722 
L 2809 4666 
L 3519 4666 
L 4500 722 
L 5478 4666 
L 6119 4666 
L 4947 0 
L 4153 0 
L 3169 4050 
L 2175 0 
L 1381 0 
L 213 4666 
z
" transform="scale(0.015625)"/>
       <path id="DejaVuSans-5d" d="M 1947 4863 
L 1947 -844 
L 622 -844 
L 622 -397 
L 1369 -397 
L 1369 4416 
L 622 4416 
L 622 4863 
L 1947 4863 
z
" transform="scale(0.015625)"/>
      </defs>
      <use xlink:href="#DejaVuSans-49"/>
      <use xlink:href="#DejaVuSans-6e" transform="translate(29.492188 0)"/>
      <use xlink:href="#DejaVuSans-73" transform="translate(92.871094 0)"/>
      <use xlink:href="#DejaVuSans-74" transform="translate(144.970703 0)"/>
      <use xlink:href="#DejaVuSans-61" transform="translate(184.179688 0)"/>
      <use xlink:href="#DejaVuSans-6c" transform="translate(245.458984 0)"/>
      <use xlink:href="#DejaVuSans-69" transform="translate(273.242188 0)"/>
      <use xlink:href="#DejaVuSans-72" transform="translate(301.025391 0)"/>
      <use xlink:href="#DejaVuSans-61" transform="translate(342.138672 0)"/>
      <use xlink:href="#DejaVuSans-6e" transform="translate(403.417969 0)"/>
      <use xlink:href="#DejaVuSans-61" transform="translate(466.796875 0)"/>
      <use xlink:href="#DejaVuSans-20" transform="translate(528.076172 0)"/>
      <use xlink:href="#DejaVuSans-73" transform="translate(559.863281 0)"/>
      <use xlink:href="#DejaVuSans-6e" transform="translate(611.962891 0)"/>
      <use xlink:href="#DejaVuSans-61" transform="translate(675.341797 0)"/>
      <use xlink:href="#DejaVuSans-67" transform="translate(736.621094 0)"/>
      <use xlink:href="#DejaVuSans-61" transform="translate(800.097656 0)"/>
      <use xlink:href="#DejaVuSans-20" transform="translate(861.376953 0)"/>
      <use xlink:href="#DejaVuSans-5b" transform="translate(893.164062 0)"/>
      <use xlink:href="#DejaVuSans-4d" transform="translate(932.177734 0)"/>
      <use xlink:href="#DejaVuSans-57" transform="translate(1018.457031 0)"/>
      <use xlink:href="#DejaVuSans-5d" transform="translate(1117.333984 0)"/>
     </g>
    </g>
   </g>
   <g id="patch_3">
    <path d="M 80.829545 348.969399 
L 107.823707 348.969399 
L 107.823707 152.450925 
L 80.829545 152.450925 
z
" clip-path="url(#p65b401a482)" style="fill: #1f77b4"/>
   </g>
   <g id="patch_4">
    <path d="M 114.572248 348.969399 
L 141.56641 348.969399 
L 141.56641 160.00048 
L 114.572248 160.00048 
z
" clip-path="url(#p65b401a482)" style="fill: #1f77b4"/>
   </g>
   <g id="patch_5">
    <path d="M 148.31495 348.969399 
L 175.309112 348.969399 
L 175.309112 191.305837 
L 148.31495 191.305837 
z
" clip-path="url(#p65b401a482)" style="fill: #1f77b4"/>
   </g>
   <g id="patch_6">
    <path d="M 182.057652 348.969399 
L 209.051814 348.969399 
L 209.051814 222.468573 
L 182.057652 222.468573 
z
" clip-path="url(#p65b401a482)" style="fill: #1f77b4"/>
   </g>
   <g id="patch_7">
    <path d="M 215.800354 348.969399 
L 242.794516 348.969399 
L 242.794516 230.579893 
L 215.800354 230.579893 
z
" clip-path="url(#p65b401a482)" style="fill: #1f77b4"/>
   </g>
   <g id="patch_8">
    <path d="M 249.543057 348.969399 
L 276.537219 348.969399 
L 276.537219 250.043639 
L 249.543057 250.043639 
z
" clip-path="url(#p65b401a482)" style="fill: #1f77b4"/>
   </g>
   <g id="patch_9">
    <path d="M 283.285759 348.969399 
L 310.279921 348.969399 
L 310.279921 256.515253 
L 283.285759 256.515253 
z
" clip-path="url(#p65b401a482)" style="fill: #1f77b4"/>
   </g>
   <g id="patch_10">
    <path d="M 317.028461 348.969399 
L 344.022623 348.969399 
L 344.022623 262.978479 
L 317.028461 262.978479 
z
" clip-path="url(#p65b401a482)" style="fill: #1f77b4"/>
   </g>
   <g id="patch_11">
    <path d="M 350.771163 348.969399 
L 377.765325 348.969399 
L 377.765325 267.662468 
L 350.771163 267.662468 
z
" clip-path="url(#p65b401a482)" style="fill: #1f77b4"/>
   </g>
   <g id="patch_12">
    <path d="M 384.513866 348.969399 
L 411.508028 348.969399 
L 411.508028 270.009872 
L 384.513866 270.009872 
z
" clip-path="url(#p65b401a482)" style="fill: #1f77b4"/>
   </g>
   <g id="patch_13">
    <path d="M 418.256568 348.969399 
L 445.25073 348.969399 
L 445.25073 300.927932 
L 418.256568 300.927932 
z
" clip-path="url(#p65b401a482)" style="fill: #1f77b4"/>
   </g>
   <g id="patch_14">
    <path d="M 451.99927 348.969399 
L 478.993432 348.969399 
L 478.993432 42.379495 
L 451.99927 42.379495 
z
" clip-path="url(#p65b401a482)" style="fill: #aec7e8"/>
   </g>
   <g id="patch_15">
    <path d="M 485.741972 348.969399 
L 512.736134 348.969399 
L 512.736134 143.023999 
L 485.741972 143.023999 
z
" clip-path="url(#p65b401a482)" style="fill: #aec7e8"/>
   </g>
   <g id="patch_16">
    <path d="M 519.484675 348.969399 
L 546.478837 348.969399 
L 546.478837 248.410943 
L 519.484675 248.410943 
z
" clip-path="url(#p65b401a482)" style="fill: #aec7e8"/>
   </g>
   <g id="patch_17">
    <path d="M 553.227377 348.969399 
L 580.221539 348.969399 
L 580.221539 291.808106 
L 553.227377 291.808106 
z
" clip-path="url(#p65b401a482)" style="fill: #aec7e8"/>
   </g>
   <g id="patch_18">
    <path d="M 586.970079 348.969399 
L 613.964241 348.969399 
L 613.964241 222.654687 
L 586.970079 222.654687 
z
" clip-path="url(#p65b401a482)" style="fill: #ff7f0e"/>
   </g>
   <g id="patch_19">
    <path d="M 620.712781 348.969399 
L 647.706943 348.969399 
L 647.706943 239.778094 
L 620.712781 239.778094 
z
" clip-path="url(#p65b401a482)" style="fill: #ff7f0e"/>
   </g>
   <g id="patch_20">
    <path d="M 654.455484 348.969399 
L 681.449646 348.969399 
L 681.449646 256.418664 
L 654.455484 256.418664 
z
" clip-path="url(#p65b401a482)" style="fill: #ff7f0e"/>
   </g>
   <g id="patch_21">
    <path d="M 688.198186 348.969399 
L 715.192348 348.969399 
L 715.192348 286.832471 
L 688.198186 286.832471 
z
" clip-path="url(#p65b401a482)" style="fill: #ff7f0e"/>
   </g>
   <g id="patch_22">
    <path d="M 721.940888 348.969399 
L 748.93505 348.969399 
L 748.93505 88.283297 
L 721.940888 88.283297 
z
" clip-path="url(#p65b401a482)" style="fill: #ffbb78"/>
   </g>
   <g id="patch_23">
    <path d="M 755.68359 348.969399 
L 782.677752 348.969399 
L 782.677752 173.640258 
L 755.68359 173.640258 
z
" clip-path="url(#p65b401a482)" style="fill: #ffbb78"/>
   </g>
   <g id="patch_24">
    <path d="M 789.426293 348.969399 
L 816.420455 348.969399 
L 816.420455 237.765167 
L 789.426293 237.765167 
z
" clip-path="url(#p65b401a482)" style="fill: #2ca02c"/>
   </g>
   <g id="patch_25">
    <path d="M 44.05 348.969399 
L 44.05 27.05 
" style="fill: none; stroke: #000000; stroke-width: 0.8; stroke-linejoin: miter; stroke-linecap: square"/>
   </g>
   <g id="patch_26">
    <path d="M 853.2 348.969399 
L 853.2 27.05 
" style="fill: none; stroke: #000000; stroke-width: 0.8; stroke-linejoin: miter; stroke-linecap: square"/>
   </g>
   <g id="patch_27">
    <path d="M 44.05 348.969399 
L 853.2 348.969399 
" style="fill: none; stroke: #000000; stroke-width: 0.8; stroke-linejoin: miter; stroke-linecap: square"/>
   </g>
   <g id="patch_28">
    <path d="M 44.05 27.05 
L 853.2 27.05 
" style="fill: none; stroke: #000000; stroke-width: 0.8; stroke-linejoin: miter; stroke-linecap: square"/>
   </g>
   <g id="text_30">
    <!-- 17.8 -->
    <g transform="translate(85.420376 147.721276) scale(0.08 -0.08)">
     <defs>
      <path id="DejaVuSans-37" d="M 525 4666 
L 3525 4666 
L 3525 4397 
L 1831 0 
L 1172 0 
L 2766 4134 
L 525 4134 
L 525 4666 
z
" transform="scale(0.015625)"/>
      <path id="DejaVuSans-38" d="M 2034 2216 
Q 1584 2216 1326 1975 
Q 1069 1734 1069 1313 
Q 1069 891 1326 650 
Q 1584 409 2034 409 
Q 2484 409 2743 651 
Q 3003 894 3003 1313 
Q 3003 1734 2745 1975 
Q 2488 2216 2034 2216 
z
M 1403 2484 
Q 997 2584 770 2862 
Q 544 3141 544 3541 
Q 544 4100 942 4425 
Q 1341 4750 2034 4750 
Q 2731 4750 3128 4425 
Q 3525 4100 3525 3541 
Q 3525 3141 3298 2862 
Q 3072 2584 2669 2484 
Q 3125 2378 3379 2068 
Q 3634 1759 3634 1313 
Q 3634 634 3220 271 
Q 2806 -91 2034 -91 
Q 1263 -91 848 271 
Q 434 634 434 1313 
Q 434 1759 690 2068 
Q 947 2378 1403 2484 
z
M 1172 3481 
Q 1172 3119 1398 2916 
Q 1625 2713 2034 2713 
Q 2441 2713 2670 2916 
Q 2900 3119 2900 3481 
Q 2900 3844 2670 4047 
Q 2441 4250 2034 4250 
Q 1625 4250 1398 4047 
Q 1172 3844 1172 3481 
z
" transform="scale(0.015625)"/>
     </defs>
     <use xlink:href="#DejaVuSans-31"/>
     <use xlink:href="#DejaVuSans-37" transform="translate(63.623047 0)"/>
     <use xlink:href="#DejaVuSans-2e" transform="translate(127.246094 0)"/>
     <use xlink:href="#DejaVuSans-38" transform="translate(159.033203 0)"/>
    </g>
   </g>
   <g id="text_31">
    <!-- 17.1 -->
    <g transform="translate(119.163079 155.270831) scale(0.08 -0.08)">
     <use xlink:href="#DejaVuSans-31"/>
     <use xlink:href="#DejaVuSans-37" transform="translate(63.623047 0)"/>
     <use xlink:href="#DejaVuSans-2e" transform="translate(127.246094 0)"/>
     <use xlink:href="#DejaVuSans-31" transform="translate(159.033203 0)"/>
    </g>
   </g>
   <g id="text_32">
    <!-- 14.3 -->
    <g transform="translate(152.905781 186.576188) scale(0.08 -0.08)">
     <use xlink:href="#DejaVuSans-31"/>
     <use xlink:href="#DejaVuSans-34" transform="translate(63.623047 0)"/>
     <use xlink:href="#DejaVuSans-2e" transform="translate(127.246094 0)"/>
     <use xlink:href="#DejaVuSans-33" transform="translate(159.033203 0)"/>
    </g>
   </g>
   <g id="text_33">
    <!-- 11.5 -->
    <g transform="translate(186.648483 217.738924) scale(0.08 -0.08)">
     <use xlink:href="#DejaVuSans-31"/>
     <use xlink:href="#DejaVuSans-31" transform="translate(63.623047 0)"/>
     <use xlink:href="#DejaVuSans-2e" transform="translate(127.246094 0)"/>
     <use xlink:href="#DejaVuSans-35" transform="translate(159.033203 0)"/>
    </g>
   </g>
   <g id="text_34">
    <!-- 10.7 -->
    <g transform="translate(220.391185 225.850244) scale(0.08 -0.08)">
     <use xlink:href="#DejaVuSans-31"/>
     <use xlink:href="#DejaVuSans-30" transform="translate(63.623047 0)"/>
     <use xlink:href="#DejaVuSans-2e" transform="translate(127.246094 0)"/>
     <use xlink:href="#DejaVuSans-37" transform="translate(159.033203 0)"/>
    </g>
   </g>
   <g id="text_35">
    <!-- 9.0 -->
    <g transform="translate(256.678888 245.31399) scale(0.08 -0.08)">
     <defs>
      <path id="DejaVuSans-39" d="M 703 97 
L 703 672 
Q 941 559 1184 500 
Q 1428 441 1663 441 
Q 2288 441 2617 861 
Q 2947 1281 2994 2138 
Q 2813 1869 2534 1725 
Q 2256 1581 1919 1581 
Q 1219 1581 811 2004 
Q 403 2428 403 3163 
Q 403 3881 828 4315 
Q 1253 4750 1959 4750 
Q 2769 4750 3195 4129 
Q 3622 3509 3622 2328 
Q 3622 1225 3098 567 
Q 2575 -91 1691 -91 
Q 1453 -91 1209 -44 
Q 966 3 703 97 
z
M 1959 2075 
Q 2384 2075 2632 2365 
Q 2881 2656 2881 3163 
Q 2881 3666 2632 3958 
Q 2384 4250 1959 4250 
Q 1534 4250 1286 3958 
Q 1038 3666 1038 3163 
Q 1038 2656 1286 2365 
Q 1534 2075 1959 2075 
z
" transform="scale(0.015625)"/>
     </defs>
     <use xlink:href="#DejaVuSans-39"/>
     <use xlink:href="#DejaVuSans-2e" transform="translate(63.623047 0)"/>
     <use xlink:href="#DejaVuSans-30" transform="translate(95.410156 0)"/>
    </g>
   </g>
   <g id="text_36">
    <!-- 8.4 -->
    <g transform="translate(290.42159 251.785604) scale(0.08 -0.08)">
     <use xlink:href="#DejaVuSans-38"/>
     <use xlink:href="#DejaVuSans-2e" transform="translate(63.623047 0)"/>
     <use xlink:href="#DejaVuSans-34" transform="translate(95.410156 0)"/>
    </g>
   </g>
   <g id="text_37">
    <!-- 7.8 -->
    <g transform="translate(324.164292 258.24883) scale(0.08 -0.08)">
     <use xlink:href="#DejaVuSans-37"/>
     <use xlink:href="#DejaVuSans-2e" transform="translate(63.623047 0)"/>
     <use xlink:href="#DejaVuSans-38" transform="translate(95.410156 0)"/>
    </g>
   </g>
   <g id="text_38">
    <!-- 7.4 -->
    <g transform="translate(357.906994 262.932819) scale(0.08 -0.08)">
     <use xlink:href="#DejaVuSans-37"/>
     <use xlink:href="#DejaVuSans-2e" transform="translate(63.623047 0)"/>
     <use xlink:href="#DejaVuSans-34" transform="translate(95.410156 0)"/>
    </g>
   </g>
   <g id="text_39">
    <!-- 7.2 -->
    <g transform="translate(391.649697 265.280222) scale(0.08 -0.08)">
     <use xlink:href="#DejaVuSans-37"/>
     <use xlink:href="#DejaVuSans-2e" transform="translate(63.623047 0)"/>
     <use xlink:href="#DejaVuSans-32" transform="translate(95.410156 0)"/>
    </g>
   </g>
   <g id="text_40">
    <!-- 4.4 -->
    <g transform="translate(425.392399 296.198283) scale(0.08 -0.08)">
     <use xlink:href="#DejaVuSans-34"/>
     <use xlink:href="#DejaVuSans-2e" transform="translate(63.623047 0)"/>
     <use xlink:href="#DejaVuSans-34" transform="translate(95.410156 0)"/>
    </g>
   </g>
   <g id="text_41">
    <!-- 27.8 -->
    <g transform="translate(456.590101 37.649846) scale(0.08 -0.08)">
     <use xlink:href="#DejaVuSans-32"/>
     <use xlink:href="#DejaVuSans-37" transform="translate(63.623047 0)"/>
     <use xlink:href="#DejaVuSans-2e" transform="translate(127.246094 0)"/>
     <use xlink:href="#DejaVuSans-38" transform="translate(159.033203 0)"/>
    </g>
   </g>
   <g id="text_42">
    <!-- 18.7 -->
    <g transform="translate(490.332803 138.29435) scale(0.08 -0.08)">
     <use xlink:href="#DejaVuSans-31"/>
     <use xlink:href="#DejaVuSans-38" transform="translate(63.623047 0)"/>
     <use xlink:href="#DejaVuSans-2e" transform="translate(127.246094 0)"/>
     <use xlink:href="#DejaVuSans-37" transform="translate(159.033203 0)"/>
    </g>
   </g>
   <g id="text_43">
    <!-- 9.1 -->
    <g transform="translate(526.620506 243.681294) scale(0.08 -0.08)">
     <use xlink:href="#DejaVuSans-39"/>
     <use xlink:href="#DejaVuSans-2e" transform="translate(63.623047 0)"/>
     <use xlink:href="#DejaVuSans-31" transform="translate(95.410156 0)"/>
    </g>
   </g>
   <g id="text_44">
    <!-- 5.2 -->
    <g transform="translate(560.363208 287.078457) scale(0.08 -0.08)">
     <use xlink:href="#DejaVuSans-35"/>
     <use xlink:href="#DejaVuSans-2e" transform="translate(63.623047 0)"/>
     <use xlink:href="#DejaVuSans-32" transform="translate(95.410156 0)"/>
    </g>
   </g>
   <g id="text_45">
    <!-- 11.4 -->
    <g transform="translate(591.56091 217.925038) scale(0.08 -0.08)">
     <use xlink:href="#DejaVuSans-31"/>
     <use xlink:href="#DejaVuSans-31" transform="translate(63.623047 0)"/>
     <use xlink:href="#DejaVuSans-2e" transform="translate(127.246094 0)"/>
     <use xlink:href="#DejaVuSans-34" transform="translate(159.033203 0)"/>
    </g>
   </g>
   <g id="text_46">
    <!-- 9.9 -->
    <g transform="translate(627.848612 235.048445) scale(0.08 -0.08)">
     <use xlink:href="#DejaVuSans-39"/>
     <use xlink:href="#DejaVuSans-2e" transform="translate(63.623047 0)"/>
     <use xlink:href="#DejaVuSans-39" transform="translate(95.410156 0)"/>
    </g>
   </g>
   <g id="text_47">
    <!-- 8.4 -->
    <g transform="translate(661.591315 251.689015) scale(0.08 -0.08)">
     <use xlink:href="#DejaVuSans-38"/>
     <use xlink:href="#DejaVuSans-2e" transform="translate(63.623047 0)"/>
     <use xlink:href="#DejaVuSans-34" transform="translate(95.410156 0)"/>
    </g>
   </g>
   <g id="text_48">
    <!-- 5.6 -->
    <g transform="translate(695.334017 282.102822) scale(0.08 -0.08)">
     <defs>
      <path id="DejaVuSans-36" d="M 2113 2584 
Q 1688 2584 1439 2293 
Q 1191 2003 1191 1497 
Q 1191 994 1439 701 
Q 1688 409 2113 409 
Q 2538 409 2786 701 
Q 3034 994 3034 1497 
Q 3034 2003 2786 2293 
Q 2538 2584 2113 2584 
z
M 3366 4563 
L 3366 3988 
Q 3128 4100 2886 4159 
Q 2644 4219 2406 4219 
Q 1781 4219 1451 3797 
Q 1122 3375 1075 2522 
Q 1259 2794 1537 2939 
Q 1816 3084 2150 3084 
Q 2853 3084 3261 2657 
Q 3669 2231 3669 1497 
Q 3669 778 3244 343 
Q 2819 -91 2113 -91 
Q 1303 -91 875 529 
Q 447 1150 447 2328 
Q 447 3434 972 4092 
Q 1497 4750 2381 4750 
Q 2619 4750 2861 4703 
Q 3103 4656 3366 4563 
z
" transform="scale(0.015625)"/>
     </defs>
     <use xlink:href="#DejaVuSans-35"/>
     <use xlink:href="#DejaVuSans-2e" transform="translate(63.623047 0)"/>
     <use xlink:href="#DejaVuSans-36" transform="translate(95.410156 0)"/>
    </g>
   </g>
   <g id="text_49">
    <!-- 23.6 -->
    <g transform="translate(726.531719 83.553648) scale(0.08 -0.08)">
     <use xlink:href="#DejaVuSans-32"/>
     <use xlink:href="#DejaVuSans-33" transform="translate(63.623047 0)"/>
     <use xlink:href="#DejaVuSans-2e" transform="translate(127.246094 0)"/>
     <use xlink:href="#DejaVuSans-36" transform="translate(159.033203 0)"/>
    </g>
   </g>
   <g id="text_50">
    <!-- 15.9 -->
    <g transform="translate(760.274421 168.910609) scale(0.08 -0.08)">
     <use xlink:href="#DejaVuSans-31"/>
     <use xlink:href="#DejaVuSans-35" transform="translate(63.623047 0)"/>
     <use xlink:href="#DejaVuSans-2e" transform="translate(127.246094 0)"/>
     <use xlink:href="#DejaVuSans-39" transform="translate(159.033203 0)"/>
    </g>
   </g>
   <g id="text_51">
    <!-- 10.1 -->
    <g transform="translate(794.017124 233.035518) scale(0.08 -0.08)">
     <use xlink:href="#DejaVuSans-31"/>
     <use xlink:href="#DejaVuSans-30" transform="translate(63.623047 0)"/>
     <use xlink:href="#DejaVuSans-2e" transform="translate(127.246094 0)"/>
     <use xlink:href="#DejaVuSans-31" transform="translate(159.033203 0)"/>
    </g>
   </g>
   <g id="text_52">
    <!-- Instalirana snaga po grupi područja - ISTOK -->
    <g transform="translate(318.107188 21.05) scale(0.12 -0.12)">
     <defs>
      <path id="DejaVuSans-70" d="M 1159 525 
L 1159 -1331 
L 581 -1331 
L 581 3500 
L 1159 3500 
L 1159 2969 
Q 1341 3281 1617 3432 
Q 1894 3584 2278 3584 
Q 2916 3584 3314 3078 
Q 3713 2572 3713 1747 
Q 3713 922 3314 415 
Q 2916 -91 2278 -91 
Q 1894 -91 1617 61 
Q 1341 213 1159 525 
z
M 3116 1747 
Q 3116 2381 2855 2742 
Q 2594 3103 2138 3103 
Q 1681 3103 1420 2742 
Q 1159 2381 1159 1747 
Q 1159 1113 1420 752 
Q 1681 391 2138 391 
Q 2594 391 2855 752 
Q 3116 1113 3116 1747 
z
" transform="scale(0.015625)"/>
      <path id="DejaVuSans-6f" d="M 1959 3097 
Q 1497 3097 1228 2736 
Q 959 2375 959 1747 
Q 959 1119 1226 758 
Q 1494 397 1959 397 
Q 2419 397 2687 759 
Q 2956 1122 2956 1747 
Q 2956 2369 2687 2733 
Q 2419 3097 1959 3097 
z
M 1959 3584 
Q 2709 3584 3137 3096 
Q 3566 2609 3566 1747 
Q 3566 888 3137 398 
Q 2709 -91 1959 -91 
Q 1206 -91 779 398 
Q 353 888 353 1747 
Q 353 2609 779 3096 
Q 1206 3584 1959 3584 
z
" transform="scale(0.015625)"/>
      <path id="DejaVuSans-75" d="M 544 1381 
L 544 3500 
L 1119 3500 
L 1119 1403 
Q 1119 906 1312 657 
Q 1506 409 1894 409 
Q 2359 409 2629 706 
Q 2900 1003 2900 1516 
L 2900 3500 
L 3475 3500 
L 3475 0 
L 2900 0 
L 2900 538 
Q 2691 219 2414 64 
Q 2138 -91 1772 -91 
Q 1169 -91 856 284 
Q 544 659 544 1381 
z
M 1991 3584 
L 1991 3584 
z
" transform="scale(0.015625)"/>
      <path id="DejaVuSans-64" d="M 2906 2969 
L 2906 4863 
L 3481 4863 
L 3481 0 
L 2906 0 
L 2906 525 
Q 2725 213 2448 61 
Q 2172 -91 1784 -91 
Q 1150 -91 751 415 
Q 353 922 353 1747 
Q 353 2572 751 3078 
Q 1150 3584 1784 3584 
Q 2172 3584 2448 3432 
Q 2725 3281 2906 2969 
z
M 947 1747 
Q 947 1113 1208 752 
Q 1469 391 1925 391 
Q 2381 391 2643 752 
Q 2906 1113 2906 1747 
Q 2906 2381 2643 2742 
Q 2381 3103 1925 3103 
Q 1469 3103 1208 2742 
Q 947 2381 947 1747 
z
" transform="scale(0.015625)"/>
      <path id="DejaVuSans-10d" d="M 3122 3366 
L 3122 2828 
Q 2878 2963 2633 3030 
Q 2388 3097 2138 3097 
Q 1578 3097 1268 2742 
Q 959 2388 959 1747 
Q 959 1106 1268 751 
Q 1578 397 2138 397 
Q 2388 397 2633 464 
Q 2878 531 3122 666 
L 3122 134 
Q 2881 22 2623 -34 
Q 2366 -91 2075 -91 
Q 1284 -91 818 406 
Q 353 903 353 1747 
Q 353 2603 823 3093 
Q 1294 3584 2113 3584 
Q 2378 3584 2631 3529 
Q 2884 3475 3122 3366 
z
M 1797 3944 
L 1031 5119 
L 1466 5119 
L 2028 4353 
L 2591 5119 
L 3025 5119 
L 2259 3944 
L 1797 3944 
z
" transform="scale(0.015625)"/>
      <path id="DejaVuSans-6a" d="M 603 3500 
L 1178 3500 
L 1178 -63 
Q 1178 -731 923 -1031 
Q 669 -1331 103 -1331 
L -116 -1331 
L -116 -844 
L 38 -844 
Q 366 -844 484 -692 
Q 603 -541 603 -63 
L 603 3500 
z
M 603 4863 
L 1178 4863 
L 1178 4134 
L 603 4134 
L 603 4863 
z
" transform="scale(0.015625)"/>
      <path id="DejaVuSans-2d" d="M 313 2009 
L 1997 2009 
L 1997 1497 
L 313 1497 
L 313 2009 
z
" transform="scale(0.015625)"/>
     </defs>
     <use xlink:href="#DejaVuSans-49"/>
     <use xlink:href="#DejaVuSans-6e" transform="translate(29.492188 0)"/>
     <use xlink:href="#DejaVuSans-73" transform="translate(92.871094 0)"/>
     <use xlink:href="#DejaVuSans-74" transform="translate(144.970703 0)"/>
     <use xlink:href="#DejaVuSans-61" transform="translate(184.179688 0)"/>
     <use xlink:href="#DejaVuSans-6c" transform="translate(245.458984 0)"/>
     <use xlink:href="#DejaVuSans-69" transform="translate(273.242188 0)"/>
     <use xlink:href="#DejaVuSans-72" transform="translate(301.025391 0)"/>
     <use xlink:href="#DejaVuSans-61" transform="translate(342.138672 0)"/>
     <use xlink:href="#DejaVuSans-6e" transform="translate(403.417969 0)"/>
     <use xlink:href="#DejaVuSans-61" transform="translate(466.796875 0)"/>
     <use xlink:href="#DejaVuSans-20" transform="translate(528.076172 0)"/>
     <use xlink:href="#DejaVuSans-73" transform="translate(559.863281 0)"/>
     <use xlink:href="#DejaVuSans-6e" transform="translate(611.962891 0)"/>
     <use xlink:href="#DejaVuSans-61" transform="translate(675.341797 0)"/>
     <use xlink:href="#DejaVuSans-67" transform="translate(736.621094 0)"/>
     <use xlink:href="#DejaVuSans-61" transform="translate(800.097656 0)"/>
     <use xlink:href="#DejaVuSans-20" transform="translate(861.376953 0)"/>
     <use xlink:href="#DejaVuSans-70" transform="translate(893.164062 0)"/>
     <use xlink:href="#DejaVuSans-6f" transform="translate(956.640625 0)"/>
     <use xlink:href="#DejaVuSans-20" transform="translate(1017.822266 0)"/>
     <use xlink:href="#DejaVuSans-67" transform="translate(1049.609375 0)"/>
     <use xlink:href="#DejaVuSans-72" transform="translate(1113.085938 0)"/>
     <use xlink:href="#DejaVuSans-75" transform="translate(1154.199219 0)"/>
     <use xlink:href="#DejaVuSans-70" transform="translate(1217.578125 0)"/>
     <use xlink:href="#DejaVuSans-69" transform="translate(1281.054688 0)"/>
     <use xlink:href="#DejaVuSans-20" transform="translate(1308.837891 0)"/>
     <use xlink:href="#DejaVuSans-70" transform="translate(1340.625 0)"/>
     <use xlink:href="#DejaVuSans-6f" transform="translate(1404.101562 0)"/>
     <use xlink:href="#DejaVuSans-64" transform="translate(1465.283203 0)"/>
     <use xlink:href="#DejaVuSans-72" transform="translate(1528.759766 0)"/>
     <use xlink:href="#DejaVuSans-75" transform="translate(1569.873047 0)"/>
     <use xlink:href="#DejaVuSans-10d" transform="translate(1633.251953 0)"/>
     <use xlink:href="#DejaVuSans-6a" transform="translate(1688.232422 0)"/>
     <use xlink:href="#DejaVuSans-61" transform="translate(1716.015625 0)"/>
     <use xlink:href="#DejaVuSans-20" transform="translate(1777.294922 0)"/>
     <use xlink:href="#DejaVuSans-2d" transform="translate(1809.082031 0)"/>
     <use xlink:href="#DejaVuSans-20" transform="translate(1845.166016 0)"/>
     <use xlink:href="#DejaVuSans-49" transform="translate(1876.953125 0)"/>
     <use xlink:href="#DejaVuSans-53" transform="translate(1906.445312 0)"/>
     <use xlink:href="#DejaVuSans-54" transform="translate(1969.921875 0)"/>
     <use xlink:href="#DejaVuSans-4f" transform="translate(2031.005859 0)"/>
     <use xlink:href="#DejaVuSans-4b" transform="translate(2109.716797 0)"/>
    </g>
   </g>
   <g id="legend_1">
    <g id="patch_29">
     <path d="M 771.842188 123.11875 
L 846.2 123.11875 
Q 848.2 123.11875 848.2 121.11875 
L 848.2 34.05 
Q 848.2 32.05 846.2 32.05 
L 771.842188 32.05 
Q 769.842188 32.05 769.842188 34.05 
L 769.842188 121.11875 
Q 769.842188 123.11875 771.842188 123.11875 
z
" style="fill: #ffffff; opacity: 0.8; stroke: #cccccc; stroke-linejoin: miter"/>
    </g>
    <g id="text_53">
     <!-- DP -->
     <g transform="translate(802.15625 43.648438) scale(0.1 -0.1)">
      <use xlink:href="#DejaVuSans-44"/>
      <use xlink:href="#DejaVuSans-50" transform="translate(77.001953 0)"/>
     </g>
    </g>
    <g id="patch_30">
     <path d="M 773.842188 58.326563 
L 793.842188 58.326563 
L 793.842188 51.326563 
L 773.842188 51.326563 
z
" style="fill: #1f77b4; stroke: #1f77b4; stroke-linejoin: miter"/>
    </g>
    <g id="text_54">
     <!-- DP 4008 -->
     <g transform="translate(801.842188 58.326563) scale(0.1 -0.1)">
      <use xlink:href="#DejaVuSans-44"/>
      <use xlink:href="#DejaVuSans-50" transform="translate(77.001953 0)"/>
      <use xlink:href="#DejaVuSans-20" transform="translate(137.304688 0)"/>
      <use xlink:href="#DejaVuSans-34" transform="translate(169.091797 0)"/>
      <use xlink:href="#DejaVuSans-30" transform="translate(232.714844 0)"/>
      <use xlink:href="#DejaVuSans-30" transform="translate(296.337891 0)"/>
      <use xlink:href="#DejaVuSans-38" transform="translate(359.960938 0)"/>
     </g>
    </g>
    <g id="patch_31">
     <path d="M 773.842188 73.004688 
L 793.842188 73.004688 
L 793.842188 66.004688 
L 773.842188 66.004688 
z
" style="fill: #aec7e8; stroke: #aec7e8; stroke-linejoin: miter"/>
    </g>
    <g id="text_55">
     <!-- DP 4009 -->
     <g transform="translate(801.842188 73.004688) scale(0.1 -0.1)">
      <use xlink:href="#DejaVuSans-44"/>
      <use xlink:href="#DejaVuSans-50" transform="translate(77.001953 0)"/>
      <use xlink:href="#DejaVuSans-20" transform="translate(137.304688 0)"/>
      <use xlink:href="#DejaVuSans-34" transform="translate(169.091797 0)"/>
      <use xlink:href="#DejaVuSans-30" transform="translate(232.714844 0)"/>
      <use xlink:href="#DejaVuSans-30" transform="translate(296.337891 0)"/>
      <use xlink:href="#DejaVuSans-39" transform="translate(359.960938 0)"/>
     </g>
    </g>
    <g id="patch_32">
     <path d="M 773.842188 87.682813 
L 793.842188 87.682813 
L 793.842188 80.682813 
L 773.842188 80.682813 
z
" style="fill: #ff7f0e; stroke: #ff7f0e; stroke-linejoin: miter"/>
    </g>
    <g id="text_56">
     <!-- DP 4010 -->
     <g transform="translate(801.842188 87.682813) scale(0.1 -0.1)">
      <use xlink:href="#DejaVuSans-44"/>
      <use xlink:href="#DejaVuSans-50" transform="translate(77.001953 0)"/>
      <use xlink:href="#DejaVuSans-20" transform="translate(137.304688 0)"/>
      <use xlink:href="#DejaVuSans-34" transform="translate(169.091797 0)"/>
      <use xlink:href="#DejaVuSans-30" transform="translate(232.714844 0)"/>
      <use xlink:href="#DejaVuSans-31" transform="translate(296.337891 0)"/>
      <use xlink:href="#DejaVuSans-30" transform="translate(359.960938 0)"/>
     </g>
    </g>
    <g id="patch_33">
     <path d="M 773.842188 102.360938 
L 793.842188 102.360938 
L 793.842188 95.360938 
L 773.842188 95.360938 
z
" style="fill: #ffbb78; stroke: #ffbb78; stroke-linejoin: miter"/>
    </g>
    <g id="text_57">
     <!-- DP 4020 -->
     <g transform="translate(801.842188 102.360938) scale(0.1 -0.1)">
      <use xlink:href="#DejaVuSans-44"/>
      <use xlink:href="#DejaVuSans-50" transform="translate(77.001953 0)"/>
      <use xlink:href="#DejaVuSans-20" transform="translate(137.304688 0)"/>
      <use xlink:href="#DejaVuSans-34" transform="translate(169.091797 0)"/>
      <use xlink:href="#DejaVuSans-30" transform="translate(232.714844 0)"/>
      <use xlink:href="#DejaVuSans-32" transform="translate(296.337891 0)"/>
      <use xlink:href="#DejaVuSans-30" transform="translate(359.960938 0)"/>
     </g>
    </g>
    <g id="patch_34">
     <path d="M 773.842188 117.039062 
L 793.842188 117.039062 
L 793.842188 110.039062 
L 773.842188 110.039062 
z
" style="fill: #2ca02c; stroke: #2ca02c; stroke-linejoin: miter"/>
    </g>
    <g id="text_58">
     <!-- DP 4021 -->
     <g transform="translate(801.842188 117.039062) scale(0.1 -0.1)">
      <use xlink:href="#DejaVuSans-44"/>
      <use xlink:href="#DejaVuSans-50" transform="translate(77.001953 0)"/>
      <use xlink:href="#DejaVuSans-20" transform="translate(137.304688 0)"/>
      <use xlink:href="#DejaVuSans-34" transform="translate(169.091797 0)"/>
      <use xlink:href="#DejaVuSans-30" transform="translate(232.714844 0)"/>
      <use xlink:href="#DejaVuSans-32" transform="translate(296.337891 0)"/>
      <use xlink:href="#DejaVuSans-31" transform="translate(359.960938 0)"/>
     </g>
    </g>
   </g>
  </g>
 </g>
 <defs>
  <clipPath id="p65b401a482">
   <rect x="44.05" y="27.05" width="809.15" height="321.919399"/>
  </clipPath>
 </defs>
</svg>
